<!-- Generated by IcoMoon.io -->
<svg version="1.1" xmlns="http://www.w3.org/2000/svg" width="32" height="32" viewBox="0 0 32 32">
<title>icon__edit</title>
<path d="M25.968 25.336l-1.656-5.544c-0.032-0.104-0.088-0.192-0.168-0.248 0 0-0.008-0.008-0.008-0.008l-12.736-12.736c-1.040-1.040-2.744-1.040-3.784 0l-0.824 0.824c-1.040 1.040-1.040 2.744 0 3.784l12.736 12.736c0.040 0.040 0.096 0.080 0.144 0.112 0.048 0.048 0.112 0.080 0.184 0.096l5.488 1.608c0.048 0.016 0.096 0.024 0.144 0.024 0.128 0 0.264-0.048 0.352-0.144 0.136-0.136 0.184-0.328 0.128-0.504zM22.344 19.64l-2.72 2.72-9.656-9.672 2.72-2.72 9.656 9.672zM23.544 20.704l0.776 2.616-1 1-2.624-0.768 2.848-2.848zM7.736 8.568l0.824-0.824c0.52-0.52 1.368-0.52 1.896 0l1.096 1.096-2.72 2.72-1.096-1.096c-0.52-0.528-0.52-1.376 0-1.896z"></path>
</svg>
