<?xml version="1.0" encoding="utf-8"?>
<!-- Generator: Adobe Illustrator 24.2.3, SVG Export Plug-In . SVG Version: 6.00 Build 0)  -->
<svg version="1.1" id="Layer_1" xmlns="http://www.w3.org/2000/svg" xmlns:xlink="http://www.w3.org/1999/xlink" x="0px" y="0px"
	 viewBox="0 0 32 32" style="enable-background:new 0 0 32 32;" xml:space="preserve">
<style type="text/css">
	.st0{fill:#C0F1F9;}
	.st1{fill:#4166C1;}
</style>
<g>
	<path class="st0" d="M18.8,14.3h-5.1V9.4c0-0.2-0.2-0.4-0.4-0.4s-0.4,0.2-0.4,0.4v4.9H9.6h0H7.7c-1.5,0-2.8,1.2-2.8,2.8v6.6
		c0,1.5,1.2,2.8,2.8,2.8h11.1c1.5,0,2.8-1.2,2.8-2.8v-6.6C21.6,15.6,20.3,14.3,18.8,14.3z"/>
	<g>
		<path class="st1" d="M11.9,16.1c-0.2,0.2-0.2,0.4,0,0.6l3.5,3.5c0.1,0.1,0.2,0.1,0.3,0.1c0.1,0,0.2,0,0.3-0.1c0,0,0,0,0,0
			c0,0,0,0,0,0l3.4-3.4c0.2-0.2,0.2-0.4,0-0.6c-0.2-0.2-0.4-0.2-0.6,0l-2.8,2.8V7c0-0.2-0.2-0.4-0.4-0.4c-0.2,0-0.4,0.2-0.4,0.4
			v11.8l-2.8-2.8C12.3,15.9,12.1,15.9,11.9,16.1z"/>
		<path class="st1" d="M21.7,11.5h-2.2c-0.2,0-0.4,0.2-0.4,0.4c0,0.2,0.2,0.4,0.4,0.4h2.2c1,0,1.8,0.8,1.8,1.8v7.7
			c0,1-0.8,1.8-1.8,1.8H9.6c-1,0-1.8-0.8-1.8-1.8v-7.7c0-1,0.8-1.8,1.8-1.8H12c0.2,0,0.4-0.2,0.4-0.4c0-0.2-0.2-0.4-0.4-0.4H9.6
			c-1.4,0-2.6,1.2-2.6,2.6v7.7c0,1.4,1.2,2.6,2.6,2.6h12.2c1.4,0,2.6-1.2,2.6-2.6v-7.7C24.4,12.7,23.2,11.5,21.7,11.5z"/>
	</g>
</g>
</svg>
