<!-- Generated by IcoMoon.io -->
<svg version="1.1" xmlns="http://www.w3.org/2000/svg" width="32" height="32" viewBox="0 0 32 32">
<title>icon__pin</title>
<path d="M21.784 8.688c-1.544-1.544-3.6-2.4-5.784-2.4s-4.24 0.848-5.784 2.4c-3.192 3.192-3.192 8.384 0 11.568l5.216 5.216c0.16 0.16 0.36 0.232 0.568 0.232s0.408-0.080 0.568-0.232l5.216-5.224c3.192-3.184 3.192-8.376 0-11.56zM20.656 19.128l-4.656 4.648-4.656-4.656c-2.568-2.568-2.568-6.744 0-9.312 1.24-1.24 2.896-1.928 4.656-1.928s3.408 0.688 4.656 1.928c2.568 2.576 2.568 6.752 0 9.32z"></path>
<path d="M16 11.312c-1.72 0-3.12 1.4-3.12 3.12s1.4 3.12 3.12 3.12 3.12-1.4 3.12-3.12-1.4-3.12-3.12-3.12zM16 15.952c-0.84 0-1.52-0.68-1.52-1.52s0.68-1.52 1.52-1.52 1.52 0.68 1.52 1.52-0.68 1.52-1.52 1.52z"></path>
</svg>
