<?xml version="1.0" encoding="utf-8"?>
<!-- Generator: Adobe Illustrator 24.2.3, SVG Export Plug-In . SVG Version: 6.00 Build 0)  -->
<svg version="1.1" id="Layer_1" xmlns="http://www.w3.org/2000/svg" xmlns:xlink="http://www.w3.org/1999/xlink" x="0px" y="0px"
	 viewBox="0 0 32 32" style="enable-background:new 0 0 32 32;" xml:space="preserve">
<style type="text/css">
	.st0{fill:#C0F1F9;}
	.st1{fill:#4166C1;}
</style>
<g>
	<g>
		<path class="st0" d="M22.4,18.1c0,4.6-3.7,8.4-8.4,8.4s-8.4-3.7-8.4-8.4S9.4,9.8,14,9.8c2.2,0,4.2,0.9,5.7,2.3
			C21.4,13.6,22.4,15.7,22.4,18.1z"/>
		<g>
			<path class="st1" d="M22.2,9.6c-1.6-1.5-3.8-2.4-6-2.4c-4.8,0-8.8,3.9-8.8,8.8c0,4.8,3.9,8.8,8.8,8.8c4.8,0,8.8-3.9,8.8-8.8
				C24.9,13.5,24,11.2,22.2,9.6z M16.2,23.9c-4.4,0-8-3.6-8-8c0-4.4,3.6-8,8-8c2,0,4,0.8,5.5,2.2c1.6,1.5,2.5,3.6,2.5,5.8
				C24.1,20.3,20.5,23.9,16.2,23.9z"/>
			<path class="st1" d="M20.2,15.5l-3.6,0l0-3.6c0-0.2-0.2-0.4-0.4-0.4h0c-0.2,0-0.4,0.2-0.4,0.4l0,3.6l-3.6,0c0,0,0,0,0,0
				c-0.2,0-0.4,0.2-0.4,0.4c0,0.2,0.2,0.4,0.4,0.4l3.6,0l0,3.6c0,0.2,0.2,0.4,0.4,0.4h0c0.2,0,0.4-0.2,0.4-0.4l0-3.6l3.6,0h0
				c0.2,0,0.4-0.2,0.4-0.4C20.6,15.7,20.4,15.5,20.2,15.5z"/>
		</g>
	</g>
</g>
</svg>
