<!-- Generated by IcoMoon.io -->
<svg version="1.1" xmlns="http://www.w3.org/2000/svg" width="32" height="32" viewBox="0 0 32 32">
<title>icon__profile</title>
<path d="M19 15.6c1.2-0.9 1.9-2.3 1.9-3.9 0-2.7-2.2-4.9-4.9-4.9s-4.9 2.2-4.9 4.9c0 1.6 0.8 3 1.9 3.9-3.7 1.3-6.4 4.8-6.4 8.9 0 0.4 0.3 0.8 0.8 0.8 0.4 0 0.8-0.3 0.8-0.8 0-4.3 3.5-7.9 7.9-7.9 4.3 0 7.9 3.5 7.9 7.9 0 0.4 0.3 0.8 0.8 0.8 0.4 0 0.8-0.3 0.8-0.8-0.2-4.1-2.9-7.7-6.6-8.9zM16 8.3c1.9 0 3.4 1.5 3.4 3.4s-1.5 3.4-3.4 3.4c-1.9 0-3.4-1.5-3.4-3.4s1.5-3.4 3.4-3.4z"></path>
</svg>
