<!-- Generated by IcoMoon.io -->
<svg version="1.1" xmlns="http://www.w3.org/2000/svg" width="32" height="32" viewBox="0 0 32 32">
<title>icon__add</title>
<path d="M22.696 8.896c-1.824-1.712-4.2-2.656-6.696-2.656-5.384 0-9.76 4.376-9.76 9.76s4.376 9.76 9.76 9.76c5.384 0 9.76-4.376 9.76-9.76 0-2.68-1.12-5.264-3.064-7.104zM16 24.16c-4.496 0-8.16-3.664-8.16-8.16s3.664-8.16 8.16-8.16c2.088 0 4.072 0.792 5.592 2.224 1.656 1.56 2.568 3.672 2.568 5.936 0 4.496-3.664 8.16-8.16 8.16z"></path>
<path d="M20.28 15.2h-3.48v-3.48c0-0.44-0.36-0.8-0.8-0.8 0 0 0 0 0 0-0.44 0-0.8 0.36-0.8 0.8v3.48h-3.48c0 0 0 0 0 0-0.44 0-0.8 0.36-0.8 0.8s0.36 0.8 0.8 0.8h3.48v3.48c0 0.44 0.36 0.8 0.8 0.8 0 0 0 0 0 0 0.44 0 0.8-0.36 0.8-0.8v-3.48h3.48c0 0 0 0 0 0 0.44 0 0.8-0.36 0.8-0.8s-0.352-0.8-0.8-0.8z"></path>
</svg>
