<!-- Generated by IcoMoon.io -->
<svg version="1.1" xmlns="http://www.w3.org/2000/svg" width="32" height="32" viewBox="0 0 32 32">
<title>icon__message</title>
<path d="M20.208 25.696c-0.264 0-0.528-0.072-0.76-0.224-0.024-0.016-0.048-0.032-0.064-0.048l-2.784-2.208c-0.424-0.336-0.952-0.52-1.488-0.52h-3.904c-2.84 0-5.152-2.312-5.152-5.152v-6.088c0-2.84 2.312-5.152 5.152-5.152h9.608c2.84 0 5.152 2.312 5.152 5.152v6.088c0 2.568-1.888 4.704-4.344 5.088l0.016 1.608c0.008 0.52-0.264 1.008-0.72 1.264-0.232 0.128-0.472 0.192-0.712 0.192zM11.192 7.904c-1.96 0-3.552 1.592-3.552 3.552v6.088c0 1.96 1.592 3.552 3.552 3.552h3.904c0.896 0 1.776 0.304 2.48 0.864l2.44 1.936-0.016-1.992c0-0.216 0.080-0.416 0.232-0.568s0.352-0.24 0.568-0.24c1.96 0 3.552-1.592 3.552-3.552v-6.088c0-1.96-1.592-3.552-3.552-3.552h-9.608z"></path>
</svg>
