<!-- Generated by IcoMoon.io -->
<svg version="1.1" xmlns="http://www.w3.org/2000/svg" width="32" height="32" viewBox="0 0 32 32">
<title>icon__settings</title>
<path d="M17.144 25.792h-2.288c-0.608 0-1.104-0.48-1.128-1.080l-0.16-1.48c-0.328-0.112-0.648-0.248-0.96-0.4l-1.16 0.936c-0.44 0.4-1.136 0.392-1.56-0.040l-1.616-1.616c-0.432-0.432-0.44-1.12-0.040-1.56l0.936-1.16c-0.152-0.312-0.288-0.632-0.4-0.96l-1.48-0.16c-0.6-0.032-1.080-0.528-1.080-1.128v-2.288c0-0.608 0.48-1.104 1.080-1.128l1.48-0.16c0.112-0.328 0.248-0.648 0.4-0.96l-0.936-1.16c-0.192-0.208-0.296-0.48-0.296-0.76 0-0.304 0.12-0.584 0.336-0.8l1.616-1.616c0.432-0.432 1.12-0.44 1.56-0.040l1.16 0.936c0.312-0.152 0.632-0.288 0.96-0.4l0.16-1.48c0.032-0.6 0.528-1.080 1.128-1.080h2.288c0.608 0 1.104 0.48 1.128 1.080l0.16 1.48c0.328 0.112 0.648 0.248 0.96 0.4l1.16-0.936c0.44-0.4 1.136-0.392 1.56 0.040l1.616 1.616c0.216 0.216 0.328 0.496 0.328 0.8 0 0.288-0.104 0.552-0.296 0.76l-0.936 1.16c0.152 0.312 0.288 0.632 0.4 0.96l1.48 0.16c0.6 0.032 1.080 0.528 1.080 1.128v2.288c0 0.608-0.48 1.104-1.080 1.128l-1.48 0.16c-0.112 0.328-0.248 0.648-0.4 0.96l0.936 1.16c0.192 0.208 0.296 0.48 0.296 0.76 0 0.304-0.12 0.584-0.336 0.8l-1.616 1.616c-0.432 0.432-1.12 0.44-1.56 0.040l-1.16-0.936c-0.312 0.152-0.632 0.288-0.96 0.4l-0.16 1.48c-0.016 0.6-0.512 1.080-1.12 1.080zM16.672 24.656c0 0 0 0 0 0s0 0 0 0zM15.328 24.656c0 0 0 0 0 0s0 0 0 0zM15.28 24.192h1.44l0.176-1.656c0.032-0.336 0.272-0.608 0.6-0.688 0.552-0.144 1.080-0.36 1.576-0.656 0.288-0.168 0.648-0.144 0.912 0.064l1.296 1.048 1.016-1.016-1.048-1.296c-0.208-0.264-0.232-0.624-0.064-0.912 0.296-0.496 0.512-1.024 0.656-1.576 0.080-0.32 0.36-0.56 0.688-0.6l1.656-0.176v-1.44l-1.656-0.176c-0.336-0.032-0.608-0.272-0.688-0.6-0.144-0.552-0.36-1.080-0.656-1.576-0.168-0.288-0.144-0.648 0.064-0.912l1.048-1.296-1.016-1.032-1.296 1.048c-0.264 0.208-0.624 0.232-0.912 0.064-0.496-0.296-1.024-0.512-1.576-0.656-0.32-0.080-0.56-0.36-0.6-0.688l-0.176-1.656h-1.44l-0.176 1.656c-0.032 0.328-0.272 0.608-0.6 0.688-0.552 0.144-1.080 0.36-1.576 0.656-0.288 0.168-0.648 0.144-0.912-0.064l-1.296-1.048-1.024 1.024 1.048 1.296c0.208 0.264 0.232 0.624 0.064 0.912-0.296 0.496-0.512 1.024-0.656 1.576-0.080 0.32-0.36 0.56-0.688 0.6l-1.656 0.176v1.44l1.656 0.176c0.328 0.032 0.608 0.272 0.688 0.6 0.144 0.552 0.36 1.080 0.656 1.576 0.168 0.288 0.144 0.648-0.064 0.912l-1.048 1.296 1.016 1.016 1.296-1.048c0.256-0.208 0.624-0.232 0.912-0.064 0.496 0.296 1.024 0.512 1.576 0.656 0.32 0.080 0.56 0.36 0.6 0.688l0.184 1.664zM22.6 21.64c0 0 0 0 0 0s0 0 0 0zM22.6 20.984c0 0 0 0 0 0v0zM7.344 16.672c0 0 0 0 0 0s0 0 0 0zM24.656 16.672c0 0 0 0 0 0s0 0 0 0zM24.656 15.328c0 0 0 0 0 0s0 0 0 0zM7.344 15.328c0 0 0 0 0 0s0 0 0 0zM22.6 11.016c0 0 0 0 0 0v0zM9.4 11.016v0c0 0 0 0 0 0zM22.6 10.36c0 0 0 0 0 0s0 0 0 0zM9.4 10.36c0 0 0 0 0 0s0 0 0 0zM16.672 7.344c0 0 0 0 0 0s0 0 0 0zM15.328 7.344c0 0 0 0 0 0s0 0 0 0zM16 19.648c-2.016 0-3.648-1.64-3.648-3.648 0-2.016 1.64-3.648 3.648-3.648 2.016 0 3.648 1.64 3.648 3.648 0 2.016-1.632 3.648-3.648 3.648zM16 13.952c-1.128 0-2.048 0.92-2.048 2.048s0.92 2.048 2.048 2.048c1.128 0 2.048-0.92 2.048-2.048s-0.92-2.048-2.048-2.048z"></path>
</svg>
