<!-- Generated by IcoMoon.io -->
<svg version="1.1" xmlns="http://www.w3.org/2000/svg" width="32" height="32" viewBox="0 0 32 32">
<title>icon__language</title>
<path d="M22.272 14.040h-3.72v-4.6c0-1.744-1.416-3.16-3.16-3.16h-5.656c-1.744 0-3.16 1.416-3.16 3.16v3.584c0 1.536 1.104 2.824 2.56 3.104l-0.008 0.832c-0.008 0.36 0.184 0.688 0.488 0.864 0.144 0.080 0.312 0.128 0.472 0.128 0.184 0 0.36-0.048 0.52-0.152 0.016-0.008 0.032-0.024 0.048-0.032l1.64-1.296c0.224-0.176 0.512-0.28 0.8-0.28h0.528c-0.104 0.32-0.168 0.656-0.168 1.008v3.584c0 1.744 1.416 3.16 3.16 3.16h2.296c0.288 0 0.568 0.096 0.8 0.28l1.64 1.296c0.016 0.016 0.032 0.024 0.048 0.032 0.16 0.104 0.336 0.152 0.52 0.152 0.16 0 0.328-0.040 0.472-0.128 0.312-0.176 0.496-0.504 0.496-0.856l-0.008-0.84c1.456-0.28 2.56-1.568 2.56-3.104v-3.584c-0.008-1.728-1.424-3.152-3.168-3.152zM14.352 14.992h-1.256c-0.56 0-1.104 0.192-1.544 0.536l-1.232 0.976 0.008-0.904c0-0.16-0.064-0.312-0.176-0.432-0.112-0.112-0.264-0.176-0.424-0.176-1.080 0-1.96-0.88-1.96-1.96v-3.584c0-1.080 0.88-1.96 1.96-1.96h5.656c1.080 0 1.96 0.88 1.96 1.96v4.6h-0.744c-0.872-0.008-1.672 0.36-2.248 0.944 0 0 0 0 0 0zM24.232 20.792c0 1.080-0.88 1.96-1.96 1.96-0.16 0-0.312 0.064-0.424 0.176s-0.176 0.264-0.176 0.432l0.008 0.904-1.224-0.968c-0.44-0.344-0.984-0.536-1.544-0.536h-2.296c-1.080 0-1.96-0.88-1.96-1.96v-3.584c0-1.080 0.88-1.96 1.96-1.96h5.656c1.080 0 1.96 0.88 1.96 1.96v3.576z"></path>
<path d="M14.752 13.256c0.192-0.104 0.264-0.352 0.152-0.544l-2-3.584c-0.072-0.128-0.208-0.208-0.352-0.208s-0.28 0.080-0.352 0.208l-2 3.584c-0.104 0.192-0.040 0.44 0.152 0.544s0.44 0.040 0.544-0.152l0.432-0.768h2.44l0.432 0.768c0.072 0.128 0.208 0.208 0.352 0.208 0.072-0.008 0.144-0.024 0.2-0.056zM12.56 10.144l0.776 1.392h-1.552l0.776-1.392z"></path>
<path d="M21.232 17.624l-1.392-0.008v-0.376c0-0.224-0.176-0.4-0.4-0.4 0 0 0 0 0 0-0.216 0-0.4 0.176-0.4 0.4v0.376l-1.392-0.008c0 0 0 0 0 0-0.224 0-0.4 0.176-0.4 0.4s0.176 0.4 0.4 0.4h0.632c0.072 0.328 0.24 0.832 0.608 1.328-0.296 0.248-0.688 0.472-1.192 0.624-0.208 0.064-0.328 0.288-0.264 0.496 0.056 0.176 0.208 0.28 0.384 0.28 0.040 0 0.080-0.008 0.12-0.016 0.64-0.192 1.128-0.48 1.504-0.8 0.376 0.32 0.864 0.616 1.496 0.816 0.040 0.016 0.080 0.016 0.12 0.016 0.168 0 0.328-0.112 0.384-0.28 0.064-0.208-0.048-0.432-0.264-0.504-0.504-0.16-0.896-0.384-1.192-0.64 0.368-0.496 0.544-1 0.616-1.328h0.632c0 0 0 0 0 0 0.224 0 0.4-0.176 0.4-0.4 0-0.2-0.176-0.376-0.4-0.376zM19.432 19.12c-0.168-0.264-0.272-0.512-0.328-0.712h0.664c-0.056 0.208-0.16 0.456-0.336 0.712z"></path>
</svg>
