<!-- Generated by IcoMoon.io -->
<svg version="1.1" xmlns="http://www.w3.org/2000/svg" width="32" height="32" viewBox="0 0 32 32">
<title>icon__lock</title>
<path d="M21.184 10.080h-0.888c-0.112-1.008-0.584-1.96-1.328-2.664-0.808-0.76-1.864-1.176-2.968-1.176-2.216 0-4.056 1.68-4.296 3.84h-0.888c-2.064 0-3.736 1.68-3.736 3.736v8.2c0 2.064 1.68 3.736 3.736 3.736h10.36c2.064 0 3.736-1.68 3.736-3.736v-8.2c0.008-2.056-1.672-3.736-3.728-3.736zM16 7.84c0.696 0 1.36 0.264 1.864 0.744 0.432 0.408 0.712 0.928 0.816 1.496h-5.352c0.224-1.272 1.336-2.24 2.672-2.24zM23.32 22.024c0 1.176-0.96 2.136-2.136 2.136h-10.368c-1.176 0-2.136-0.96-2.136-2.136v-8.208c0-1.176 0.96-2.136 2.136-2.136h10.36c1.176 0 2.136 0.96 2.136 2.136v8.208z"></path>
<path d="M16 13.88c-1.256 0-2.28 1.024-2.28 2.28 0 1.048 0.712 1.936 1.68 2.2v3c0 0.328 0.272 0.6 0.6 0.6s0.6-0.272 0.6-0.6v-3c0.968-0.264 1.68-1.152 1.68-2.2 0-1.256-1.024-2.28-2.28-2.28zM16 17.24c-0.592 0-1.080-0.488-1.080-1.080s0.488-1.080 1.080-1.080 1.080 0.488 1.080 1.080-0.488 1.080-1.080 1.080z"></path>
</svg>
