<!-- Generated by IcoMoon.io -->
<svg version="1.1" xmlns="http://www.w3.org/2000/svg" width="32" height="32" viewBox="0 0 32 32">
<title>icon__close</title>
<path d="M17.408 16l5.776-5.784c0.392-0.392 0.392-1.024 0-1.408-0.392-0.392-1.024-0.392-1.408 0l-5.776 5.784-5.776-5.784c-0.392-0.392-1.024-0.392-1.408 0-0.392 0.392-0.392 1.024 0 1.408l5.776 5.784-5.776 5.784c-0.392 0.392-0.392 1.024 0 1.408 0.192 0.192 0.448 0.288 0.704 0.288s0.512-0.096 0.704-0.296l5.776-5.784 5.776 5.784c0.192 0.192 0.448 0.296 0.704 0.296s0.512-0.096 0.704-0.288c0.392-0.392 0.392-1.024 0-1.408l-5.776-5.784z"></path>
</svg>
