<?xml version="1.0" encoding="utf-8"?>
<!-- Generator: Adobe Illustrator 24.2.3, SVG Export Plug-In . SVG Version: 6.00 Build 0)  -->
<svg version="1.1" id="Layer_1" xmlns="http://www.w3.org/2000/svg" xmlns:xlink="http://www.w3.org/1999/xlink" x="0px" y="0px"
	 viewBox="0 0 32 32" style="enable-background:new 0 0 32 32;" xml:space="preserve">
<g>
	<path d="M23.2,8.8c-1.4-1.4-3.3-2.2-5.3-2.2c-2,0-3.9,0.8-5.3,2.2c-1.4,1.4-2.2,3.3-2.2,5.3c0,1,0.2,2,0.6,2.9
		c0.2,0.7,0,1.5-0.5,2.1l-3.2,3.2c-0.3,0.3-0.5,0.8-0.5,1.3c0,0.5,0.2,0.9,0.5,1.3c0.4,0.4,0.8,0.5,1.3,0.5c0.5,0,0.9-0.2,1.3-0.5
		l3.2-3.2l0.1-0.1c0.5-0.5,1.3-0.6,2-0.4c0.9,0.4,1.9,0.6,2.9,0.6c1.9,0,3.9-0.7,5.3-2.2c1.4-1.4,2.2-3.3,2.2-5.3
		C25.4,12.1,24.6,10.2,23.2,8.8z M12.3,21L12,21.4l-2.9,2.9c-0.4,0.4-1,0.4-1.3,0c-0.2-0.2-0.3-0.4-0.3-0.7s0.1-0.5,0.3-0.7l3.2-3.2
		c0.3-0.3,0.6-0.7,0.7-1.2c0.2,0.3,0.5,0.7,0.8,1c0.3,0.3,0.6,0.6,1,0.8C13,20.5,12.6,20.7,12.3,21z M22.6,18.9
		c-1.9,1.9-4.7,2.4-7.1,1.5l0,0c-0.1,0-0.1-0.1-0.2-0.1c-0.8-0.3-1.5-0.8-2.1-1.4c-2.6-2.6-2.6-6.9,0-9.5c1.3-1.3,3-2,4.7-2
		c1.7,0,3.4,0.7,4.7,2C25.2,12,25.2,16.3,22.6,18.9z"/>
	<path d="M14.5,10.8c-0.2,0.2-0.2,0.4,0,0.6s0.4,0.2,0.6,0c1.5-1.5,3.9-1.5,5.4,0c0.1,0.1,0.2,0.1,0.3,0.1s0.2,0,0.3-0.1
		c0.2-0.2,0.2-0.4,0-0.6C19.3,9,16.4,9,14.5,10.8z"/>
</g>
</svg>
