<?xml version="1.0" encoding="utf-8"?>
<!-- Generator: Adobe Illustrator 24.2.3, SVG Export Plug-In . SVG Version: 6.00 Build 0)  -->
<svg version="1.1" id="Layer_1" xmlns="http://www.w3.org/2000/svg" xmlns:xlink="http://www.w3.org/1999/xlink" x="0px" y="0px"
	 viewBox="0 0 32 32" style="enable-background:new 0 0 32 32;" xml:space="preserve">
<style type="text/css">
	.st0{fill:#C0F1F9;}
	.st1{fill:#4166C1;}
</style>
<g>
	<g>
		<path class="st0" d="M22.4,18.1c0,4.6-3.7,8.4-8.4,8.4s-8.4-3.7-8.4-8.4S9.4,9.8,14,9.8c2.2,0,4.2,0.9,5.7,2.3
			C21.4,13.6,22.4,15.7,22.4,18.1z"/>
		<g>
			<path class="st1" d="M25,15.7c-0.1-2.2-1-4.4-2.5-5.9c-3.4-3.4-9-3.5-12.4,0c-3.4,3.4-3.5,9,0,12.4c3.4,3.4,9,3.5,12.4,0
				C24.1,20.4,25.1,18.1,25,15.7z M10.6,21.6c-3.1-3.1-3.1-8.2,0-11.3s8.2-3.1,11.3,0c1.4,1.4,2.3,3.4,2.3,5.4
				c0.1,2.2-0.8,4.3-2.3,5.9C18.7,24.6,13.7,24.6,10.6,21.6z"/>
			<path class="st1" d="M19.4,18.5l-2.5-2.5l2.5-2.5c0.1-0.1,0.1-0.4,0-0.6l0,0c-0.1-0.1-0.4-0.1-0.6,0l-2.5,2.5l-2.5-2.5l0,0
				c-0.1-0.1-0.4-0.1-0.6,0c-0.1,0.1-0.1,0.4,0,0.6l2.5,2.5l-2.5,2.5c-0.1,0.1-0.1,0.4,0,0.6l0,0c0.1,0.1,0.4,0.1,0.6,0l2.5-2.5
				l2.5,2.5l0,0c0.1,0.1,0.4,0.1,0.6,0C19.5,18.9,19.5,18.6,19.4,18.5z"/>
		</g>
	</g>
</g>
</svg>
