<!-- Generated by IcoMoon.io -->
<svg version="1.1" xmlns="http://www.w3.org/2000/svg" width="32" height="32" viewBox="0 0 32 32">
<title>icon__print</title>
<path d="M23.52 17.376v-8.264c0-1.632-1.328-2.952-2.952-2.952h-9.296c-1.632 0-2.952 1.328-2.952 2.952v8.256c-1.392 0.144-2.48 1.32-2.48 2.744v2.88c0 1.52 1.24 2.76 2.76 2.76h14.64c1.52 0 2.76-1.24 2.76-2.76v-2.88c0-1.416-1.088-2.6-2.48-2.736zM9.92 9.112c0-0.744 0.608-1.352 1.352-1.352h9.288c0.744 0 1.352 0.608 1.352 1.352v8.248h-11.992v-8.248zM24.4 23c0 0.64-0.52 1.16-1.16 1.16h-14.64c-0.64 0-1.16-0.52-1.16-1.16v-2.88c0-0.64 0.52-1.16 1.16-1.16h14.64c0.64 0 1.16 0.52 1.16 1.16v2.88z"></path>
<path d="M19.76 9.88h-7.68c-0.328 0-0.6 0.272-0.6 0.6s0.272 0.6 0.6 0.6h7.68c0.328 0 0.6-0.272 0.6-0.6s-0.272-0.6-0.6-0.6z"></path>
<path d="M16.56 12.52h-4.48c-0.328 0-0.6 0.272-0.6 0.6s0.272 0.6 0.6 0.6h4.48c0.328 0 0.6-0.272 0.6-0.6s-0.272-0.6-0.6-0.6z"></path>
<path d="M22.72 19.92h-3.12c-0.328 0-0.6 0.272-0.6 0.6s0.272 0.6 0.6 0.6h3.12c0.328 0 0.6-0.272 0.6-0.6s-0.272-0.6-0.6-0.6z"></path>
</svg>
