<!-- Generated by IcoMoon.io -->
<svg version="1.1" xmlns="http://www.w3.org/2000/svg" width="32" height="32" viewBox="0 0 32 32">
<title>icon__clip</title>
<path d="M17.48 6.288c-2.16 0-3.92 1.76-3.92 3.92v10.12c0 1.392 1.128 2.52 2.52 2.52s2.52-1.128 2.52-2.52v-8.2c0-0.44-0.36-0.8-0.8-0.8s-0.8 0.36-0.8 0.8v8.2c0 0.504-0.416 0.92-0.92 0.92s-0.92-0.416-0.92-0.92v-10.12c0-1.28 1.040-2.32 2.32-2.32s2.32 1.040 2.32 2.32v10.104c0 2.096-1.704 3.8-3.8 3.8s-3.8-1.704-3.8-3.8v-5.864c0-0.44-0.36-0.8-0.8-0.8s-0.8 0.36-0.8 0.8v5.864c0 2.976 2.424 5.4 5.4 5.4s5.4-2.424 5.4-5.4v-10.104c0-2.16-1.76-3.92-3.92-3.92z"></path>
</svg>
