<!-- Generated by IcoMoon.io -->
<svg version="1.1" xmlns="http://www.w3.org/2000/svg" width="32" height="32" viewBox="0 0 32 32">
<title>icon__trash</title>
<path d="M23.84 9.032h-3.432c0-0.032 0.008-0.064 0.008-0.096 0-1.488-1.208-2.696-2.696-2.696h-3.648c-1.488 0-2.696 1.208-2.696 2.696 0 0.032 0 0.064 0.008 0.096h-3.448c-0.44 0-0.8 0.36-0.8 0.8s0.36 0.8 0.8 0.8h0.8l0.72 11.704c0.12 1.92 1.72 3.424 3.64 3.424h5.576c1.928 0 3.528-1.504 3.64-3.424l0.72-11.704h0.8c0.44 0 0.8-0.36 0.8-0.8s-0.344-0.8-0.792-0.8zM12.968 8.936c0-0.608 0.496-1.096 1.096-1.096h3.648c0.608 0 1.096 0.496 1.096 1.096 0 0.048-0.040 0.096-0.096 0.096h-5.656c-0.048 0-0.088-0.040-0.088-0.096zM20.728 22.232c-0.064 1.080-0.968 1.928-2.048 1.928h-5.576c-1.080 0-1.984-0.848-2.048-1.928l-0.712-11.6h11.096l-0.712 11.6z"></path>
<path d="M15.96 13.408c-0.328 0-0.6 0.272-0.6 0.6v6.704c0 0.328 0.272 0.6 0.6 0.6s0.6-0.272 0.6-0.6v-6.704c0-0.336-0.264-0.6-0.6-0.6z"></path>
<path d="M17.928 14.552l-0.216 5.416c-0.016 0.328 0.248 0.608 0.576 0.624 0.008 0 0.016 0 0.024 0 0.32 0 0.584-0.256 0.6-0.576l0.216-5.416c0.016-0.328-0.248-0.608-0.576-0.624-0.328-0.008-0.608 0.248-0.624 0.576z"></path>
<path d="M13.232 13.976c-0.328 0.016-0.592 0.296-0.576 0.624l0.216 5.416c0.016 0.32 0.28 0.576 0.6 0.576 0.008 0 0.016 0 0.024 0 0.328-0.016 0.592-0.296 0.576-0.624l-0.216-5.416c-0.016-0.328-0.296-0.584-0.624-0.576z"></path>
</svg>
