<!-- Generated by IcoMoon.io -->
<svg version="1.1" xmlns="http://www.w3.org/2000/svg" width="32" height="32" viewBox="0 0 32 32">
<title>icon__connect</title>
<path d="M24.696 11.2c-1.28-1.28-2.992-1.992-4.8-1.992-1.416 0-2.768 0.432-3.896 1.232-2.648-1.856-6.336-1.608-8.696 0.76v0c-2.648 2.648-2.648 6.96 0 9.608 1.328 1.328 3.064 1.984 4.8 1.984 1.368 0 2.736-0.408 3.896-1.232 1.136 0.8 2.48 1.232 3.896 1.232 1.816 0 3.52-0.704 4.8-1.992s1.992-2.992 1.992-4.8c0-1.816-0.704-3.52-1.992-4.8zM16 19.424c-0.832-0.944-1.296-2.152-1.296-3.424s0.456-2.48 1.296-3.424c0.832 0.944 1.296 2.152 1.296 3.424-0.008 1.272-0.464 2.48-1.296 3.424zM8.432 19.672c-2.024-2.024-2.024-5.32 0-7.344v0c0.984-0.984 2.288-1.52 3.672-1.52 0.96 0 1.872 0.256 2.672 0.736-1.080 1.232-1.664 2.8-1.664 4.456s0.592 3.216 1.664 4.448c-2 1.2-4.632 0.936-6.344-0.776zM23.568 19.672c-0.984 0.984-2.28 1.52-3.672 1.52-0.96 0-1.872-0.256-2.672-0.736 1.080-1.232 1.664-2.8 1.664-4.456s-0.592-3.216-1.664-4.456c0.8-0.48 1.712-0.736 2.672-0.736 1.384 0 2.688 0.536 3.672 1.52s1.52 2.288 1.52 3.672c0 1.384-0.544 2.688-1.52 3.672z"></path>
</svg>
