<!-- Generated by IcoMoon.io -->
<svg version="1.1" xmlns="http://www.w3.org/2000/svg" width="32" height="32" viewBox="0 0 32 32">
<title>icon__hammer</title>
<path d="M23.568 14.392l-2.392-2.392 0.992-0.992c0.312-0.312 0.312-0.816 0-1.128s-0.816-0.312-1.128 0l-0.992 0.992-2.472-2.472c-0.152-0.152-0.352-0.232-0.568-0.232s-0.416 0.088-0.568 0.232l-3.92 3.92c-0.312 0.312-0.312 0.816 0 1.128l2.48 2.48c-0.040 0.024-0.072 0.056-0.112 0.088l-6.456 6.464c-0.312 0.312-0.312 0.816 0 1.128 0.16 0.16 0.36 0.232 0.568 0.232s0.408-0.080 0.568-0.232l6.464-6.464c0.032-0.032 0.064-0.072 0.088-0.112l2.408 2.408c0.16 0.16 0.36 0.232 0.568 0.232s0.408-0.080 0.568-0.232l3.92-3.92c0.152-0.152 0.232-0.352 0.232-0.568s-0.096-0.416-0.248-0.56zM19.080 17.744l-4.864-4.864 2.792-2.792 4.864 4.864-2.792 2.792z"></path>
</svg>
