<!-- Generated by IcoMoon.io -->
<svg version="1.1" xmlns="http://www.w3.org/2000/svg" width="32" height="32" viewBox="0 0 32 32">
<title>icon__question</title>
<path d="M22.688 8.896c-1.816-1.712-4.192-2.656-6.688-2.656 0 0 0 0 0 0-5.384 0-9.76 4.376-9.76 9.76s4.376 9.76 9.76 9.76c5.384 0 9.76-4.376 9.76-9.76 0-2.68-1.12-5.264-3.072-7.104zM16 24.16c0 0 0 0 0 0-4.496 0-8.16-3.664-8.16-8.16s3.664-8.16 8.16-8.16c0 0 0 0 0 0 2.088 0 4.072 0.792 5.592 2.216 1.656 1.56 2.568 3.664 2.568 5.936 0 4.504-3.664 8.168-8.16 8.168z"></path>
<path d="M15.768 18.232c-0.216 0-0.4 0.088-0.568 0.264s-0.248 0.376-0.248 0.608c0 0.216 0.072 0.408 0.216 0.56s0.312 0.232 0.512 0.232c0.216 0 0.4-0.088 0.568-0.264s0.248-0.376 0.248-0.608c0-0.216-0.064-0.408-0.2-0.56s-0.312-0.232-0.528-0.232z"></path>
<path d="M17.72 12.56c-0.344-0.304-0.896-0.456-1.648-0.456-0.416 0-0.808 0.080-1.16 0.248-0.352 0.16-0.632 0.368-0.84 0.624-0.208 0.248-0.312 0.504-0.312 0.76 0 0.208 0.056 0.376 0.176 0.504s0.288 0.2 0.504 0.2c0.224 0 0.408-0.080 0.536-0.248 0.128-0.16 0.192-0.328 0.192-0.504 0-0.088-0.016-0.176-0.040-0.272-0.032-0.096-0.072-0.168-0.128-0.232 0.080-0.088 0.192-0.16 0.352-0.232 0.152-0.072 0.312-0.104 0.48-0.104 0.584 0 0.872 0.344 0.872 1.032 0 0.408-0.080 0.744-0.24 1.008-0.16 0.272-0.4 0.56-0.728 0.864-0.392 0.368-0.64 0.64-0.76 0.816s-0.176 0.36-0.176 0.552c0 0.224 0.088 0.4 0.256 0.512s0.376 0.168 0.624 0.168c0.152 0 0.328-0.016 0.528-0.056 0.192-0.032 0.376-0.096 0.536-0.184l-0.136-0.544c-0.112 0.032-0.216 0.040-0.32 0.040-0.144 0-0.248-0.032-0.312-0.088s-0.104-0.128-0.104-0.224c0-0.128 0.064-0.256 0.2-0.392 0.128-0.128 0.344-0.304 0.632-0.528 0.328-0.256 0.592-0.472 0.792-0.656s0.376-0.408 0.528-0.656 0.224-0.528 0.224-0.816c-0.008-0.456-0.184-0.84-0.528-1.136z"></path>
</svg>
