<!-- Generated by IcoMoon.io -->
<svg version="1.1" xmlns="http://www.w3.org/2000/svg" width="32" height="32" viewBox="0 0 32 32">
<title>icon__message-v2</title>
<path d="M20.808 6.304h-9.616c-2.84 0-5.152 2.312-5.152 5.152v6.088c0 2.84 2.312 5.152 5.152 5.152h3.904c0.536 0 1.064 0.184 1.488 0.52l2.784 2.208c0.024 0.016 0.040 0.032 0.064 0.048 0.232 0.152 0.496 0.224 0.76 0.224 0.24 0 0.48-0.064 0.696-0.184 0.456-0.256 0.736-0.744 0.72-1.264l-0.016-1.608c2.464-0.392 4.344-2.52 4.344-5.088v-6.088c0.024-2.848-2.288-5.16-5.128-5.16zM24.36 17.552c0 1.96-1.592 3.552-3.552 3.552-0.216 0-0.416 0.088-0.568 0.24s-0.232 0.36-0.232 0.568l0.016 1.992-2.44-1.936c-0.704-0.56-1.584-0.864-2.48-0.864h-3.904c-1.96 0-3.552-1.592-3.552-3.552v-6.088c0-1.96 1.592-3.552 3.552-3.552h9.608c1.96 0 3.552 1.592 3.552 3.552v6.088z"></path>
<path d="M12.648 13.264c-0.704 0-1.28 0.576-1.28 1.28s0.576 1.28 1.28 1.28 1.28-0.576 1.28-1.28-0.568-1.28-1.28-1.28zM12.648 14.6c-0.032 0-0.056-0.024-0.056-0.056s0.024-0.056 0.056-0.056 0.056 0.024 0.056 0.056-0.024 0.056-0.056 0.056z"></path>
<path d="M16.048 13.264c-0.704 0-1.28 0.576-1.28 1.28s0.576 1.28 1.28 1.28 1.28-0.576 1.28-1.28-0.576-1.28-1.28-1.28zM16.048 14.6c-0.032 0-0.056-0.024-0.056-0.056s0.024-0.056 0.056-0.056 0.056 0.024 0.056 0.056-0.024 0.056-0.056 0.056z"></path>
<path d="M19.512 13.264c-0.704 0-1.28 0.576-1.28 1.28s0.576 1.28 1.28 1.28 1.28-0.576 1.28-1.28-0.576-1.28-1.28-1.28zM19.512 14.6c-0.032 0-0.056-0.024-0.056-0.056s0.024-0.056 0.056-0.056 0.056 0.024 0.056 0.056-0.024 0.056-0.056 0.056z"></path>
</svg>
