<!-- Generated by IcoMoon.io -->
<svg version="1.1" xmlns="http://www.w3.org/2000/svg" width="32" height="32" viewBox="0 0 32 32">
<title>icon__grip</title>
<path d="M11.72 16.616c-0.328 0-0.6-0.264-0.6-0.6 0-0.328 0.264-0.6 0.6-0.6l8.568-0.024c0 0 0 0 0 0 0.328 0 0.6 0.264 0.6 0.6 0 0.328-0.264 0.6-0.6 0.6l-8.568 0.024c0 0 0 0 0 0z"></path>
<path d="M11.72 20.216c-0.328 0-0.6-0.264-0.6-0.6 0-0.328 0.264-0.6 0.6-0.6l8.568-0.024c0 0 0 0 0 0 0.328 0 0.6 0.264 0.6 0.6 0 0.328-0.264 0.6-0.6 0.6l-8.568 0.024c0 0 0 0 0 0z"></path>
<path d="M11.72 13.016c-0.328 0-0.6-0.264-0.6-0.6 0-0.328 0.264-0.6 0.6-0.6l8.568-0.024c0 0 0 0 0 0 0.328 0 0.6 0.264 0.6 0.6 0 0.328-0.264 0.6-0.6 0.6l-8.568 0.024c0 0 0 0 0 0z"></path>
</svg>
