<!-- Generated by IcoMoon.io -->
<svg version="1.1" xmlns="http://www.w3.org/2000/svg" width="32" height="32" viewBox="0 0 32 32">
<title>icon__video</title>
<path d="M23.872 11.28c-0.304 0-0.608 0.064-0.888 0.192l-1.144 0.512v-0.44c0-2.064-1.68-3.736-3.736-3.736h-8.44c-2.064 0-3.736 1.68-3.736 3.736v8.92c0 2.064 1.68 3.736 3.736 3.736h8.44c2.064 0 3.736-1.68 3.736-3.736v-0.44l1.144 0.512c0.28 0.128 0.584 0.192 0.888 0.192 1.216 0 2.2-1 2.2-2.232v-4.984c0.008-1.232-0.984-2.232-2.2-2.232zM18.104 22.6h-8.44c-1.176 0-2.136-0.96-2.136-2.136v-8.928c0-1.176 0.96-2.136 2.136-2.136h8.44c1.176 0 2.136 0.96 2.136 2.136v2.368c-0.008 0.080-0.016 0.168-0.016 0.256v3.68c0 0.088 0.008 0.168 0.016 0.256v2.368c0 1.176-0.96 2.136-2.136 2.136zM24.48 18.488c0 0.36-0.288 0.632-0.6 0.632-0.080 0-0.16-0.016-0.24-0.048l-1.448-0.648c-0.184-0.080-0.312-0.248-0.352-0.44v-3.96c0.040-0.192 0.168-0.36 0.352-0.44l1.448-0.648c0.080-0.032 0.16-0.048 0.24-0.048 0.32 0 0.6 0.264 0.6 0.632v4.968z"></path>
</svg>
