<!-- Generated by IcoMoon.io -->
<svg version="1.1" xmlns="http://www.w3.org/2000/svg" width="32" height="32" viewBox="0 0 32 32">
<title>icon__more</title>
<path d="M9.328 18.528c-1.392 0-2.528-1.136-2.528-2.528s1.136-2.528 2.528-2.528 2.528 1.136 2.528 2.528-1.136 2.528-2.528 2.528zM9.328 15.072c-0.512 0-0.928 0.416-0.928 0.928s0.416 0.928 0.928 0.928 0.928-0.416 0.928-0.928-0.424-0.928-0.928-0.928z"></path>
<path d="M22.672 18.528c-1.392 0-2.528-1.136-2.528-2.528s1.136-2.528 2.528-2.528 2.528 1.136 2.528 2.528-1.136 2.528-2.528 2.528zM22.672 15.072c-0.512 0-0.928 0.416-0.928 0.928s0.416 0.928 0.928 0.928 0.928-0.416 0.928-0.928-0.416-0.928-0.928-0.928z"></path>
<path d="M16 18.528c-1.392 0-2.528-1.136-2.528-2.528s1.136-2.528 2.528-2.528c1.392 0 2.528 1.136 2.528 2.528s-1.136 2.528-2.528 2.528zM16 15.072c-0.512 0-0.928 0.416-0.928 0.928s0.416 0.928 0.928 0.928 0.928-0.416 0.928-0.928-0.416-0.928-0.928-0.928z"></path>
</svg>
