<!-- Generated by IcoMoon.io -->
<svg version="1.1" xmlns="http://www.w3.org/2000/svg" width="32" height="32" viewBox="0 0 32 32">
<title>icon__link</title>
<path d="M17.944 16.816c-0.312-0.312-0.816-0.312-1.128 0-1.28 1.28-3.368 1.28-4.656 0l-3.376-3.376c-1.28-1.28-1.28-3.368 0-4.656s3.368-1.28 4.656 0l3.088 3.088c0.312 0.312 0.816 0.312 1.128 0s0.312-0.816 0-1.128l-3.088-3.088c-1.904-1.904-5.008-1.904-6.92 0-1.904 1.904-1.904 5.008 0 6.92l3.376 3.376c0.952 0.952 2.208 1.432 3.456 1.432 1.256 0 2.504-0.48 3.456-1.432 0.32-0.32 0.32-0.824 0.008-1.136z"></path>
<path d="M24.344 17.432l-2.776-2.776c-1.904-1.904-5.008-1.904-6.92 0-0.312 0.312-0.312 0.816 0 1.128s0.816 0.312 1.128 0c1.28-1.28 3.368-1.28 4.656 0l2.776 2.776c0.616 0.616 0.96 1.448 0.96 2.328s-0.344 1.712-0.96 2.328-1.448 0.96-2.328 0.96-1.712-0.344-2.328-0.96l-2.568-2.576c-0.312-0.312-0.816-0.312-1.128 0s-0.312 0.816 0 1.128l2.576 2.576c0.92 0.92 2.152 1.424 3.456 1.424s2.536-0.504 3.456-1.424 1.424-2.152 1.424-3.456-0.504-2.536-1.424-3.456z"></path>
</svg>
