<!-- Generated by IcoMoon.io -->
<svg version="1.1" xmlns="http://www.w3.org/2000/svg" width="32" height="32" viewBox="0 0 32 32">
<title>icon__upload</title>
<path d="M19.728 15.888c0.208 0 0.408-0.080 0.568-0.232 0.312-0.312 0.312-0.816 0-1.128l-3.768-3.768c0 0 0 0-0.008-0.008-0.016-0.016-0.032-0.032-0.056-0.048 0 0-0.008-0.008-0.008-0.008-0.016-0.008-0.032-0.024-0.048-0.032-0.008-0.008-0.016-0.008-0.024-0.016-0.016-0.008-0.024-0.016-0.040-0.024-0.008-0.008-0.016-0.008-0.024-0.016-0.016-0.008-0.040-0.016-0.056-0.024 0 0 0 0 0 0-0.032-0.016-0.072-0.024-0.104-0.032-0.008 0-0.016 0-0.024-0.008-0.032-0.008-0.072-0.016-0.104-0.016 0 0 0 0 0 0-0.032 0-0.072 0-0.104 0-0.008 0-0.016 0-0.024 0-0.072 0.008-0.136 0.016-0.208 0.040-0.008 0-0.008 0.008-0.016 0.008-0.064 0.024-0.128 0.056-0.192 0.096-0.008 0.008-0.016 0.008-0.016 0.016-0.032 0.024-0.056 0.048-0.080 0.072l-3.768 3.768c-0.312 0.312-0.312 0.816 0 1.128s0.816 0.312 1.128 0l2.4-2.4v11.992c0 0.44 0.36 0.8 0.8 0.8s0.8-0.36 0.8-0.8v-12l2.4 2.4c0.168 0.16 0.376 0.24 0.576 0.24z"></path>
<path d="M22.328 5.96h-12.656c-1.912 0-3.472 1.56-3.472 3.472v7.776c0 1.912 1.56 3.472 3.472 3.472h2.128c0.44 0 0.8-0.36 0.8-0.8s-0.36-0.8-0.8-0.8h-2.128c-1.032 0-1.872-0.84-1.872-1.872v-7.776c0-1.032 0.84-1.872 1.872-1.872h12.656c1.032 0 1.872 0.84 1.872 1.872v7.776c0 1.032-0.84 1.872-1.872 1.872h-2.328c-0.44 0-0.8 0.36-0.8 0.8s0.36 0.8 0.8 0.8h2.328c1.912 0 3.472-1.56 3.472-3.472v-7.776c0-1.912-1.56-3.472-3.472-3.472z"></path>
</svg>
