<?xml version="1.0" encoding="utf-8"?>
<!-- Generator: Adobe Illustrator 25.0.0, SVG Export Plug-In . SVG Version: 6.00 Build 0)  -->
<svg version="1.1" id="Layer_1" xmlns="http://www.w3.org/2000/svg" xmlns:xlink="http://www.w3.org/1999/xlink" x="0px" y="0px"
	 viewBox="0 0 32 32" style="enable-background:new 0 0 32 32;" xml:space="preserve">
<style type="text/css">
	.st0{fill:#C0F1F9;}
	.st1{fill:#4166C1;}
	.st2{fill:#4166C1;stroke:#4166C1;stroke-width:6;stroke-linecap:round;stroke-linejoin:round;stroke-miterlimit:10;}
	.st3{fill:none;stroke:#FFFFFF;stroke-width:2;stroke-linecap:round;stroke-linejoin:round;stroke-miterlimit:10;}
	.st4{fill:none;stroke:#3258A5;stroke-width:4;stroke-linecap:round;stroke-linejoin:round;stroke-miterlimit:10;}
</style>
<g>
	<g>
		<path class="st0" d="M14.1,12.6c0-1.2-2-1.9-4.4-1.9c-2.5,0-4.4,0.7-4.4,1.9v0.1v9.9v0.6c0,0.6,0.6,1,1.1,0.8
			c0.8-0.3,2-0.6,3.3-0.6s2.5,0.3,3.3,0.6c0.6,0.2,1.1-0.2,1.1-0.8v-0.6L14.1,12.6L14.1,12.6z"/>
		<path class="st0" d="M23,12.7c0-1.2-2-1.9-4.4-1.9c-2.5,0-4.4,0.7-4.4,1.9v0.1v9.9v0.6c0,0.6,0.6,1,1.1,0.8c0.8-0.3,2-0.6,3.3-0.6
			s2.5,0.3,3.3,0.6c0.6,0.2,1.1-0.2,1.1-0.8v-0.6V12.7L23,12.7z"/>
	</g>
	<g>
		<path class="st1" d="M20.3,8.4L20.3,8.4c-1.3,0-2.4,0.2-3.3,0.5c-0.5,0.2-0.9,0.5-1.2,0.8c-0.6-0.7-2.1-1.3-4.4-1.3l0,0
			c-1.3,0-2.4,0.2-3.3,0.5c-1,0.4-1.5,1-1.5,1.7v10.5c0,0.4,0.2,0.8,0.5,1s0.7,0.3,1.1,0.2c0.7-0.2,1.9-0.5,3.2-0.5l0,0
			c1.3,0,2.5,0.3,3.2,0.5l0,0c0.3,0.1,0.7,0.2,1.2,0.2s1-0.1,1.3-0.2l0,0c0.7-0.2,1.9-0.5,3.2-0.5l0,0c1.3,0,2.5,0.3,3.2,0.5
			c0.1,0,0.3,0.1,0.4,0.1c0.2,0,0.5-0.1,0.7-0.2c0.3-0.2,0.5-0.6,0.5-1V10.8v-0.1l0,0C25.1,9.5,23.6,8.4,20.3,8.4z M11.4,21
			C10,21,8.7,21.3,8,21.6c-0.2,0.1-0.3,0-0.4-0.1s-0.2-0.2-0.2-0.4V10.7v-0.1c0-0.5,0.7-0.9,1.1-1c0.8-0.3,1.8-0.5,3-0.5l0,0
			c2.3,0,4.1,0.7,4.1,1.5v10.5c0,0.2-0.1,0.3-0.2,0.4c-0.1,0.1-0.3,0.1-0.4,0.1C14,21.3,12.8,21,11.4,21L11.4,21z M24.3,21.1
			c0,0.2-0.1,0.3-0.2,0.4s-0.3,0.1-0.4,0.1c-0.8-0.3-2-0.6-3.4-0.6l0,0c-1.4,0-2.6,0.3-3.4,0.6c-0.2,0.1-0.3,0-0.4-0.1
			s-0.2-0.2-0.2-0.4V10.7v-0.1l0,0c0-0.5,0.7-0.9,1.1-1c0.8-0.3,1.8-0.5,3-0.5l0,0c2.3,0,4.1,0.7,4.1,1.5L24.3,21.1z"/>
		<path class="st1" d="M22.4,13.3C21.8,13.1,21,13,20.2,13c-0.8,0-1.6,0.1-2.2,0.3c-0.2,0.1-0.3,0.3-0.2,0.5C17.9,14,18,14,18.1,14
			h0.1c0.5-0.2,1.2-0.3,1.9-0.3c0.7,0,1.4,0.1,1.9,0.3c0.2,0.1,0.4,0,0.5-0.2C22.7,13.6,22.6,13.4,22.4,13.3z"/>
		<path class="st1" d="M22.4,15.1c-0.6-0.2-1.4-0.3-2.2-0.3c-0.8,0-1.6,0.1-2.2,0.3c-0.2,0.1-0.3,0.3-0.2,0.5
			c0.1,0.2,0.2,0.2,0.3,0.2h0.1c0.5-0.2,1.2-0.3,1.9-0.3c0.7,0,1.4,0.1,1.9,0.3c0.2,0.1,0.4,0,0.5-0.2
			C22.7,15.4,22.6,15.2,22.4,15.1z"/>
		<path class="st1" d="M22.4,17c-0.6-0.2-1.4-0.3-2.2-0.3c-0.8,0-1.6,0.1-2.2,0.3c-0.2,0.1-0.3,0.3-0.2,0.5c0.1,0.2,0.2,0.2,0.3,0.2
			h0.1c0.5-0.2,1.2-0.3,1.9-0.3c0.7,0,1.4,0.1,1.9,0.3c0.2,0.1,0.4,0,0.5-0.2C22.7,17.2,22.6,17,22.4,17z"/>
		<path class="st1" d="M13.5,13.3C13,13.1,12.2,13,11.4,13s-1.6,0.1-2.2,0.3c-0.1,0-0.2,0.2-0.2,0.3v1.8c0,0.1,0.1,0.2,0.2,0.3
			c0.1,0,0.1,0.1,0.2,0.1h0.1c0.5-0.2,1.2-0.3,1.9-0.3s1.4,0.1,1.9,0.3c0.1,0,0.2,0,0.3,0c0.1-0.1,0.2-0.2,0.2-0.3v-1.8
			C13.8,13.5,13.7,13.3,13.5,13.3z M13.1,15c-0.5-0.1-1.1-0.2-1.7-0.2c-0.6,0-1.2,0.1-1.7,0.2v-1.1c0.5-0.1,1.1-0.2,1.7-0.2
			c0.6,0,1.2,0.1,1.7,0.2V15z"/>
		<path class="st1" d="M13.5,17c-0.6-0.2-1.3-0.3-2.1-0.3S9.8,16.8,9.2,17C9,17,8.9,17.3,9,17.4c0.1,0.2,0.2,0.2,0.3,0.2h0.1
			c0.5-0.2,1.2-0.3,1.9-0.3s1.4,0.1,1.9,0.3c0.2,0.1,0.4,0,0.5-0.2C13.8,17.2,13.7,17,13.5,17z"/>
	</g>
</g>
<g>
	<g>
		<g>
			<path class="st0" d="M1763.6-14.9c0-8.2-14.1-13.4-31.4-13.4s-31.4,5.1-31.4,13.3l0,0.4l-0.1,70l0,3.9c0,4.1,4.1,7,8,5.7
				c5.7-1.9,14-4,23.5-4c9.5,0,17.8,2.1,23.5,4c3.9,1.3,8-1.6,8-5.7l0-3.9l0.1-70L1763.6-14.9z"/>
			<path class="st0" d="M1826.4-14.8c0-8.2-14.1-13.4-31.4-13.4s-31.4,5.1-31.4,13.3l0,0.4l-0.1,70l0,3.9c0,4.1,4.1,7,8,5.7
				c5.7-1.9,14-4,23.5-4c9.5,0,17.8,2.1,23.5,4c3.9,1.3,8-1.6,8-5.7l0-3.9l0.1-70L1826.4-14.8z"/>
		</g>
		<g>
			<path class="st2" d="M1774.7-26.8c0-8.2-14.1-13.4-31.4-13.4c-17.4,0-31.4,5.1-31.4,13.3l0,0.4l-0.1,70l0,3.9c0,4.1,4.1,7,8,5.7
				c5.7-1.9,14-4,23.5-4s17.8,2.1,23.5,4c3.9,1.3,8-1.6,8-5.7l0-3.9l0.1-70L1774.7-26.8z"/>
			<path class="st2" d="M1837.5-26.7c0-8.2-14.1-13.4-31.4-13.4c-17.4,0-31.4,5.1-31.4,13.3l0,0.4l-0.1,70l0,3.9c0,4.1,4.1,7,8,5.7
				c5.7-1.9,14-4,23.5-4c9.5,0,17.8,2.1,23.5,4c3.9,1.3,8-1.6,8-5.7l0-3.9l0.1-70L1837.5-26.7z"/>
		</g>
		<g>
			<g>
				<path class="st3" d="M1791.5-5.3c3.7-1.3,8.9-2,14.6-2c5.7,0,10.8,0.8,14.5,2"/>
				<path class="st3" d="M1791.5,7.7c3.7-1.3,8.9-2,14.6-2c5.7,0,10.8,0.8,14.5,2"/>
				<path class="st3" d="M1791.5,20.8c3.7-1.3,8.9-2,14.6-2c5.7,0,10.8,0.8,14.5,2"/>
			</g>
			<g>
				<path class="st3" d="M1728.7-5.3c3.7-1.3,8.8-2,14.4-2c5.6,0,10.7,0.8,14.4,2v13c-3.7-1.2-8.8-2-14.4-2c-5.6,0-10.8,0.8-14.4,2
					V-5.3z"/>
				<path class="st3" d="M1728.7,20.8c3.7-1.3,8.8-2,14.4-2c5.6,0,10.7,0.8,14.4,2"/>
			</g>
		</g>
	</g>
	<line class="st4" x1="1774.5" y1="-31.4" x2="1774.5" y2="52.6"/>
</g>
</svg>
