<!-- Generated by IcoMoon.io -->
<svg version="1.1" xmlns="http://www.w3.org/2000/svg" width="32" height="32" viewBox="0 0 32 32">
<title>icon__subtract</title>
<path d="M16 25.7c-5.3 0-9.7-4.3-9.7-9.7s4.3-9.8 9.7-9.8c0 0 0.1 0 0.1 0 5.3 0 9.7 4.3 9.7 9.7v0c0 5.4-4.3 9.8-9.8 9.8 0.1 0 0 0 0 0zM16 7.5c0 0-0.1 0 0 0-4.7 0-8.5 3.8-8.4 8.5 0 4.6 3.8 8.4 8.5 8.4 0 0 0.1 0 0.1 0 4.6 0 8.4-3.8 8.4-8.5v0c-0.2-4.6-4-8.4-8.6-8.4z"></path>
<path d="M12.8 16.7c-0.3 0-0.6-0.3-0.6-0.6s0.3-0.6 0.6-0.6l6.6-0.1c0.3 0 0.6 0.3 0.6 0.6s-0.3 0.6-0.6 0.6l-6.6 0.1z"></path>
</svg>
