<?xml version="1.0" encoding="utf-8"?>
<!-- Generator: Adobe Illustrator 24.2.3, SVG Export Plug-In . SVG Version: 6.00 Build 0)  -->
<svg version="1.1" id="Layer_1" xmlns="http://www.w3.org/2000/svg" xmlns:xlink="http://www.w3.org/1999/xlink" x="0px" y="0px"
	 viewBox="0 0 32 32" style="enable-background:new 0 0 32 32;" xml:space="preserve">
<g>
	<path d="M11.8,16.6c-0.2,0.2-0.2,0.5,0,0.7l3.9,3.9c0.1,0.1,0.2,0.1,0.3,0.1c0.1,0,0.2,0,0.3-0.1c0,0,0,0,0,0c0,0,0,0,0,0l3.9-3.9
		c0.2-0.2,0.2-0.5,0-0.7c-0.2-0.2-0.5-0.2-0.7,0l-3.1,3.1V6.4C16.5,6.2,16.3,6,16,6c-0.3,0-0.5,0.2-0.5,0.5v13.3l-3.1-3.1
		C12.3,16.4,12,16.4,11.8,16.6z"/>
	<path d="M22.5,11.5h-2.2c-0.3,0-0.5,0.2-0.5,0.5s0.2,0.5,0.5,0.5h2.2c1.3,0,2.3,1,2.3,2.3v8c0,1.3-1,2.3-2.3,2.3H9.5
		c-1.3,0-2.3-1-2.3-2.3v-8c0-1.3,1-2.3,2.3-2.3h2.4c0.3,0,0.5-0.2,0.5-0.5s-0.2-0.5-0.5-0.5H9.5c-1.8,0-3.3,1.5-3.3,3.3v8
		c0,1.8,1.5,3.3,3.3,3.3h13.1c1.8,0,3.3-1.5,3.3-3.3v-8C25.8,13,24.3,11.5,22.5,11.5z"/>
</g>
</svg>
