<!-- Generated by IcoMoon.io -->
<svg version="1.1" xmlns="http://www.w3.org/2000/svg" width="32" height="32" viewBox="0 0 32 32">
<title>icon__paths</title>
<path d="M25.184 12.056c0.008-0.008 0.008-0.016 0.016-0.024 0.008-0.016 0.016-0.024 0.024-0.040 0.008-0.008 0.008-0.016 0.016-0.024 0.008-0.016 0.016-0.040 0.024-0.056 0 0 0 0 0 0 0.016-0.032 0.024-0.072 0.032-0.104 0-0.008 0-0.016 0.008-0.024 0.008-0.032 0.016-0.072 0.016-0.104 0 0 0 0 0 0 0-0.032 0-0.072 0-0.104 0-0.008 0-0.016 0-0.024 0-0.032-0.008-0.072-0.016-0.104 0 0 0 0 0 0-0.008-0.032-0.016-0.064-0.024-0.104 0-0.008-0.008-0.016-0.008-0.016-0.024-0.064-0.056-0.128-0.096-0.184-0.008-0.008-0.008-0.016-0.016-0.016-0.024-0.032-0.048-0.056-0.072-0.080l-3.576-3.576c-0.312-0.312-0.816-0.312-1.128 0s-0.312 0.816 0 1.128l2.208 2.208h-7.592c-0.44 0-0.8 0.36-0.8 0.8s0.36 0.8 0.8 0.8h7.592l-2.208 2.208c-0.312 0.312-0.312 0.816 0 1.128 0.16 0.16 0.36 0.232 0.568 0.232s0.408-0.080 0.568-0.232l3.576-3.576c0 0 0 0 0.008-0.008 0.016-0.016 0.032-0.032 0.048-0.056 0 0 0.008-0.008 0.008-0.008 0-0.008 0.008-0.024 0.024-0.040z"></path>
<path d="M17 19.592h-7.592l2.208-2.208c0.312-0.312 0.312-0.816 0-1.128s-0.816-0.312-1.128 0l-3.576 3.576c0 0 0 0-0.008 0.008-0.016 0.016-0.032 0.032-0.048 0.056 0 0.008-0.008 0.008-0.008 0.016-0.008 0.016-0.024 0.032-0.032 0.040s-0.008 0.016-0.016 0.024-0.016 0.024-0.024 0.040c-0.008 0.008-0.008 0.016-0.016 0.024-0.008 0.016-0.016 0.040-0.024 0.056 0 0 0 0 0 0-0.016 0.032-0.024 0.072-0.032 0.104 0 0.008 0 0.016-0.008 0.024-0.008 0.032-0.016 0.072-0.016 0.104 0 0 0 0 0 0 0 0.032 0 0.072 0 0.104 0 0.008 0 0.016 0 0.024 0 0.032 0.008 0.072 0.016 0.104 0 0 0 0 0 0 0.008 0.032 0.016 0.064 0.024 0.096 0 0.008 0.008 0.016 0.008 0.016 0.024 0.064 0.056 0.128 0.096 0.184 0.008 0.008 0.008 0.016 0.016 0.016 0.024 0.032 0.048 0.056 0.072 0.080 0 0 0 0 0 0l3.576 3.576c0.16 0.16 0.36 0.232 0.568 0.232s0.408-0.080 0.568-0.232c0.312-0.312 0.312-0.816 0-1.128l-2.208-2.208h7.592c0.44 0 0.8-0.36 0.8-0.8s-0.368-0.8-0.808-0.8z"></path>
</svg>
