<?xml version="1.0" encoding="utf-8"?>
<!-- Generator: Adobe Illustrator 24.2.3, SVG Export Plug-In . SVG Version: 6.00 Build 0)  -->
<svg version="1.1" id="Layer_1" xmlns="http://www.w3.org/2000/svg" xmlns:xlink="http://www.w3.org/1999/xlink" x="0px" y="0px"
	 viewBox="0 0 32 32" style="enable-background:new 0 0 32 32;" xml:space="preserve">
<g>
	<path d="M22.9,8.7C21,6.9,18.6,5.9,16,5.9C10.4,5.9,5.9,10.4,5.9,16S10.4,26.1,16,26.1S26.1,21.6,26.1,16
		C26.1,13.2,24.9,10.6,22.9,8.7z M16,25.1c-5,0-9.1-4.1-9.1-9.1S11,6.9,16,6.9c2.3,0,4.6,0.9,6.3,2.5c1.9,1.7,2.9,4.1,2.9,6.6
		C25.1,21,21,25.1,16,25.1z"/>
	<path d="M20.6,15.5l-4.1,0l0-4.1c0-0.3-0.2-0.5-0.5-0.5h0c-0.3,0-0.5,0.2-0.5,0.5l0,4.1l-4.1,0c0,0,0,0,0,0c-0.3,0-0.5,0.2-0.5,0.5
		c0,0.3,0.2,0.5,0.5,0.5l4.1,0l0,4.1c0,0.3,0.2,0.5,0.5,0.5h0c0.3,0,0.5-0.2,0.5-0.5l0-4.1l4.1,0c0,0,0,0,0,0c0.3,0,0.5-0.2,0.5-0.5
		C21.1,15.7,20.8,15.5,20.6,15.5z"/>
</g>
</svg>
