<!-- Generated by IcoMoon.io -->
<svg version="1.1" xmlns="http://www.w3.org/2000/svg" width="32" height="32" viewBox="0 0 32 32">
<title>icon__check</title>
<path d="M24.528 9.752c-0.312-0.312-0.816-0.312-1.128 0l-10.68 10.696-4.312-4.328c-0.312-0.312-0.816-0.312-1.128 0s-0.312 0.816 0 1.128l4.76 4.768c0.032 0.048 0.064 0.096 0.112 0.136 0.16 0.16 0.36 0.232 0.568 0.232 0.008 0 0.008 0 0.016 0s0.008 0 0.016 0c0.208 0 0.408-0.080 0.568-0.232 0.040-0.040 0.080-0.088 0.112-0.136l11.12-11.136c0.288-0.304 0.288-0.816-0.024-1.128z"></path>
</svg>
