<!-- Generated by IcoMoon.io -->
<svg version="1.1" xmlns="http://www.w3.org/2000/svg" width="32" height="32" viewBox="0 0 32 32">
<title>icon__bell</title>
<path d="M22.64 18.336v-3.472c0-2.824-1.776-5.312-4.392-6.248v-0.096c0-1.232-1.008-2.24-2.24-2.24s-2.24 1.008-2.24 2.24v0.096c-2.616 0.936-4.392 3.416-4.392 6.248v3.472c-1.112 0.128-1.976 1.072-1.976 2.216 0 1.232 1 2.232 2.232 2.232h3.12c0.16 1.648 1.56 2.944 3.248 2.944s3.088-1.288 3.248-2.944h3.12c1.232 0 2.232-1 2.232-2.232 0.008-1.144-0.848-2.088-1.96-2.216zM16.008 24.12c-0.808 0-1.48-0.576-1.632-1.344h3.264c-0.152 0.76-0.824 1.344-1.632 1.344zM22.376 21.184h-12.736c-0.352 0-0.632-0.28-0.632-0.632s0.28-0.632 0.632-0.632c0.736 0 1.344-0.6 1.344-1.344v-3.712c0-2.304 1.56-4.312 3.792-4.88 0.352-0.088 0.6-0.408 0.6-0.776v-0.688c0-0.352 0.288-0.64 0.64-0.64s0.64 0.288 0.64 0.64v0.688c0 0.368 0.248 0.68 0.6 0.776 2.232 0.568 3.784 2.576 3.784 4.88v3.728c0 0.736 0.6 1.336 1.336 1.336 0.352 0 0.632 0.28 0.632 0.632 0 0.336-0.288 0.624-0.632 0.624z"></path>
</svg>
