<!-- Generated by IcoMoon.io -->
<svg version="1.1" xmlns="http://www.w3.org/2000/svg" width="32" height="32" viewBox="0 0 32 32">
<title>icon__image</title>
<path d="M25.96 10.128c0-2.12-1.728-3.848-3.848-3.848h-12.224c-2.12 0-3.848 1.728-3.848 3.848v11.752c0 2.12 1.728 3.848 3.848 3.848h12.232c1.824 0 3.36-1.28 3.752-2.992 0.064-0.136 0.088-0.288 0.072-0.432 0.016-0.136 0.024-0.28 0.024-0.416v-11.76zM9.888 7.88h12.232c1.24 0 2.248 1.008 2.248 2.248v10.344l-2.632-2.632c-0.4-0.4-0.92-0.616-1.488-0.616s-1.088 0.216-1.488 0.616l-1.040 1.040c-0.096 0.096-0.216 0.144-0.352 0.144s-0.256-0.048-0.352-0.144l-3.4-3.4c-0.816-0.816-2.152-0.816-2.968 0l-3.008 3v-8.352c0-1.24 1.008-2.248 2.248-2.248zM22.112 24.12h-12.224c-1.24 0-2.248-1.008-2.248-2.248v-1.136l4.136-4.136c0.192-0.192 0.512-0.192 0.704 0l3.4 3.4c0.816 0.816 2.152 0.816 2.968 0l1.040-1.040c0.096-0.096 0.216-0.144 0.352-0.144s0.256 0.048 0.352 0.144l3.64 3.64c-0.296 0.888-1.136 1.52-2.12 1.52z"></path>
<path d="M17.68 14.88c1.432 0 2.6-1.168 2.6-2.6s-1.168-2.6-2.6-2.6c-1.432 0-2.6 1.168-2.6 2.6s1.168 2.6 2.6 2.6zM17.68 10.88c0.768 0 1.4 0.632 1.4 1.4s-0.632 1.4-1.4 1.4-1.4-0.632-1.4-1.4 0.632-1.4 1.4-1.4z"></path>
</svg>
