<!-- Generated by IcoMoon.io -->
<svg version="1.1" xmlns="http://www.w3.org/2000/svg" width="32" height="32" viewBox="0 0 32 32">
<title>icon__camera</title>
<path d="M22.376 8.44l-1.504 0.008c-0.096-1.208-1.112-2.168-2.344-2.168h-4.976c-1.232 0-2.248 0.952-2.344 2.16h-1.584c-1.976 0-3.584 1.608-3.584 3.584v10.12c0 1.976 1.608 3.584 3.584 3.584h12.76c1.976 0 3.584-1.608 3.584-3.584v-10.12c-0.008-1.976-1.616-3.584-3.592-3.584zM24.36 22.136c0 1.088-0.888 1.984-1.984 1.984h-12.752c-1.088 0-1.984-0.888-1.984-1.984v-10.112c0-1.088 0.888-1.984 1.984-1.984h1.776c0.776 0 1.408-0.632 1.408-1.408 0-0.416 0.336-0.752 0.752-0.752h4.976c0.416 0 0.752 0.336 0.752 0.752v0.008c0 0.376 0.144 0.728 0.416 1 0.264 0.264 0.616 0.408 0.992 0.408 0 0 0.008 0 0.008 0l1.688-0.008c1.088 0 1.984 0.888 1.984 1.984v10.112z"></path>
<path d="M16.040 12.68c-2.512 0-4.56 2.048-4.56 4.56s2.048 4.56 4.56 4.56 4.56-2.048 4.56-4.56-2.048-4.56-4.56-4.56zM16.040 20.2c-1.632 0-2.96-1.328-2.96-2.96s1.328-2.96 2.96-2.96 2.96 1.328 2.96 2.96c0 1.632-1.328 2.96-2.96 2.96z"></path>
</svg>
