<!-- Generated by IcoMoon.io -->
<svg version="1.1" xmlns="http://www.w3.org/2000/svg" width="32" height="32" viewBox="0 0 32 32">
<title>icon__arrow-right</title>
<path d="M20.9 21.4l4.9-4.9c0 0 0 0 0 0s0 0 0-0.1v0c0 0 0 0 0 0s0 0 0 0 0 0 0 0 0 0 0 0 0 0 0-0.1v0c0 0 0-0.1 0-0.1s0 0 0 0 0-0.1 0-0.1v0c0 0 0-0.1 0-0.1s0 0 0 0 0-0.1 0-0.1c0 0 0 0 0 0s0-0.1 0-0.1c0 0 0 0 0 0s0-0.1 0-0.1v0c0 0 0-0.1-0.1-0.1 0 0 0 0 0 0s0-0.1-0.1-0.1v0l-4.9-4.9c-0.3-0.3-0.8-0.3-1.1 0s-0.3 0.8 0 1.1l3.5 3.5h-16.3c-0.4 0-0.8 0.3-0.8 0.8s0.4 0.8 0.8 0.8h16.5l-3.5 3.5c-0.2 0.2-0.2 0.4-0.2 0.6s0.1 0.4 0.2 0.6c0.3 0.2 0.8 0.2 1.1-0.1z"></path>
</svg>
