<!-- Generated by IcoMoon.io -->
<svg version="1.1" xmlns="http://www.w3.org/2000/svg" width="32" height="32" viewBox="0 0 32 32">
<title>icon__chart</title>
<path d="M22.696 8.896c-1.824-1.712-4.2-2.656-6.696-2.656-5.384 0-9.76 4.376-9.76 9.76s4.376 9.76 9.76 9.76c5.384 0 9.76-4.376 9.76-9.76 0-2.68-1.12-5.264-3.064-7.104zM24.12 15.2h-7.32v-7.32c1.792 0.176 3.472 0.936 4.792 2.184 1.464 1.368 2.344 3.176 2.528 5.136zM16 24.16c-4.496 0-8.16-3.664-8.16-8.16 0-4.232 3.232-7.72 7.36-8.12v8.12c0 0.44 0.36 0.8 0.8 0.8h8.12c-0.4 4.128-3.888 7.36-8.12 7.36z"></path>
</svg>
