<!-- Generated by IcoMoon.io -->
<svg version="1.1" xmlns="http://www.w3.org/2000/svg" width="32" height="32" viewBox="0 0 32 32">
<title>icon__signal</title>
<path d="M22.792 11.976c-1.816-1.712-4.192-2.656-6.696-2.656-2.608 0-5.056 1.016-6.904 2.856-0.312 0.312-0.312 0.816 0 1.128 0.16 0.16 0.36 0.232 0.568 0.232s0.408-0.080 0.568-0.232c1.544-1.544 3.592-2.392 5.768-2.392 2.088 0 4.072 0.792 5.592 2.224 0.32 0.304 0.824 0.288 1.128-0.032 0.312-0.32 0.296-0.824-0.024-1.128z"></path>
<path d="M16.056 12.704c-1.688 0-3.272 0.656-4.464 1.848-0.312 0.312-0.312 0.816 0 1.128 0.16 0.16 0.36 0.232 0.568 0.232s0.408-0.080 0.568-0.232c0.888-0.888 2.072-1.384 3.336-1.384 1.208 0 2.352 0.456 3.232 1.28 0.32 0.304 0.832 0.288 1.128-0.032 0.304-0.32 0.288-0.824-0.032-1.128-1.176-1.104-2.72-1.712-4.336-1.712z"></path>
<path d="M16.024 16.344c-0.888 0-1.72 0.344-2.344 0.968-0.312 0.312-0.312 0.816 0 1.128 0.16 0.16 0.36 0.232 0.568 0.232s0.408-0.080 0.568-0.232c0.32-0.32 0.752-0.504 1.208-0.504 0.44 0 0.856 0.168 1.176 0.464 0.32 0.304 0.824 0.288 1.128-0.032s0.288-0.824-0.032-1.128c-0.616-0.576-1.424-0.896-2.272-0.896z"></path>
<path d="M16.736 21.96c0 0.398-0.322 0.72-0.72 0.72s-0.72-0.322-0.72-0.72c0-0.398 0.322-0.72 0.72-0.72s0.72 0.322 0.72 0.72z"></path>
</svg>
