<!-- Generated by IcoMoon.io -->
<svg version="1.1" xmlns="http://www.w3.org/2000/svg" width="32" height="32" viewBox="0 0 32 32">
<title>icon__arrow-up</title>
<path d="M21.432 11.104l-4.864-4.864c0 0 0 0-0.008-0.008-0.016-0.016-0.032-0.032-0.056-0.048 0 0-0.008-0.008-0.008-0.008-0.016-0.008-0.032-0.024-0.048-0.032-0.008-0.008-0.016-0.008-0.024-0.016-0.016-0.008-0.024-0.016-0.040-0.024-0.008-0.008-0.016-0.008-0.024-0.016-0.016-0.008-0.040-0.016-0.056-0.024 0 0 0 0 0 0-0.032-0.016-0.072-0.024-0.104-0.032-0.008 0-0.016 0-0.024-0.008-0.032-0.008-0.072-0.016-0.104-0.016 0 0 0 0 0 0-0.032 0-0.064 0-0.104 0-0.008 0-0.016 0-0.024 0-0.032 0-0.072 0.008-0.104 0.016 0 0 0 0-0.008 0-0.032 0.008-0.064 0.016-0.096 0.024-0.008 0-0.016 0.008-0.024 0.008-0.032 0.016-0.064 0.024-0.096 0.040 0 0 0 0 0 0-0.032 0.016-0.056 0.032-0.088 0.056-0.008 0.008-0.016 0.008-0.024 0.016-0.024 0.024-0.056 0.040-0.080 0.072 0 0 0 0 0 0l-4.864 4.864c-0.312 0.312-0.312 0.816 0 1.128s0.816 0.312 1.128 0l3.496-3.496v16.456c0 0.44 0.36 0.8 0.8 0.8s0.8-0.36 0.8-0.8v-16.456l3.496 3.496c0.16 0.16 0.36 0.232 0.568 0.232s0.408-0.080 0.568-0.232c0.328-0.304 0.328-0.816 0.016-1.128z"></path>
</svg>
