<?xml version="1.0" encoding="utf-8"?>
<!-- Generator: Adobe Illustrator 24.2.3, SVG Export Plug-In . SVG Version: 6.00 Build 0)  -->
<svg version="1.1" id="Layer_1" xmlns="http://www.w3.org/2000/svg" xmlns:xlink="http://www.w3.org/1999/xlink" x="0px" y="0px"
	 viewBox="0 0 32 32" style="enable-background:new 0 0 32 32;" xml:space="preserve">
<style type="text/css">
	.st0{fill:#C0F1F9;}
	.st1{fill:#4166C1;}
</style>
<g>
	<path class="st0" d="M18.3,23.9h-7.2c-1,0-1.9-0.9-1.9-1.9v-9.6c0-1,0.9-1.9,1.9-1.9h7.2c1,0,1.9,0.9,1.9,1.9V22
		C20.2,23,19.3,23.9,18.3,23.9z"/>
	<g>
		<path class="st1" d="M20.3,8.4h-7.6c-1.1,0-2.1,0.9-2.1,2.1v9.9c0,1.1,0.9,2.1,2.1,2.1h7.6c1.1,0,2.1-0.9,2.1-2.1v-9.9
			C22.3,9.3,21.4,8.4,20.3,8.4z M21.7,20.3c0,0.8-0.6,1.4-1.4,1.4h-7.6c-0.8,0-1.4-0.6-1.4-1.4v-9.9c0-0.8,0.6-1.4,1.4-1.4h7.6
			c0.8,0,1.4,0.6,1.4,1.4V20.3z"/>
		<path class="st1" d="M19.4,15h-4.1c-0.2,0-0.3,0.1-0.3,0.3s0.1,0.3,0.3,0.3h4.1c0.2,0,0.3-0.1,0.3-0.3S19.6,15,19.4,15z"/>
		<circle class="st1" cx="13.8" cy="15.4" r="0.5"/>
		<path class="st1" d="M19.4,13h-4.1c-0.2,0-0.3,0.1-0.3,0.3c0,0.2,0.1,0.3,0.3,0.3h4.1c0.2,0,0.3-0.1,0.3-0.3
			C19.7,13.1,19.6,13,19.4,13z"/>
		<circle class="st1" cx="13.8" cy="13.3" r="0.5"/>
		<path class="st1" d="M19.4,17.1h-4.1c-0.2,0-0.3,0.1-0.3,0.3c0,0.2,0.1,0.3,0.3,0.3h4.1c0.2,0,0.3-0.1,0.3-0.3
			C19.7,17.3,19.6,17.1,19.4,17.1z"/>
		<path class="st1" d="M13.8,16.9c-0.3,0-0.5,0.2-0.5,0.5c0,0.3,0.2,0.5,0.5,0.5s0.5-0.2,0.5-0.5C14.3,17.2,14.1,16.9,13.8,16.9z"/>
	</g>
</g>
</svg>
