<!-- Generated by IcoMoon.io -->
<svg version="1.1" xmlns="http://www.w3.org/2000/svg" width="32" height="32" viewBox="0 0 32 32">
<title>icon__book</title>
<path d="M25.488 9.328c-3.056-1.216-6.416-1.24-9.488-0.096-3.072-1.152-6.432-1.12-9.488 0.096-0.256 0.104-0.432 0.352-0.432 0.632v12.968c0 0.24 0.128 0.456 0.328 0.584 0.208 0.12 0.456 0.128 0.672 0.016 2.688-1.424 5.904-1.424 8.6 0 0.008 0.008 0.016 0.008 0.032 0.016 0.008 0.008 0.024 0.008 0.032 0.016 0.016 0.008 0.032 0.016 0.048 0.016 0.008 0 0.024 0.008 0.032 0.008 0.016 0.008 0.040 0.008 0.056 0.008 0.008 0 0.016 0 0.024 0.008 0.032 0 0.056 0.008 0.088 0.008s0.056 0 0.088-0.008c0.008 0 0.016 0 0.024-0.008 0.016 0 0.040-0.008 0.056-0.008 0.008 0 0.024-0.008 0.032-0.008 0.016-0.008 0.032-0.008 0.048-0.016 0.008-0.008 0.024-0.008 0.032-0.016s0.016-0.008 0.032-0.016c2.688-1.424 5.904-1.424 8.6 0 0.208 0.112 0.464 0.104 0.672-0.016s0.328-0.344 0.328-0.584v-12.968c0.008-0.28-0.16-0.528-0.416-0.632zM7.448 21.856v-11.424c2.552-0.904 5.32-0.904 7.872 0v11.432c-1.264-0.512-2.6-0.76-3.936-0.76-1.336-0.008-2.672 0.248-3.936 0.752zM24.552 21.856c-2.528-1.016-5.344-1.016-7.872 0v-11.424c2.552-0.904 5.32-0.904 7.872 0v11.424z"></path>
<path d="M13.736 12.080c-1.52-0.6-3.192-0.6-4.712 0-0.192 0.080-0.32 0.264-0.32 0.472v3.368c0 0.176 0.096 0.344 0.248 0.44s0.344 0.096 0.504 0.016c1.208-0.64 2.648-0.64 3.856 0 0.072 0.040 0.16 0.056 0.24 0.056 0.088 0 0.184-0.024 0.264-0.072 0.152-0.096 0.248-0.256 0.248-0.44v-3.368c0-0.208-0.128-0.4-0.328-0.472zM13.040 15.144c-0.536-0.184-1.096-0.272-1.656-0.272s-1.12 0.088-1.656 0.272v-2.232c1.080-0.352 2.232-0.352 3.312 0v2.232z"></path>
<path d="M18.488 13.016c-0.264 0.096-0.408 0.384-0.312 0.648 0.072 0.208 0.272 0.344 0.48 0.344 0.056 0 0.112-0.008 0.168-0.032l0.040-0.016c1.128-0.392 2.368-0.384 3.496 0.016 0.264 0.096 0.56-0.048 0.648-0.312 0.096-0.264-0.048-0.56-0.312-0.648-1.344-0.48-2.824-0.48-4.176-0.016l-0.032 0.016z"></path>
<path d="M18.824 16.088l0.024-0.008c1.128-0.392 2.368-0.392 3.496 0l0.024 0.008c0.056 0.024 0.112 0.032 0.168 0.032 0.208 0 0.408-0.128 0.48-0.336 0.096-0.264-0.048-0.56-0.312-0.648l-0.024-0.008c-1.344-0.472-2.824-0.472-4.176 0l-0.024 0.008c-0.264 0.096-0.408 0.384-0.312 0.648s0.392 0.4 0.656 0.304z"></path>
<path d="M22.704 17.24c-1.344-0.48-2.824-0.48-4.168-0.016l-0.048 0.016c-0.264 0.088-0.408 0.384-0.32 0.648s0.384 0.408 0.648 0.32l0.048-0.016c1.128-0.392 2.368-0.384 3.496 0.016 0.056 0.024 0.112 0.032 0.168 0.032 0.208 0 0.408-0.128 0.48-0.336 0.096-0.28-0.040-0.576-0.304-0.664z"></path>
<path d="M13.52 17.272c-1.344-0.48-2.824-0.48-4.176-0.016l-0.048 0.016c-0.264 0.096-0.408 0.384-0.312 0.648 0.072 0.208 0.272 0.344 0.48 0.344 0.056 0 0.112-0.008 0.168-0.032l0.040-0.016c1.128-0.392 2.368-0.384 3.496 0.016 0.264 0.096 0.56-0.048 0.648-0.312s-0.032-0.552-0.296-0.648z"></path>
</svg>
