<!-- Generated by IcoMoon.io -->
<svg version="1.1" xmlns="http://www.w3.org/2000/svg" width="32" height="32" viewBox="0 0 32 32">
<title>icon__calendar</title>
<path d="M22.248 7.76h-0.856v-0.68c0-0.48-0.392-0.872-0.872-0.872s-0.872 0.392-0.872 0.872v0.68h-7.304v-0.68c0-0.48-0.392-0.872-0.872-0.872s-0.872 0.392-0.872 0.872v0.68h-0.856c-2.048 0-3.712 1.664-3.712 3.712v10.528c0 2.048 1.664 3.712 3.712 3.712h12.488c2.048 0 3.712-1.664 3.712-3.712v-10.528c0.016-2.048-1.648-3.712-3.696-3.712zM24.36 22.008c0 1.168-0.952 2.112-2.112 2.112h-12.496c-1.168 0-2.112-0.952-2.112-2.112v-10.536c0-1.168 0.952-2.112 2.112-2.112h0.856v0.36c0 0.48 0.392 0.872 0.872 0.872s0.872-0.392 0.872-0.872v-0.36h7.304v0.36c0 0.48 0.392 0.872 0.872 0.872s0.872-0.392 0.872-0.872v-0.36h0.856c1.168 0 2.112 0.952 2.112 2.112v10.536z"></path>
<path d="M20.52 15.712h-1.664c-0.352 0-0.64 0.288-0.64 0.64v1.664c0 0.352 0.288 0.64 0.64 0.64h1.664c0.352 0 0.64-0.288 0.64-0.64v-1.664c0-0.352-0.288-0.64-0.64-0.64z"></path>
<path d="M13.144 15.712h-1.664c-0.352 0-0.64 0.288-0.64 0.64v1.664c0 0.352 0.288 0.64 0.64 0.64h1.664c0.352 0 0.64-0.288 0.64-0.64v-1.664c-0.008-0.352-0.288-0.64-0.64-0.64z"></path>
<path d="M16.832 15.712h-1.664c-0.352 0-0.64 0.288-0.64 0.64v1.664c0 0.352 0.288 0.64 0.64 0.64h1.664c0.352 0 0.64-0.288 0.64-0.64v-1.664c0-0.352-0.288-0.64-0.64-0.64z"></path>
<path d="M20.52 12.096h-1.664c-0.352 0-0.64 0.288-0.64 0.64v1.664c0 0.352 0.288 0.64 0.64 0.64h1.664c0.352 0 0.64-0.288 0.64-0.64v-1.664c0-0.352-0.288-0.64-0.64-0.64z"></path>
<path d="M13.144 12.096h-1.664c-0.352 0-0.64 0.288-0.64 0.64v1.664c0 0.352 0.288 0.64 0.64 0.64h1.664c0.352 0 0.64-0.288 0.64-0.64v-1.664c-0.008-0.352-0.288-0.64-0.64-0.64z"></path>
<path d="M16.832 12.096h-1.664c-0.352 0-0.64 0.288-0.64 0.64v1.664c0 0.352 0.288 0.64 0.64 0.64h1.664c0.352 0 0.64-0.288 0.64-0.64v-1.664c0-0.352-0.288-0.64-0.64-0.64z"></path>
<path d="M13.144 19.328h-1.664c-0.352 0-0.64 0.288-0.64 0.64v1.664c0 0.352 0.288 0.64 0.64 0.64h1.664c0.352 0 0.64-0.288 0.64-0.64v-1.664c-0.008-0.36-0.288-0.64-0.64-0.64z"></path>
<path d="M16.832 19.328h-1.664c-0.352 0-0.64 0.288-0.64 0.64v1.664c0 0.352 0.288 0.64 0.64 0.64h1.664c0.352 0 0.64-0.288 0.64-0.64v-1.664c0-0.36-0.288-0.64-0.64-0.64z"></path>
</svg>
