<!-- Generated by IcoMoon.io -->
<svg version="1.1" xmlns="http://www.w3.org/2000/svg" width="32" height="32" viewBox="0 0 32 32">
<title>icon__phone</title>
<path d="M20.848 25.68c-0.96 0-1.896-0.224-2.696-0.504-1.696-0.6-3.552-1.696-5.656-3.36-3.168-2.48-6.808-6.424-6.12-11.088 0.2-1.368 1.12-3.64 2.824-4.32 0.264-0.12 0.552-0.104 0.76-0.072 0.624 0.088 1.184 0.512 1.56 0.792 0.048 0.032 0.088 0.064 0.128 0.096 0.488 0.36 0.92 0.768 1.336 1.16 0.12 0.112 0.232 0.216 0.352 0.328 0.304 0.288 0.656 0.624 0.928 1.064 0.832 1.352 0.216 2.304-0.328 3.152l-0.016 0.024c-0.184 0.256-0.592 0.736-0.88 1.056 0.232 0.408 0.664 1.064 0.784 1.224l0.008 0.016c0.392 0.544 0.856 1.080 1.384 1.584 0.552 0.512 1.128 0.952 1.712 1.32l0.048 0.032c0.168 0.12 0.84 0.56 1.264 0.784l0.432-0.416c0.080-0.080 0.168-0.176 0.256-0.28 0.384-0.44 0.912-1.048 1.752-1.072 0.8-0.024 1.624 0.6 2.544 1.36 0.16 0.136 0.32 0.264 0.424 0.344l0.104 0.080c0.8 0.632 1.888 1.496 1.976 2.832v0.024c0.024 0.696-0.328 1.44-1.040 2.192-1.16 1.232-2.528 1.648-3.84 1.648zM9.712 7.784c-0.952 0.4-1.704 1.912-1.888 3.16-0.584 3.968 2.712 7.472 5.576 9.72 1.952 1.536 3.712 2.592 5.24 3.128 2.16 0.768 3.784 0.512 4.952-0.768l0.008-0.008c0.416-0.44 0.648-0.848 0.648-1.128-0.048-0.672-0.808-1.28-1.424-1.76l-0.064-0.056c-0.144-0.104-0.296-0.232-0.48-0.384-0.344-0.28-1.24-1.024-1.568-1.024 0 0 0 0 0 0-0.2 0.008-0.448 0.296-0.688 0.576-0.104 0.12-0.216 0.248-0.328 0.36h-0.016l-0.76 0.736c-0.488 0.48-1.128 0.096-1.816-0.32-0.4-0.24-0.84-0.528-0.992-0.64-0.656-0.416-1.296-0.912-1.904-1.48l-0.008-0.008c-0.592-0.568-1.12-1.168-1.56-1.784-0.088-0.12-0.384-0.552-0.64-0.976-0.432-0.704-0.776-1.256-0.368-1.744l0.024-0.024c0.32-0.352 0.888-0.992 1.064-1.24 0.52-0.8 0.64-1.032 0.304-1.568-0.16-0.256-0.376-0.48-0.68-0.76-0.12-0.104-0.24-0.216-0.36-0.336-0.384-0.36-0.784-0.736-1.208-1.048-0.040-0.032-0.088-0.064-0.144-0.104-0.224-0.168-0.64-0.48-0.88-0.512h-0.024c-0.008-0.008-0.016-0.008-0.016-0.008zM17.904 19.288c0 0 0 0 0 0v0z"></path>
</svg>
