<!-- Generated by IcoMoon.io -->
<svg version="1.1" xmlns="http://www.w3.org/2000/svg" width="32" height="32" viewBox="0 0 32 32">
<title>icon__info</title>
<path d="M16 25.76c-5.384 0-9.76-4.376-9.76-9.76s4.376-9.76 9.76-9.76c2.496 0 4.872 0.944 6.696 2.656 1.952 1.84 3.064 4.424 3.064 7.104 0 5.384-4.376 9.76-9.76 9.76zM16 7.84c-4.496 0-8.16 3.664-8.16 8.16s3.664 8.16 8.16 8.16 8.16-3.664 8.16-8.16c0-2.272-0.912-4.384-2.568-5.936-1.52-1.432-3.504-2.224-5.592-2.224z"></path>
<path d="M16.472 15.16c0.112 0.16 0.168 0.392 0.168 0.688 0 0.16-0.024 0.4-0.064 0.72s-0.072 0.528-0.080 0.624c-0.008 0.072-0.032 0.224-0.064 0.464s-0.048 0.4-0.048 0.496c0 0.136 0.040 0.208 0.12 0.208 0.144 0 0.272-0.208 0.392-0.632l0.432 0.128c-0.032 0.176-0.104 0.36-0.208 0.552s-0.248 0.352-0.416 0.488c-0.168 0.136-0.368 0.2-0.592 0.2-0.28 0-0.48-0.072-0.592-0.224s-0.168-0.376-0.168-0.68c0-0.24 0.048-0.664 0.144-1.272 0.080-0.52 0.12-0.872 0.12-1.048 0-0.136-0.040-0.208-0.128-0.208-0.136 0-0.264 0.208-0.384 0.632l-0.432-0.128c0.032-0.168 0.104-0.352 0.208-0.544 0.112-0.192 0.248-0.36 0.424-0.496s0.368-0.2 0.6-0.2c0.264-0.008 0.456 0.072 0.568 0.232zM16.592 13.088c0.104 0.12 0.16 0.272 0.16 0.448 0 0.192-0.064 0.352-0.176 0.488-0.12 0.128-0.264 0.192-0.44 0.192s-0.32-0.056-0.432-0.176c-0.112-0.12-0.16-0.264-0.16-0.44 0-0.184 0.064-0.352 0.192-0.488s0.28-0.208 0.448-0.208c0.168 0 0.304 0.064 0.408 0.184z"></path>
</svg>
