<!-- Generated by IcoMoon.io -->
<svg version="1.1" xmlns="http://www.w3.org/2000/svg" width="32" height="32" viewBox="0 0 32 32">
<title>icon__document</title>
<path d="M24.368 11.696l-5.376-5.456c-0.152-0.152-0.352-0.24-0.568-0.24h-7.488c-1.952 0-3.536 1.584-3.536 3.536v12.928c0 1.952 1.584 3.536 3.536 3.536h10.128c1.952 0 3.536-1.584 3.536-3.536v-10.208c0-0.208-0.080-0.408-0.232-0.56zM23 12.584v0.056h-3.624c-0.664 0-1.208-0.544-1.208-1.208v-3.744l4.832 4.896zM21.064 24.4h-10.128c-1.072 0-1.936-0.872-1.936-1.936v-12.928c0-1.072 0.872-1.936 1.936-1.936h5.632v3.832c0 1.544 1.256 2.808 2.808 2.808h3.624v8.224c0 1.064-0.872 1.936-1.936 1.936z"></path>
<path d="M19.56 17.416c0 0-0.008 0-0.008 0l-7.36 0.080c-0.408 0.008-0.744 0.344-0.736 0.752s0.336 0.736 0.744 0.736c0 0 0.008 0 0.008 0l7.36-0.080c0.408-0.008 0.744-0.344 0.736-0.752 0-0.408-0.336-0.736-0.744-0.736z"></path>
<path d="M19.552 20.136l-7.36 0.080c-0.408 0.008-0.744 0.344-0.736 0.752s0.336 0.736 0.744 0.736c0 0 0.008 0 0.008 0l7.36-0.080c0.408-0.008 0.744-0.344 0.736-0.752 0-0.408-0.344-0.744-0.752-0.736z"></path>
</svg>
