<!-- Generated by IcoMoon.io -->
<svg version="1.1" xmlns="http://www.w3.org/2000/svg" width="32" height="32" viewBox="0 0 32 32">
<title>icon__arrow-left</title>
<path d="M11.1 10.6l-4.9 4.9c0 0 0 0 0 0s0 0 0 0.1v0c0 0 0 0 0 0s0 0 0 0 0 0 0 0 0 0 0 0 0 0 0 0.1v0c0 0 0 0.1 0 0.1s0 0 0 0 0 0.1 0 0.1v0c-0.2 0.1-0.2 0.1-0.2 0.1s0 0 0 0 0 0.1 0 0.1c0 0 0 0 0 0s0 0.1 0 0.1c0 0 0 0 0 0s0 0.1 0 0.1v0c0 0 0 0.1 0.1 0.1 0 0 0 0 0 0s0 0.1 0.1 0.1v0l4.9 4.9c0.3 0.3 0.8 0.3 1.1 0s0.3-0.8 0-1.1l-3.5-3.5h16.5c0.4 0 0.8-0.4 0.8-0.8s-0.4-0.8-0.8-0.8h-16.5l3.5-3.5c0.2-0.2 0.2-0.4 0.2-0.6s-0.1-0.4-0.2-0.6c-0.3-0.2-0.8-0.2-1.1 0.1z"></path>
</svg>
