<?xml version="1.0" encoding="utf-8"?>
<!-- Generator: Adobe Illustrator 25.0.0, SVG Export Plug-In . SVG Version: 6.00 Build 0)  -->
<svg version="1.1" xmlns="http://www.w3.org/2000/svg" xmlns:xlink="http://www.w3.org/1999/xlink" x="0px" y="0px"
	 viewBox="0 0 13500 5924" style="enable-background:new 0 0 13500 5924;" xml:space="preserve">
<style type="text/css">
	.st0{display:none;}
	.st1{display:inline;fill:#6F777B;}
	.st2{display:inline;fill:#D6D6D6;}
	.st3{display:inline;fill:#F1F1F1;}
	.st4{fill:#404040;}
	.st5{fill:#F1F1F1;}
	.st6{font-family:'Lora-Italic';}
	.st7{font-size:10px;}
	.st8{font-family:'Montserrat-Black';}
	.st9{font-size:21px;}
	.st10{fill:#6F777B;}
	.st11{font-family:'Montserrat-Medium';}
	.st12{font-family:'Montserrat-SemiBold';}
	.st13{fill:none;stroke:#C4C4C4;stroke-width:2;stroke-miterlimit:10;}
	.st14{font-family:'Lora-BoldItalic';}
	.st15{font-size:36px;}
	.st16{letter-spacing:28;}
	.st17{font-size:24px;}
	.st18{fill:none;stroke:#C4C4C4;stroke-width:2;stroke-miterlimit:10;stroke-dasharray:3.7143,3.7143;}
	.st19{fill:none;stroke:#C4C4C4;stroke-width:2;stroke-miterlimit:10;stroke-dasharray:3.9661,3.9661;}
	.st20{fill:none;stroke:#C4C4C4;stroke-width:2;stroke-miterlimit:10;stroke-dasharray:4.0215,4.0215;}
	.st21{fill:none;stroke:#C4C4C4;stroke-width:2;stroke-miterlimit:10;stroke-dasharray:4.0019,4.0019;}
	.st22{fill:none;stroke:#C4C4C4;stroke-width:2;stroke-miterlimit:10;stroke-dasharray:3.9259,3.9259;}
	.st23{fill:none;stroke:#C4C4C4;stroke-width:2;stroke-miterlimit:10;stroke-dasharray:3.9989,3.9989;}
	.st24{fill:none;stroke:#C4C4C4;stroke-width:2;stroke-miterlimit:10;stroke-dasharray:4.0014,4.0014;}
	.st25{fill:none;stroke:#C4C4C4;stroke-width:2;stroke-miterlimit:10;stroke-dasharray:3.9231,3.9231;}
	.st26{fill:none;stroke:#C4C4C4;stroke-width:2;stroke-miterlimit:10;stroke-dasharray:3.9963,3.9963;}
	.st27{fill:none;stroke:#C4C4C4;stroke-width:2;stroke-miterlimit:10;stroke-dasharray:4.0103,4.0103;}
	.st28{fill:none;stroke:#C4C4C4;stroke-width:2;stroke-miterlimit:10;stroke-dasharray:4,4;}
	.st29{fill:none;stroke:#C4C4C4;stroke-width:2;stroke-miterlimit:10;stroke-dasharray:3.968,3.968;}
	.st30{fill:none;stroke:#C4C4C4;stroke-width:2;stroke-miterlimit:10;stroke-dasharray:4.0028,4.0028;}
	.st31{fill:none;stroke:#C4C4C4;stroke-width:2;stroke-miterlimit:10;stroke-dasharray:4.0424,4.0424;}
	.st32{fill:none;stroke:#C4C4C4;stroke-width:2;stroke-miterlimit:10;stroke-dasharray:4.0099,4.0099;}
	.st33{fill:none;stroke:#C4C4C4;stroke-width:2;stroke-miterlimit:10;stroke-dasharray:4.1304,4.1304;}
	.st34{fill:none;stroke:#C4C4C4;stroke-width:2;stroke-miterlimit:10;stroke-dasharray:4.0968,4.0968;}
	.st35{fill:none;stroke:#C4C4C4;stroke-width:2;stroke-miterlimit:10;stroke-dasharray:4;}
	.st36{fill:none;stroke:#A5A5A5;stroke-miterlimit:10;}
	.st37{fill:none;stroke:#A5A5A5;stroke-miterlimit:10;stroke-dasharray:12,12;}
</style>
<g id="Layer_3" class="st0">
	<rect x="716" y="6383.9" class="st1" width="525" height="135"/>
	<rect x="1241" y="6383.9" class="st2" width="525" height="135"/>
	<rect x="1766" y="6383.9" class="st1" width="525" height="135"/>
	<rect x="2291" y="6383.9" class="st2" width="525" height="135"/>
	<rect x="2816" y="6383.9" class="st1" width="525" height="135"/>
	<rect x="3341" y="6383.9" class="st2" width="525" height="135"/>
	<rect x="3866" y="6383.9" class="st1" width="525" height="135"/>
	<rect x="4391" y="6383.9" class="st2" width="525" height="135"/>
	<rect x="4916" y="6383.9" class="st1" width="525" height="135"/>
	<rect x="5441" y="6383.9" class="st2" width="525" height="135"/>
	<rect x="5966" y="6383.9" class="st1" width="525" height="135"/>
	<rect x="6491" y="6383.9" class="st2" width="525" height="135"/>
	<rect x="7016" y="6383.9" class="st1" width="525" height="135"/>
	<rect x="7541" y="6383.9" class="st2" width="525" height="135"/>
	<rect x="8066" y="6383.9" class="st1" width="525" height="135"/>
	<rect x="8591" y="6383.9" class="st2" width="525" height="135"/>
	<rect x="9116" y="6383.9" class="st1" width="525" height="135"/>
	<rect x="9641" y="6383.9" class="st2" width="525" height="135"/>
	<rect x="10166" y="6383.9" class="st1" width="525" height="135"/>
	<rect x="10691" y="6383.9" class="st2" width="525" height="135"/>
	<rect x="11216" y="6383.9" class="st1" width="525" height="135"/>
	<rect x="11741" y="6383.9" class="st2" width="525" height="135"/>
	<rect x="12266" y="6383.9" class="st1" width="525" height="135"/>
	<rect x="-525" y="4001.1" class="st1" width="525" height="500"/>
	<rect x="-525" y="3001" class="st1" width="525" height="500"/>
	<rect x="-525" y="2001" class="st1" width="525" height="500"/>
	<rect x="-525" y="1001" class="st1" width="525" height="500"/>
	<rect x="-525" y="4501" class="st3" width="525" height="500"/>
	<rect x="-525" y="3501" class="st3" width="525" height="500"/>
	<rect x="-525" y="2501" class="st3" width="525" height="500"/>
	<rect x="-525" y="1501" class="st3" width="525" height="500"/>
	<rect x="-661" y="142" class="st1" width="80" height="100"/>
	<rect x="-410" y="142" class="st1" width="20" height="100"/>
</g>
<g id="Spacing">
	<g>
		<circle class="st4" cx="1990" cy="7944" r="146"/>
	</g>
	<text transform="matrix(1 0 0 1 2185 7891)"><tspan x="0" y="0" class="st4 st6 st15">Countess Rivers</tspan><tspan x="0" y="70.4" class="st4 st8" style="font-size:72px;">Jacquetta of Luxembourg</tspan><tspan x="0" y="120.8" class="st10 st11 st15">House of Luxembourg</tspan></text>
	<g>
		<circle class="st4" cx="1990" cy="7552" r="146"/>
	</g>
	<text transform="matrix(1 0 0 1 2185 7499)"><tspan x="0" y="0" class="st4 st6 st15">1st Duke of Bedford</tspan><tspan x="0" y="70.4" class="st4 st8" style="font-size:72px;">John of Lancaster</tspan><tspan x="0" y="120.8" class="st10 st11 st15">House of Lancaster</tspan></text>
</g>
<g id="John_of_Lancaster">
	<path class="st5" d="M11691,2426h-1064c-5.5,0-10-4.5-10-10v-330c0-5.5,4.5-10,10-10h1064c5.5,0,10,4.5,10,10v330
		C11701,2421.5,11696.5,2426,11691,2426z"/>
	<path class="st5" d="M11149,2921h-522c-5.5,0-10-4.5-10-10v-330c0-5.5,4.5-10,10-10h522c5.5,0,10,4.5,10,10v330
		C11159,2916.5,11154.5,2921,11149,2921z"/>
	<path class="st5" d="M3149.6,2926h-380c-5.5,0-10-4.5-10-10v-330c0-5.5,4.5-10,10-10h380c5.5,0,10,4.5,10,10v330
		C3159.6,2921.5,3155.1,2926,3149.6,2926z"/>
	<path class="st5" d="M5908,2426h-507c-5.5,0-10-4.5-10-10v-330c0-5.5,4.5-10,10-10h507c5.5,0,10,4.5,10,10v330
		C5918,2421.5,5913.5,2426,5908,2426z"/>
	<path class="st5" d="M4326.7,2571h-530c-5.5,0-10-4.5-10-10v-480c0-5.5,4.5-10,10-10h530c5.5,0,10,4.5,10,10v480
		C4336.7,2566.5,4332.2,2571,4326.7,2571z"/>
	<g>
		<g id="Jacquetta">
			<g id="Bg_1_">
				<circle class="st4" cx="6016" cy="2321" r="50"/>
			</g>
			<text transform="matrix(1 0 0 1 6086 2305.5352)"><tspan x="0" y="0" class="st4 st6 st7">Countess Rivers</tspan><tspan x="0" y="22.4" class="st4 st8 st9">Jacquetta of Luxembourg</tspan><tspan x="0" y="36.8" class="st10 st11 st7">House of Luxembourg</tspan></text>
		</g>
		<g id="John_1_">
			<g id="Bg">
				<circle class="st4" cx="6016" cy="2181" r="50"/>
			</g>
			<text transform="matrix(1 0 0 1 6086 2165.5352)"><tspan x="0" y="0" class="st4 st6 st7">1st Duke of Bedford</tspan><tspan x="0" y="22.4" class="st4 st8 st9">John of Lancaster</tspan><tspan x="0" y="36.8" class="st10 st11 st7">House of Lancaster</tspan></text>
		</g>
	</g>
	<g>
		<g id="Jacquetta_17_">
			<g id="Bg_66_">
				<circle class="st4" cx="7066" cy="2321" r="50"/>
			</g>
			<text transform="matrix(1 0 0 1 7136 2305.5352)"><tspan x="0" y="0" class="st4 st6 st7">Duchess of Gloucester</tspan><tspan x="0" y="22.4" class="st4 st8 st9">Eleanor Cobham</tspan><tspan x="0" y="36.8" class="st10 st11 st7">House of Luxembourg</tspan></text>
		</g>
		<g id="John_16_">
			<g id="Bg_64_">
				<circle class="st4" cx="7066" cy="2181" r="50"/>
			</g>
			<text transform="matrix(1 0 0 1 7136 2165.5352)"><tspan x="0" y="0" class="st4 st6 st7">1st Duke of Gloucester</tspan><tspan x="0" y="22.4" class="st4 st8 st9">Humphrey</tspan><tspan x="0" y="36.8" class="st10 st11 st7">House of Lancaster</tspan></text>
		</g>
	</g>
	<g>
		<g id="Jacquetta_27_">
			<g id="Bg_110_">
				<circle class="st4" cx="10216" cy="2321" r="50"/>
			</g>
			<text transform="matrix(1 0 0 1 10286 2305.5352)"><tspan x="0" y="0" class="st4 st6 st7">Duchess of Clarence</tspan><tspan x="0" y="22.4" class="st4 st8 st9">Isabel Neville</tspan><tspan x="0" y="36.8" class="st10 st11 st7">House of Neville</tspan></text>
		</g>
		<g id="John_28_">
			<g id="Bg_108_">
				<circle class="st4" cx="10216" cy="2181" r="50"/>
			</g>
			<text transform="matrix(1 0 0 1 10286 2165.5352)"><tspan x="0" y="0" class="st4 st6 st7">1st Duke of Clarence</tspan><tspan x="0" y="22.4" class="st4 st8 st9">George</tspan><tspan x="0" y="36.8" class="st10 st11 st7">House of York / Rebelious Borther</tspan></text>
		</g>
	</g>
	<g>
		<g id="Jacquetta_28_">
			<g id="Bg_114_">
				<circle class="st4" cx="10741" cy="2321" r="50"/>
			</g>
			<text transform="matrix(1 0 0 1 10811 2305.5352)"><tspan x="0" y="0" class="st4 st6 st7">Queen of England</tspan><tspan x="0" y="22.4" class="st4 st8 st9">Elizabeth Woodville</tspan><tspan x="0" y="36.8" class="st10 st11 st7">House of Woodville</tspan></text>
		</g>
		<g id="John_29_">
			<g id="Bg_112_">
				<circle class="st4" cx="10741" cy="2181" r="50"/>
			</g>
			<text transform="matrix(1 0 0 1 10811 2165.5352)"><tspan x="0" y="0" class="st4 st6 st7">King of England</tspan><tspan x="0" y="22.4" class="st4 st8 st9">Edward IV</tspan><tspan x="0" y="36.8" class="st10 st11 st7">House of York</tspan></text>
		</g>
	</g>
	<g>
		<g id="Jacquetta_29_">
			<g id="Bg_118_">
				<circle class="st4" cx="11266" cy="2321" r="50"/>
			</g>
			<text transform="matrix(1 0 0 1 11336 2305.5352)"><tspan x="0" y="0" class="st4 st6 st7">Queen of England</tspan><tspan x="0" y="22.4" class="st4 st8 st9">Anne Neville</tspan><tspan x="0" y="36.8" class="st10 st11 st7">House of Neville</tspan></text>
		</g>
		<g id="John_30_">
			<g id="Bg_116_">
				<circle class="st4" cx="11266" cy="2181" r="50"/>
			</g>
			<text transform="matrix(1 0 0 1 11336 2165.5352)"><tspan x="0" y="0" class="st4 st6 st7">King of England</tspan><tspan x="0" y="22.4" class="st4 st8 st9">Richard III</tspan><tspan x="0" y="36.8" class="st10 st11 st7">House of York</tspan></text>
		</g>
	</g>
	<g>
		<g id="John_17_">
			<g id="Bg_65_">
				<circle class="st4" cx="7066" cy="3681" r="50"/>
			</g>
			<text transform="matrix(1 0 0 1 7136 3665.5352)"><tspan x="0" y="0" class="st4 st6 st7">Bishop of Winchester</tspan><tspan x="0" y="22.4" class="st4 st8 st9">Cardinal </tspan><tspan x="77.1" y="22.4" class="st4 st12 st9">(</tspan><tspan x="83.1" y="22.4" class="st4 st8 st9">Henry</tspan><tspan x="135.7" y="22.4" class="st4 st12 st9">)</tspan><tspan x="141.7" y="22.4" class="st4 st8 st9"> Beaufort</tspan><tspan x="0" y="36.8" class="st10 st11 st7">House of Beaufort</tspan></text>
		</g>
	</g>
	<g>
		<g id="Jacquetta_19_">
			<g id="Bg_74_">
				<circle class="st4" cx="7591" cy="3321" r="50"/>
			</g>
			<text transform="matrix(1 0 0 1 7661 3305.5352)"><tspan x="0" y="0" class="st4 st6 st7">Duchess of Somerset</tspan><tspan x="0" y="22.4" class="st4 st8 st9">Eleanor Beauchamp</tspan><tspan x="0" y="36.8" class="st10 st11 st7">House of Beaufort</tspan></text>
		</g>
		<g id="John_18_">
			<g id="Bg_72_">
				<circle class="st4" cx="7591" cy="3181" r="50"/>
			</g>
			<text transform="matrix(1 0 0 1 7661 3165.5352)"><tspan x="0" y="0" class="st4 st6 st7">2nd Duke of Somerset</tspan><tspan x="0" y="22.4" class="st4 st8 st9">Edmund Beaufort</tspan><tspan x="0" y="36.8" class="st10 st11 st7">House of Beaufort</tspan></text>
		</g>
	</g>
	<g>
		<g id="Jacquetta_25_">
			<g id="Bg_102_">
				<circle class="st4" cx="9691" cy="3321" r="50"/>
			</g>
			<text transform="matrix(1 0 0 1 9761 3305.5352)"><tspan x="0" y="0" class="st4 st6 st7">Earl of Dorset</tspan><tspan x="0" y="22.4" class="st4 st8 st9">John Beaufort</tspan><tspan x="0" y="36.8" class="st10 st11 st7">House of Beaufort</tspan></text>
		</g>
		<g id="John_26_">
			<g id="Bg_100_">
				<circle class="st4" cx="9691" cy="3181" r="50"/>
			</g>
			<text transform="matrix(1 0 0 1 9761 3165.5352)"><tspan x="0" y="0" class="st4 st6 st7">3rd Duke of Gloucester</tspan><tspan x="0" y="22.4" class="st4 st8 st9">Edmund Beaufort</tspan><tspan x="0" y="36.8" class="st10 st11 st7">House of Beaufort</tspan></text>
		</g>
	</g>
	<g>
		<g id="John_25_">
			<g id="Bg_98_">
				<circle class="st4" cx="9166" cy="3181" r="50"/>
			</g>
			<text transform="matrix(1 0 0 1 9236 3165.5352)"><tspan x="0" y="0" class="st4 st6 st7">2nd Duke of Somerset</tspan><tspan x="0" y="22.4" class="st4 st8 st9">Henry Beaufort</tspan><tspan x="0" y="36.8" class="st10 st11 st7">House of Beaufort</tspan></text>
		</g>
	</g>
	<g>
		<g id="Jacquetta_20_">
			<g id="Bg_80_">
				<circle class="st4" cx="8116" cy="4321.1" r="50"/>
			</g>
			<text transform="matrix(1 0 0 1 8186 4305.6602)"><tspan x="0" y="0" class="st4 st6 st7">Duchess of Richmond</tspan><tspan x="0" y="22.4" class="st4 st8 st9">Margaret Beaufort</tspan><tspan x="0" y="36.8" class="st10 st11 st7">House of Beaufort</tspan></text>
		</g>
		<g id="John_20_">
			<g id="Bg_69_">
				<circle class="st4" cx="8116" cy="4181.1" r="50"/>
			</g>
			<text transform="matrix(1 0 0 1 8186 4165.6602)"><tspan x="0" y="0" class="st4 st6 st7">Earl of Richmond</tspan><tspan x="0" y="22.4" class="st4 st8 st9">Edmund Tudor</tspan><tspan x="0" y="36.8" class="st10 st11 st7">House of Tudor</tspan></text>
		</g>
	</g>
	<g>
		<g id="Jacquetta_32_">
			<g id="Bg_132_">
				<circle class="st4" cx="11791" cy="4321" r="50"/>
			</g>
			<text transform="matrix(1 0 0 1 11861 4305.5352)"><tspan x="0" y="0" class="st4 st6 st7">Duchess of Buckingham</tspan><tspan x="0" y="22.4" class="st4 st8 st9">Catherine Woodville</tspan><tspan x="0" y="36.8" class="st10 st11 st7">House of Woodville</tspan></text>
		</g>
		<g id="John_34_">
			<g id="Bg_130_">
				<circle class="st4" cx="11791" cy="4181" r="50"/>
			</g>
			<text transform="matrix(1 0 0 1 11861 4165.5352)"><tspan x="0" y="0" class="st4 st6 st7">Duke of Bedford</tspan><tspan x="0" y="22.4" class="st4 st8 st9">Jasper Tudor</tspan><tspan x="0" y="36.8" class="st10 st11 st7">House of Tudor</tspan></text>
		</g>
	</g>
	<g>
		<g id="Jacquetta_21_">
			<g id="Bg_84_">
				<circle class="st4" cx="5491" cy="4321" r="50"/>
			</g>
			<text transform="matrix(1 0 0 1 5561 4305.5352)"><tspan x="0" y="0" class="st4 st6 st7">Duchess of Richmond</tspan><tspan x="0" y="22.4" class="st4 st8 st9">Owen Tudor</tspan><tspan x="0" y="36.8" class="st10 st11 st7">House of Tudor</tspan></text>
		</g>
		<g id="John_21_">
			<g id="Bg_79_">
				<circle class="st4" cx="5491" cy="4181" r="50"/>
			</g>
			<text transform="matrix(1 0 0 1 5561 4165.5352)"><tspan x="0" y="0" class="st4 st6 st7">Form Queen of England - Henry V f</tspan><tspan x="0" y="22.4" class="st4 st8 st9">Catherine de Valois</tspan><tspan x="0" y="36.8" class="st10 st11 st7">House of Valois </tspan></text>
		</g>
	</g>
	<g>
		<g id="Jacquetta_18_">
			<g id="Bg_76_">
				<circle class="st4" cx="6541" cy="3321" r="50"/>
			</g>
			<text transform="matrix(1 0 0 1 6611 3305.5352)"><tspan x="0" y="0" class="st4 st6 st7">Duchess of Clarence</tspan><tspan x="0" y="22.4" class="st4 st8 st9">Margaret Beauchamp</tspan><tspan x="0" y="36.8" class="st10 st11 st7">House of Beaufort</tspan></text>
		</g>
		<g id="John_19_">
			<g id="Bg_70_">
				<circle class="st4" cx="6541" cy="3181" r="50"/>
			</g>
			<text transform="matrix(1 0 0 1 6611 3165.5352)"><tspan x="0" y="0" class="st4 st6 st7">Duke of Somerset</tspan><tspan x="0" y="22.4" class="st4 st8 st9">John Beaufort</tspan><tspan x="0" y="36.8" class="st10 st11 st7">House of Beaufort</tspan></text>
		</g>
	</g>
	<g>
		<g id="Jacquetta_1_">
			<g id="Bg_3_">
				<circle class="st4" cx="766" cy="1821" r="50"/>
			</g>
			<text transform="matrix(1 0 0 1 836 1805.5352)"><tspan x="0" y="0" class="st4 st6 st7">Countess of Ulster</tspan><tspan x="0" y="22.4" class="st4 st8 st9">Elizabeth de Burgh</tspan><tspan x="0" y="36.8" class="st10 st11 st7">House of Burke</tspan></text>
		</g>
		<g id="John_2_">
			<g id="Bg_2_">
				<circle class="st4" cx="766" cy="1681" r="50"/>
			</g>
			<text transform="matrix(1 0 0 1 836 1665.5352)"><tspan x="0" y="0" class="st4 st6 st7">1st Duke of Clarence</tspan><tspan x="0" y="22.4" class="st4 st8 st9">Lionel of Antwerp</tspan><tspan x="0" y="36.8" class="st10 st11 st7">House of Plantagenet</tspan></text>
		</g>
	</g>
	<g>
		<g id="Jacquetta_3_">
			<g id="Bg_15_">
				<circle class="st4" cx="1464" cy="1321" r="50"/>
			</g>
			<text transform="matrix(1 0 0 1 1534 1305.5352)"><tspan x="0" y="0" class="st4 st6 st7">Countess of Ulster</tspan><tspan x="0" y="22.4" class="st4 st8 st9">Philippa Plantagenet</tspan><tspan x="0" y="36.8" class="st10 st11 st7">House of Plantagenet</tspan></text>
		</g>
		<g id="John_4_">
			<g id="Bg_7_">
				<circle class="st4" cx="1464" cy="1181" r="50"/>
			</g>
			<text transform="matrix(1 0 0 1 1534 1165.5352)"><tspan x="0" y="0" class="st4 st6 st7">Earl of March</tspan><tspan x="0" y="22.4" class="st4 st8 st9">Edmund Mortimer</tspan><tspan x="0" y="36.8" class="st10 st11 st7">House of Mortimer</tspan></text>
		</g>
	</g>
	<g>
		<g id="Jacquetta_8_">
			<g id="Bg_32_">
				<circle class="st4" cx="2341" cy="1321" r="50"/>
			</g>
			<text transform="matrix(1 0 0 1 2411 1305.5352)"><tspan x="0" y="0" class="st4 st6 st7">Countess of March</tspan><tspan x="0" y="22.4" class="st4 st8 st9">Eleanor Holland</tspan><tspan x="0" y="36.8" class="st10 st11 st7">House of Holland</tspan></text>
		</g>
		<g id="John_8_">
			<g id="Bg_30_">
				<circle class="st4" cx="2341" cy="1181" r="50"/>
			</g>
			<text transform="matrix(1 0 0 1 2411 1165.5352)"><tspan x="0" y="0" class="st4 st6 st7">Earl of March</tspan><tspan x="0" y="22.4" class="st4 st8 st9">Roger Mortimer</tspan><tspan x="0" y="36.8" class="st10 st11 st7">House of Mortimer</tspan></text>
		</g>
	</g>
	<g>
		<g id="Jacquetta_14_">
			<g id="Bg_54_">
				<circle class="st4" cx="4966" cy="1321" r="50"/>
			</g>
			<text transform="matrix(1 0 0 1 5036 1305.5352)"><tspan x="0" y="0" class="st4 st6 st7">Countess of March</tspan><tspan x="0" y="22.4" class="st4 st8 st9">Anne Stafford</tspan><tspan x="0" y="36.8" class="st10 st11 st7">House of Stafford</tspan></text>
		</g>
		<g id="John_13_">
			<g id="Bg_52_">
				<circle class="st4" cx="4966" cy="1181" r="50"/>
			</g>
			<text transform="matrix(1 0 0 1 5036 1165.5352)"><tspan x="0" y="0" class="st4 st6 st7">Earl of March</tspan><tspan x="0" y="22.4" class="st4 st8 st9">Edmund Mortimer</tspan><tspan x="0" y="36.8" class="st10 st11 st7">House of Mortimer</tspan></text>
		</g>
	</g>
	<g>
		<g id="Jacquetta_23_">
			<g id="Bg_92_">
				<circle class="st4" cx="8641" cy="1321" r="50"/>
			</g>
			<text transform="matrix(1 0 0 1 8711 1305.5352)"><tspan x="0" y="0" class="st4 st6 st7">Countess of Salisbury</tspan><tspan x="0" y="22.4" class="st4 st8 st9">Alice Montacute</tspan><tspan x="0" y="36.8" class="st10 st11 st7">House of Montagu / House of Neville</tspan></text>
		</g>
		<g id="John_23_">
			<g id="Bg_90_">
				<circle class="st4" cx="8641" cy="1181" r="50"/>
			</g>
			<text transform="matrix(1 0 0 1 8711 1165.5352)"><tspan x="0" y="0" class="st4 st6 st7">Earl of Salisbury</tspan><tspan x="0" y="22.4" class="st4 st8 st9">Richard Neville</tspan><tspan x="0" y="36.8" class="st10 st11 st7">House of Neville</tspan></text>
		</g>
	</g>
	<g>
		<g id="Jacquetta_2_">
			<g id="Bg_10_">
				<circle class="st4" cx="1292" cy="1821" r="50"/>
			</g>
			<text transform="matrix(1 0 0 1 1362 1805.5352)"><tspan x="0" y="0" class="st4 st6 st7">Princess of Wales</tspan><tspan x="0" y="22.4" class="st4 st8 st9">Joan of Kent</tspan><tspan x="0" y="36.8" class="st10 st11 st7">House of Plantagenet</tspan></text>
		</g>
		<g id="John_3_">
			<g id="Bg_4_">
				<circle class="st4" cx="1292" cy="1681" r="50"/>
			</g>
			<text transform="matrix(1 0 0 1 1362 1665.5352)"><tspan x="0" y="0" class="st4 st6 st7">The Black Prince</tspan><tspan x="0" y="22.4" class="st4 st8 st9">Edward, Prince of Wales</tspan><tspan x="0" y="36.8" class="st10 st11 st7">House of Plantagenet</tspan></text>
		</g>
	</g>
	<g>
		<g id="Jacquetta_4_">
			<g id="Bg_18_">
				<circle class="st4" cx="1816" cy="1821" r="50"/>
			</g>
			<text transform="matrix(1 0 0 1 1886 1805.5352)"><tspan x="0" y="0" class="st4 st6 st7">Duchess of Gloucester</tspan><tspan x="0" y="22.4" class="st4 st8 st9">Eleanor de Bohun</tspan><tspan x="0" y="36.8" class="st10 st11 st7">House of Plantagenet</tspan></text>
		</g>
		<g id="John_5_">
			<g id="Bg_8_">
				<circle class="st4" cx="1816" cy="1681" r="50"/>
			</g>
			<text transform="matrix(1 0 0 1 1886 1665.5352)"><tspan x="0" y="0" class="st4 st6 st7">Duke of Gloucester</tspan><tspan x="0" y="22.4" class="st4 st8 st9">Thomas of Woodstock</tspan><tspan x="0" y="36.8" class="st10 st11 st7">House of Plantagenet</tspan></text>
		</g>
	</g>
	<g>
		<g id="Jacquetta_7_">
			<g id="Bg_28_">
				<circle class="st4" cx="2866" cy="1821" r="50"/>
			</g>
			<text transform="matrix(1 0 0 1 2936 1805.5352)"><tspan x="0" y="0" class="st4 st6 st7">Duchess of York</tspan><tspan x="0" y="22.4" class="st4 st8 st9">Isabella of Castile</tspan><tspan x="0" y="36.8" class="st10 st11 st7">House of Ivrea Burgundy</tspan></text>
		</g>
		<g id="John_7_">
			<g id="Bg_26_">
				<circle class="st4" cx="2866" cy="1681" r="50"/>
			</g>
			<text transform="matrix(1 0 0 1 2936 1665.5352)"><tspan x="0" y="0" class="st4 st6 st7">1st Duke of York</tspan><tspan x="0" y="22.4" class="st4 st8 st9">Edmund of Langley</tspan><tspan x="0" y="36.8" class="st10 st11 st7">House of Plantagenet</tspan></text>
		</g>
	</g>
	<g>
		<g id="Jacquetta_13_">
			<g id="Bg_50_">
				<circle class="st4" cx="4441" cy="1821" r="50"/>
			</g>
			<text transform="matrix(1 0 0 1 4511 1805.5352)"><tspan x="0" y="0" class="st4 st6 st7">Countess of Cambridge </tspan><tspan x="0" y="22.4" class="st4 st8 st9">Ann Mortimer</tspan><tspan x="0" y="36.8" class="st10 st11 st7">House of Mortimer</tspan></text>
		</g>
		<g id="John_12_">
			<g id="Bg_48_">
				<circle class="st4" cx="4441" cy="1681" r="50"/>
			</g>
			<text transform="matrix(1 0 0 1 4511 1665.5352)"><tspan x="0" y="0" class="st4 st6 st7">Earl of Cambridge</tspan><tspan x="0" y="22.4" class="st4 st8 st9">Richard of Conisburgh</tspan><tspan x="0" y="36.8" class="st10 st11 st7">House of York</tspan></text>
		</g>
	</g>
	<g>
		<g id="Jacquetta_22_">
			<g id="Bg_88_">
				<circle class="st4" cx="8641" cy="1821" r="50"/>
			</g>
			<text transform="matrix(1 0 0 1 8711 1805.5352)"><tspan x="0" y="0" class="st4 st6 st7">Countess of York</tspan><tspan x="0" y="22.4" class="st4 st8 st9">Cecily Neville</tspan><tspan x="0" y="36.8" class="st10 st11 st7">House of Neville</tspan></text>
		</g>
		<g id="John_22_">
			<g id="Bg_86_">
				<circle class="st4" cx="8641" cy="1681" r="50"/>
			</g>
			<text transform="matrix(1 0 0 1 8711 1665.5352)"><tspan x="0" y="0" class="st4 st6 st7">Duke of York / Lord Protector of England</tspan><tspan x="0" y="22.4" class="st4 st8 st9">Richard Plantagenet</tspan><tspan x="0" y="36.8" class="st10 st11 st7">House of York</tspan></text>
		</g>
	</g>
	<g>
		<g id="Jacquetta_24_">
			<g id="Bg_96_">
				<circle class="st4" cx="9691" cy="1821" r="50"/>
			</g>
			<text transform="matrix(1 0 0 1 9761 1805.5352)"><tspan x="0" y="0" class="st4 st6 st7">Countess of Warwick</tspan><tspan x="0" y="22.4" class="st4 st8 st9">Anne Beauchamp</tspan><tspan x="0" y="36.8" class="st10 st11 st7">House of Beauchamp</tspan></text>
		</g>
		<g id="John_24_">
			<g id="Bg_94_">
				<circle class="st4" cx="9691" cy="1681" r="50"/>
			</g>
			<text transform="matrix(1 0 0 1 9761 1665.5352)"><tspan x="0" y="0" class="st4 st6 st7">Earl of Warwick - The King Maker</tspan><tspan x="0" y="22.4" class="st4 st8 st9">Richard Neville</tspan><tspan x="0" y="36.8" class="st10 st11 st7">House of Neville</tspan></text>
		</g>
	</g>
	<g>
		<g id="Jacquetta_15_">
			<g id="Bg_58_">
				<circle class="st4" cx="4966" cy="2321" r="50"/>
			</g>
			<text transform="matrix(1 0 0 1 5036 2305.5352)"><tspan x="0" y="0" class="st4 st6 st7">Countess of Somerset</tspan><tspan x="0" y="22.4" class="st4 st8 st9">Margaret of Holland</tspan><tspan x="0" y="36.8" class="st10 st11 st7">* See John Beaufort / 2nd Marriage</tspan></text>
		</g>
		<g id="John_14_">
			<g id="Bg_56_">
				<circle class="st4" cx="4966" cy="2181" r="50"/>
			</g>
			<text transform="matrix(1 0 0 1 5036 2165.5352)"><tspan x="0" y="0" class="st4 st6 st7">1st Duke of Clarence</tspan><tspan x="0" y="22.4" class="st4 st8 st9">Thomas of Lancaster</tspan><tspan x="0" y="36.8" class="st10 st11 st7">House of Lancaster</tspan></text>
		</g>
	</g>
	<g>
		<g id="Jacquetta_16_">
			<g id="Bg_62_">
				<circle class="st4" cx="5491" cy="2321" r="50"/>
			</g>
			<text transform="matrix(1 0 0 1 5561 2305.5352)"><tspan x="0" y="0" class="st4 st6 st7">Queen of England</tspan><tspan x="0" y="22.4" class="st4 st8 st9">Catherine de Valois</tspan><tspan x="0" y="36.8" class="st10 st11 st7">House of Valois - French Princess</tspan></text>
		</g>
		<g id="John_15_">
			<g id="Bg_57_">
				<circle class="st4" cx="5491" cy="2181" r="50"/>
			</g>
			<text transform="matrix(1 0 0 1 5561 2165.5352)"><tspan x="0" y="0" class="st4 st6 st7">King of England</tspan><tspan x="0" y="22.4" class="st4 st8 st9">Henry V</tspan><tspan x="0" y="36.8" class="st10 st11 st7">House of Lancaster</tspan></text>
		</g>
	</g>
	<g>
		<g id="Jacquetta_10_">
			<g id="Bg_40_">
				<circle class="st4" cx="3391" cy="3321" r="50"/>
			</g>
			<text transform="matrix(1 0 0 1 3461 3305.5352)"><tspan x="0" y="0" class="st4 st6 st7">Duchess of Somerset</tspan><tspan x="0" y="22.4" class="st4 st8 st9">Margaret Holland</tspan><tspan x="0" y="36.8" class="st10 st11 st7">House of Beaufort</tspan></text>
		</g>
		<g id="John_10_">
			<g id="Bg_11_">
				<circle class="st4" cx="3391" cy="3181" r="50"/>
			</g>
			<text transform="matrix(1 0 0 1 3461 3165.5352)"><tspan x="0" y="0" class="st4 st6 st7">Marquess of Somerset</tspan><tspan x="0" y="22.4" class="st4 st8 st9">John Beaufort</tspan><tspan x="0" y="36.8" class="st10 st11 st7">House of Beaufort</tspan></text>
		</g>
	</g>
	<g>
		<g id="Jacquetta_9_">
			<g id="Bg_36_">
				<circle class="st4" cx="2866" cy="2821" r="50"/>
			</g>
			<text transform="matrix(1 0 0 1 2936 2805.5352)"><tspan x="0" y="0" class="st4 st6 st7">Queen consort of England</tspan><tspan x="0" y="22.4" class="st4 st8 st9">Isabella</tspan><tspan x="0" y="36.8" class="st10 st11 st7">House of Valois - French Princess</tspan></text>
		</g>
		<g id="John_9_">
			<g id="Bg_34_">
				<circle class="st4" cx="2866" cy="2681" r="50"/>
			</g>
			<text transform="matrix(1 0 0 1 2936 2665.5352)"><tspan x="0" y="0" class="st4 st6 st7">King of England</tspan><tspan x="0" y="22.4" class="st4 st8 st9">Richard II</tspan><tspan x="0" y="36.8" class="st10 st11 st7">House of Plantagenet</tspan></text>
		</g>
	</g>
	<path class="st5" d="M10043,2926h-447.4c-5.5,0-10-4.5-10-10v-330c0-5.5,4.5-10,10-10h447.4c5.5,0,10,4.5,10,10v330
		C10053,2921.5,10048.5,2926,10043,2926z"/>
	<g>
		<g id="Jacquetta_26_">
			<g id="Bg_106_">
				<circle class="st4" cx="9692" cy="2821" r="50"/>
			</g>
			<text transform="matrix(1 0 0 1 9762 2805.5352)"><tspan x="0" y="0" class="st4 st6 st7">Queen of England</tspan><tspan x="0" y="22.4" class="st4 st8 st9">Margaret of Anjou</tspan><tspan x="0" y="36.8" class="st10 st11 st7">House of Valois - Anjou</tspan></text>
		</g>
		<g id="John_27_">
			<g id="Bg_104_">
				<circle class="st4" cx="9692" cy="2681" r="50"/>
			</g>
			<text transform="matrix(1 0 0 1 9762 2665.5352)"><tspan x="0" y="0" class="st4 st6 st7">King of England</tspan><tspan x="0" y="22.4" class="st4 st8 st9">Henry VI</tspan><tspan x="0" y="36.8" class="st10 st11 st7">House of Lancaster</tspan></text>
		</g>
	</g>
	<g>
		<g id="Jacquetta_30_">
			<g id="Bg_122_">
				<circle class="st4" cx="10741" cy="2821" r="50"/>
			</g>
			<text transform="matrix(1 0 0 1 10811 2805.5352)"><tspan x="0" y="0" class="st4 st6 st7">Prince of England / Duke of York</tspan><tspan x="0" y="22.4" class="st4 st8 st9">Richard</tspan><tspan x="0" y="36.8" class="st10 st11 st7">House of York</tspan></text>
		</g>
		<g id="John_31_">
			<g id="Bg_120_">
				<circle class="st4" cx="10741" cy="2681" r="50"/>
			</g>
			<text transform="matrix(1 0 0 1 10811 2665.5352)"><tspan x="0" y="0" class="st4 st6 st7">King of England</tspan><tspan x="0" y="22.4" class="st4 st8 st9">Edward V</tspan><tspan x="0" y="36.8" class="st10 st11 st7">House of York</tspan></text>
		</g>
	</g>
	<path class="st5" d="M12725,3446h-522c-5.5,0-10-4.5-10-10v-330c0-5.5,4.5-10,10-10h522c5.5,0,10,4.5,10,10v330
		C12735,3441.5,12730.5,3446,12725,3446z"/>
	<g>
		<g id="Jacquetta_31_">
			<g id="Bg_128_">
				<circle class="st4" cx="12317" cy="3346" r="50"/>
			</g>
			<text transform="matrix(1 0 0 1 12387 3330.5352)"><tspan x="0" y="0" class="st4 st6 st7">King of England</tspan><tspan x="0" y="22.4" class="st4 st8 st9">Henry VII</tspan><tspan x="0" y="36.8" class="st10 st11 st7">House of Tudor</tspan></text>
		</g>
		<g id="John_33_">
			<g id="Bg_125_">
				<circle class="st4" cx="12317" cy="3206" r="50"/>
			</g>
			<text transform="matrix(1 0 0 1 12387 3190.5352)"><tspan x="0" y="0" class="st4 st6 st7">Queen of England</tspan><tspan x="0" y="22.4" class="st4 st8 st9">Elizabeth of York</tspan><tspan x="0" y="36.8" class="st10 st11 st7">House of York</tspan></text>
		</g>
	</g>
	<g>
		<g id="Jacquetta_5_">
			<g id="Bg_22_">
				<circle class="st4" cx="2341" cy="1821" r="50"/>
			</g>
			<text transform="matrix(1 0 0 1 2411 1805.5352)"><tspan x="0" y="0" class="st4 st6 st7">Duchess of Lancaster</tspan><tspan x="0" y="22.4" class="st4 st8 st9">Blanche of Lancaster</tspan><tspan x="0" y="36.8" class="st10 st11 st7">House of Plantagenet</tspan></text>
		</g>
		<g id="Jacquetta_6_">
			<g id="Bg_24_">
				<circle class="st4" cx="2341" cy="1681" r="50"/>
			</g>
			<text transform="matrix(1 0 0 1 2411 1665.5352)"><tspan x="0" y="0" class="st4 st6 st7">1st Duke of Lancaster</tspan><tspan x="0" y="22.4" class="st4 st8 st9">John of Gaunt</tspan><tspan x="0" y="36.8" class="st10 st11 st7">House of Plantagenet</tspan></text>
		</g>
		<g id="John_6_">
			<g id="Bg_20_">
				<circle class="st4" cx="2341" cy="1961" r="50"/>
			</g>
			<text transform="matrix(1 0 0 1 2411 1945.5352)"><tspan x="0" y="0" class="st4 st6 st7">Duchess of Lancaster</tspan><tspan x="0" y="22.4" class="st4 st8 st9">Katherine Swynford</tspan><tspan x="0" y="36.8" class="st10 st11 st7">House of Plantagenet</tspan></text>
		</g>
	</g>
	<g>
		<g id="Jacquetta_12_">
			<g id="Bg_46_">
				<circle class="st4" cx="3916" cy="2321" r="50"/>
			</g>
			<text transform="matrix(1 0 0 1 3986 2305.5352)"><tspan x="0" y="0" class="st4 st6 st7">Queen of England</tspan><tspan x="0" y="22.4" class="st4 st8 st9">Mary de Bohun</tspan><tspan x="0" y="36.8" class="st10 st11 st7">House of Lancaster</tspan></text>
		</g>
		<g id="Jacquetta_11_">
			<g id="Bg_44_">
				<circle class="st4" cx="3916" cy="2181" r="50"/>
			</g>
			<text transform="matrix(1 0 0 1 3986 2165.5352)"><tspan x="0" y="0" class="st4 st6 st7">King of England</tspan><tspan x="0" y="22.4" class="st4 st8 st9">Henry IV, Bolingbroke</tspan><tspan x="0" y="36.8" class="st10 st11 st7">House of Plantagenet</tspan></text>
		</g>
		<g id="John_11_">
			<g id="Bg_42_">
				<circle class="st4" cx="3916" cy="2461" r="50"/>
			</g>
			<text transform="matrix(1 0 0 1 3986 2445.5352)"><tspan x="0" y="0" class="st4 st6 st7">Queen of England</tspan><tspan x="0" y="22.4" class="st4 st8 st9">Joan of Navarre</tspan><tspan x="0" y="36.8" class="st10 st11 st7">House of Évreux</tspan></text>
		</g>
	</g>
	<polyline class="st13" points="1130,1865 1160,1865 1160,1627 1130,1627 	"/>
	<polyline class="st13" points="1786,1370 1816,1370 1816,1132 1786,1132 	"/>
	<polyline class="st13" points="1160,1627 1160,1321 1394,1321 	"/>
	<polyline class="st13" points="1655,1865 1685,1865 1685,1627 1655,1627 	"/>
	<polyline class="st13" points="1685,1865 1685,2681 2796,2681 	"/>
	<polyline class="st13" points="2180,1865 2210,1865 2210,1627 2180,1627 	"/>
	<line class="st13" x1="2210" y1="1865" x2="2210" y2="2181"/>
	<text transform="matrix(1 0 0 1 1242.1577 5026.7002)" class="st4 st14 st15">1376</text>
	<text transform="matrix(1 0 0 1 716.1577 5026.7002)" class="st4 st14 st15">1368</text>
	<text transform="matrix(1 0 0 1 1766.1577 5026.7002)" class="st4 st14 st15">1397</text>
	<text transform="matrix(1 0 0 1 2291.1577 5026.7002)" class="st4 st14 st15">1399</text>
	<text transform="matrix(1 0 0 1 2816.1577 5026.7002)" class="st4 st14 st15">1402</text>
	<text transform="matrix(1 0 0 1 3341.1577 5026.7002)" class="st4 st14 st15">1410</text>
	<text transform="matrix(1 0 0 1 3866.1577 5026.7002)" class="st4 st14 st15">1413</text>
	<text transform="matrix(1 0 0 1 4391.1577 5026.7002)" class="st4 st14 st15">1415 - Battle of Agincourt</text>
	<text transform="matrix(1 0 0 1 4916.1577 5026.7002)" class="st4 st14 st15">1421</text>
	<text transform="matrix(1 0 0 1 6491.1577 5026.7002)" class="st4 st14 st15">1444</text>
	<text transform="matrix(1 0 0 1 7016.1577 5026.7002)" class="st4 st14 st15">1447</text>
	<text transform="matrix(1 0 0 1 7541.1577 5026.7002)" class="st4 st14 st15">1455</text>
	<text transform="matrix(1 0 0 1 7377.1577 5151.7002)" class="st4 st14 st15">1453</text>
	<text transform="matrix(1 0 0 1 522.1577 5151.7002)" class="st4 st14 st15">1337</text>
	<text transform="matrix(1 0 0 1 8066.1577 5026.7002)" class="st4 st14 st15">1456</text>
	<text transform="matrix(1 0 0 1 8591.1582 5026.7002)" class="st4 st14 st15">1460</text>
	<text transform="matrix(1 0 0 1 9116.1582 5026.7002)" class="st4 st14 st15">1464</text>
	<text transform="matrix(1 0 0 1 9641.1582 5026.7002)"><tspan x="0" y="0" class="st4 st14 st15">1471 - Battle of Tewkesbury</tspan><tspan x="0" y="43.2" class="st4 st14 st15 st16">		</tspan><tspan x="72" y="43.2" class="st4 st14 st15">   Battle of Barnet</tspan></text>
	<text transform="matrix(1 0 0 1 12267.1582 5026.7002)" class="st4 st14 st15">1509</text>
	<text transform="matrix(1 0 0 1 11741.1582 5026.7002)" class="st4 st14 st15">1495</text>
	<text transform="matrix(1 0 0 1 10691.1582 5026.7002)" class="st4 st14 st15">1483</text>
	<text transform="matrix(1 0 0 1 10166.1582 5026.7002)" class="st4 st14 st15">1478</text>
	<text transform="matrix(1 0 0 1 11216.1582 5026.7002)" class="st4 st14 st15">1485 - Battle of Bosworth</text>
	<text transform="matrix(1 0 0 1 5966.1577 5026.7002)" class="st4 st14 st15">1435</text>
	<text transform="matrix(1 0 0 1 5441.1577 5026.7002)" class="st4 st14 st15">1422</text>
	<text transform="matrix(1 0 0 1 1414.1577 1413.7002)" class="st4 st14 st17">1381</text>
	<text transform="matrix(1 0 0 1 2291.1577 1413.7002)" class="st4 st14 st17">1398</text>
	<text transform="matrix(1 0 0 1 10741.1465 2927.7002)" class="st4 st14 st17">“The Princes in the Tower”</text>
	<text transform="matrix(1 0 0 1 2083 2216.4099)"><tspan x="0" y="0" class="st4 st8 st9">Dukes of Buckingham</tspan><tspan x="0" y="14.4" class="st10 st11 st7">House of Stafford</tspan></text>
	<line class="st13" x1="1816" y1="1181" x2="2271" y2="1181"/>
	<g>
		<g>
			<line class="st13" x1="2705" y1="1370" x2="2707" y2="1370"/>
			<line class="st18" x1="2710.7" y1="1370" x2="2731.1" y2="1370"/>
			<polyline class="st13" points="2733,1370 2735,1370 2735,1368 			"/>
			<line class="st19" x1="2735" y1="1364" x2="2735" y2="1136"/>
			<polyline class="st13" points="2735,1134 2735,1132 2733,1132 			"/>
			<line class="st18" x1="2729.3" y1="1132" x2="2708.9" y2="1132"/>
			<line class="st13" x1="2707" y1="1132" x2="2705" y2="1132"/>
		</g>
	</g>
	<polyline class="st13" points="2705,1870 2735,1870 2735,1632 2708,1632 	"/>
	<g>
		<g>
			<line class="st13" x1="2675" y1="2010" x2="2677" y2="2010"/>
			<line class="st18" x1="2680.7" y1="2010" x2="2701.1" y2="2010"/>
			<polyline class="st13" points="2703,2010 2705,2010 2705,2008 			"/>
			<line class="st20" x1="2705" y1="2004" x2="2705" y2="1636"/>
			<polyline class="st13" points="2705,1634 2705,1632 2703,1632 			"/>
			<line class="st18" x1="2699.3" y1="1632" x2="2678.9" y2="1632"/>
			<line class="st13" x1="2677" y1="1632" x2="2675" y2="1632"/>
		</g>
	</g>
	<g>
		<g>
			<line class="st13" x1="2735" y1="1181" x2="2737" y2="1181"/>
			<line class="st21" x1="2741" y1="1181" x2="4892" y2="1181"/>
			<line class="st13" x1="4894" y1="1181" x2="4896" y2="1181"/>
		</g>
	</g>
	<g>
		<g>
			<line class="st13" x1="9005" y1="1370" x2="9007" y2="1370"/>
			<line class="st18" x1="9010.7" y1="1370" x2="9031.1" y2="1370"/>
			<polyline class="st13" points="9033,1370 9035,1370 9035,1368 			"/>
			<line class="st19" x1="9035" y1="1364" x2="9035" y2="1136"/>
			<polyline class="st13" points="9035,1134 9035,1132 9033,1132 			"/>
			<line class="st18" x1="9029.3" y1="1132" x2="9008.9" y2="1132"/>
			<line class="st13" x1="9007" y1="1132" x2="9005" y2="1132"/>
		</g>
	</g>
	<polyline class="st13" points="9005,1870 9035,1870 9035,1632 9005,1632 	"/>
	<g>
		<g>
			<line class="st13" x1="9691" y1="1501" x2="9691" y2="1503"/>
			<line class="st22" x1="9691" y1="1506.9" x2="9691" y2="1607"/>
			<line class="st13" x1="9691" y1="1609" x2="9691" y2="1611"/>
		</g>
	</g>
	<polyline class="st13" points="11266,2251 9035,2251 9035,1870 	"/>
	<polyline class="st13" points="11632,2370 11662,2370 11662,2132 11632,2132 	"/>
	<polyline class="st13" points="11632,2681 11662,2681 11662,2370 	"/>
	<polyline class="st13" points="11089,2370 11119,2370 11119,2132 11089,2132 	"/>
	<polyline class="st13" points="11089,2681 11119,2681 11119,2370 	"/>
	<polyline class="st13" points="12247,3206 11119,3206 11119,2821 	"/>
	<polyline class="st13" points="11089,2821 11119,2821 11119,2681 	"/>
	<polyline class="st13" points="4804,1870 4834,1870 4834,1632 4804,1632 	"/>
	<line class="st13" x1="4834" y1="1681" x2="8571" y2="1681"/>
	<polyline class="st13" points="8480,4370 8510,4370 8510,4132 8480,4132 	"/>
	<polyline class="st13" points="8509.5,4182.5 11119,4182.5 11119,3346 12247,3346 	"/>
	<polyline class="st13" points="3230,1870 3260,1870 3260,1632 3230,1632 	"/>
	<line class="st13" x1="3260" y1="1681" x2="4371" y2="1681"/>
	<g>
		<g>
			<line class="st13" x1="3754" y1="3370" x2="3756" y2="3370"/>
			<line class="st18" x1="3759.7" y1="3370" x2="3780.1" y2="3370"/>
			<polyline class="st13" points="3782,3370 3784,3370 3784,3368 			"/>
			<line class="st19" x1="3784" y1="3364" x2="3784" y2="3136"/>
			<polyline class="st13" points="3784,3134 3784,3132 3782,3132 			"/>
			<line class="st18" x1="3778.3" y1="3132" x2="3757.9" y2="3132"/>
			<line class="st13" x1="3756" y1="3132" x2="3754" y2="3132"/>
		</g>
	</g>
	<g>
		<g>
			<line class="st13" x1="3784" y1="3251" x2="3786" y2="3251"/>
			<line class="st23" x1="3790" y1="3251" x2="7587" y2="3251"/>
			<line class="st13" x1="7589" y1="3251" x2="7591" y2="3251"/>
		</g>
	</g>
	<g>
		<g>
			<line class="st13" x1="5855" y1="4370" x2="5857" y2="4370"/>
			<line class="st18" x1="5860.7" y1="4370" x2="5881.1" y2="4370"/>
			<polyline class="st13" points="5883,4370 5885,4370 5885,4368 			"/>
			<line class="st19" x1="5885" y1="4364" x2="5885" y2="4136"/>
			<polyline class="st13" points="5885,4134 5885,4132 5883,4132 			"/>
			<line class="st18" x1="5879.3" y1="4132" x2="5858.9" y2="4132"/>
			<line class="st13" x1="5857" y1="4132" x2="5855" y2="4132"/>
		</g>
	</g>
	<g>
		<g>
			<line class="st13" x1="5885" y1="4251" x2="5887" y2="4251"/>
			<line class="st24" x1="5891" y1="4251" x2="11787" y2="4251"/>
			<line class="st13" x1="11789" y1="4251" x2="11791" y2="4251"/>
		</g>
	</g>
	<polyline class="st13" points="7955,3370 7985,3370 7985,3132 7955,3132 	"/>
	<line class="st13" x1="7985" y1="3251" x2="9691" y2="3251"/>
	<polyline class="st13" points="4280,2370 4310,2370 4310,2132 4280,2132 	"/>
	<line class="st13" x1="4310" y1="2251" x2="7066" y2="2251"/>
	<polyline class="st13" points="5855,2370 5885,2370 5885,2132 5855,2132 	"/>
	<polyline class="st13" points="9622,2681 5885,2681 5885,2370 	"/>
	<polyline class="st13" points="6906,3370 6936,3370 6936,3132 6906,3132 	"/>
	<polyline class="st13" points="8045,4321 6936,4321 6936,3370 	"/>
	<g>
		<g>
			<line class="st13" x1="6444" y1="2370" x2="6446" y2="2370"/>
			<line class="st18" x1="6449.7" y1="2370" x2="6470.1" y2="2370"/>
			<polyline class="st13" points="6472,2370 6474,2370 6474,2368 			"/>
			<line class="st19" x1="6474" y1="2364" x2="6474" y2="2136"/>
			<polyline class="st13" points="6474,2134 6474,2132 6472,2132 			"/>
			<line class="st18" x1="6468.3" y1="2132" x2="6447.9" y2="2132"/>
			<line class="st13" x1="6446" y1="2132" x2="6444" y2="2132"/>
		</g>
	</g>
	<g>
		<g>
			<line class="st13" x1="6474" y1="2370" x2="6474" y2="2372"/>
			<line class="st25" x1="6474" y1="2375.9" x2="6474" y2="2421"/>
			<polyline class="st13" points="6474,2423 6474,2425 6476,2425 			"/>
			<line class="st26" x1="6480" y1="2425" x2="10738" y2="2425"/>
			<line class="st13" x1="10740" y1="2425" x2="10742" y2="2425"/>
		</g>
	</g>
	<path class="st10" d="M2705,2010"/>
	<g>
		<g>
			<line class="st13" x1="2705" y1="2010" x2="2705" y2="2012"/>
			<line class="st27" x1="2705" y1="2016" x2="2705" y2="3177"/>
			<polyline class="st13" points="2705,3179 2705,3181 2707,3181 			"/>
			<line class="st28" x1="2711" y1="3181" x2="3317" y2="3181"/>
			<line class="st13" x1="3319" y1="3181" x2="3321" y2="3181"/>
		</g>
	</g>
	<g>
		<g>
			<line class="st13" x1="2705" y1="3181" x2="2705" y2="3183"/>
			<line class="st29" x1="2705" y1="3187" x2="2705" y2="3677"/>
			<polyline class="st13" points="2705,3679 2705,3681 2707,3681 			"/>
			<line class="st30" x1="2711" y1="3681" x2="6992" y2="3681"/>
			<line class="st13" x1="6994" y1="3681" x2="6996" y2="3681"/>
		</g>
	</g>
	<polyline class="st13" points="2735,1870 2735,2181 3846.2,2181 	"/>
	<g>
		<g>
			<line class="st13" x1="4128.5" y1="1181" x2="4128.5" y2="1183"/>
			<line class="st28" x1="4128.5" y1="1187" x2="4128.5" y2="1817"/>
			<polyline class="st13" points="4128.5,1819 4128.5,1821 4130.5,1821 			"/>
			<line class="st31" x1="4134.5" y1="1821" x2="4367" y2="1821"/>
			<line class="st13" x1="4369" y1="1821" x2="4371" y2="1821"/>
		</g>
	</g>
	<line class="st13" x1="4966" y1="2250" x2="4966" y2="2240"/>
	<line class="st13" x1="5491" y1="2250" x2="5491" y2="2240"/>
	<line class="st13" x1="6016" y1="2250" x2="6016" y2="2240"/>
	<line class="st13" x1="7066" y1="2252" x2="7066" y2="2240"/>
	<line class="st13" x1="7591" y1="3252" x2="7591" y2="3240"/>
	<line class="st13" x1="6541" y1="3252" x2="6541" y2="3240"/>
	<line class="st13" x1="9166" y1="3250" x2="9166" y2="3240"/>
	<line class="st13" x1="9691" y1="3250" x2="9691" y2="3240"/>
	<line class="st13" x1="9691" y1="3262" x2="9691" y2="3250"/>
	<g>
		<g>
			<line class="st13" x1="9691" y1="1501" x2="9689" y2="1501"/>
			<line class="st32" x1="9685" y1="1501" x2="8476" y2="1501"/>
			<polyline class="st13" points="8474,1501 8472,1501 8472,1503 			"/>
			<line class="st28" x1="8472" y1="1507" x2="8472" y2="1817"/>
			<polyline class="st13" points="8472,1819 8472,1821 8474,1821 			"/>
			<line class="st33" x1="8478.1" y1="1821" x2="8566.9" y2="1821"/>
			<line class="st13" x1="8569" y1="1821" x2="8571" y2="1821"/>
		</g>
	</g>
	<g>
		<g>
			<line class="st13" x1="9035" y1="1370" x2="9035" y2="1372"/>
			<line class="st34" x1="9035" y1="1376.1" x2="9035" y2="1497"/>
			<line class="st13" x1="9035" y1="1499" x2="9035" y2="1501"/>
		</g>
	</g>
	<g>
		<g>
			<g>
				<line class="st13" x1="10055" y1="1870" x2="10057" y2="1870"/>
				<line class="st18" x1="10060.7" y1="1870" x2="10081.1" y2="1870"/>
				<polyline class="st13" points="10083,1870 10085,1870 10085,1868 				"/>
				<line class="st19" x1="10085" y1="1864" x2="10085" y2="1636"/>
				<polyline class="st13" points="10085,1634 10085,1632 10083,1632 				"/>
				<line class="st18" x1="10079.3" y1="1632" x2="10058.9" y2="1632"/>
				<line class="st13" x1="10057" y1="1632" x2="10055" y2="1632"/>
			</g>
		</g>
		<g>
			<g>
				<line class="st13" x1="10085" y1="1870" x2="10085" y2="1872"/>
				<line class="st34" x1="10085" y1="1876.1" x2="10085" y2="1997"/>
				<polyline class="st13" points="10085,1999 10085,2001 10087,2001 				"/>
				<line class="st28" x1="10091" y1="2001" x2="11737" y2="2001"/>
				<polyline class="st13" points="11739,2001 11741,2001 11741,2003 				"/>
				<line class="st28" x1="11741" y1="2007" x2="11741" y2="2317"/>
				<polyline class="st13" points="11741,2319 11741,2321 11739,2321 				"/>
				<line class="st19" x1="11735" y1="2321" x2="11507" y2="2321"/>
				<line class="st13" x1="11505" y1="2321" x2="11503" y2="2321"/>
			</g>
		</g>
	</g>
	<line class="st13" x1="10741" y1="2250" x2="10741" y2="2238"/>
	<line class="st13" x1="10216" y1="2250" x2="10216" y2="2238"/>
	<line class="st13" x1="11266" y1="2252" x2="11266" y2="2238"/>
	<polyline class="st35" points="10085,2001 10085,2321 10146,2321 	"/>
	<line class="st13" x1="10741" y1="2424" x2="10741" y2="2414"/>
	<g id="John_32_">
		<g id="Bg_124_">
			<circle class="st4" cx="11266" cy="2681" r="50"/>
		</g>
		<text transform="matrix(1 0 0 1 11336 2665.5352)"><tspan x="0" y="0" class="st4 st6 st7">Prince of Wales</tspan><tspan x="0" y="22.4" class="st4 st8 st9">Edward of Middleton</tspan><tspan x="0" y="36.8" class="st10 st11 st7">House of York</tspan></text>
	</g>
	<line class="st13" x1="8116" y1="4250" x2="8116" y2="4240"/>
	<line class="st13" x1="11790" y1="4250" x2="11790" y2="4240"/>
	<line class="st13" x1="5491" y1="2426" x2="5491" y2="4131"/>
	<g>
		<g>
			<line class="st36" x1="628" y1="5142" x2="634" y2="5142"/>
			<line class="st37" x1="646" y1="5142" x2="7336" y2="5142"/>
			<line class="st36" x1="7342" y1="5142" x2="7348" y2="5142"/>
		</g>
	</g>
	<text transform="matrix(1 0 0 1 1766.4216 5151.7783)" class="st6 st15">The Hundreds Years’ War</text>
	<text transform="matrix(1 0 0 1 4391.4219 5151.7783)" class="st6 st15">The Hundreds Years’ War</text>
</g>
</svg>
