<?xml version="1.0" encoding="utf-8"?>
<!-- Generator: Adobe Illustrator 19.0.0, SVG Export Plug-In . SVG Version: 6.00 Build 0)  -->
<svg version="1.1" id="Layer_1" xmlns="http://www.w3.org/2000/svg" xmlns:xlink="http://www.w3.org/1999/xlink" x="0px" y="0px"
	 width="855.3px" height="233.7px" viewBox="32 190.3 855.3 233.7" style="enable-background:new 32 190.3 855.3 233.7;"
	 xml:space="preserve">
<style type="text/css">
	.st0{fill:#D1C33A;stroke:#D1C33A;stroke-width:2;stroke-linecap:round;stroke-linejoin:round;stroke-miterlimit:10;}
	.st1{fill:#4A494A;stroke:#4A494A;stroke-width:2;stroke-linecap:round;stroke-linejoin:round;stroke-miterlimit:10;}
	.st2{fill:#F3EA19;stroke:#F1E915;stroke-width:2;stroke-linecap:round;stroke-linejoin:round;stroke-miterlimit:10;}
	.st3{fill:#333333;}
</style>
<g id="XMLID_6_">
	<g id="XMLID_40_">
		<polygon id="XMLID_5_" class="st0" points="55.2,303.3 87.5,285.2 174.1,307 141.9,324.8 		"/>
		<polyline id="XMLID_4_" class="st1" points="127.8,262.5 127.8,295.3 127.8,308.8 127.8,321.3 127.8,407.8 101.5,393 101.5,314.8 
			101.5,288.7 101.5,277.1 		"/>
		<polyline id="XMLID_3_" class="st1" points="101.6,277.2 55.2,303.3 55.2,273.4 174.2,206.5 174.2,236.4 127.8,262.5 		"/>
		<polygon id="XMLID_2_" class="st2" points="69.7,392.4 69.8,364.7 174.2,307 174.2,334.5 		"/>
	</g>
	<g id="XMLID_8_">
		<path id="XMLID_9_" class="st3" d="M306,283.2h-22v-13.6h60.4v13.6h-22.1v60.4H306V283.2z"/>
		<path id="XMLID_35_" class="st3" d="M344.2,362.1l3.4-12.4c1.5,0.4,5.3,1.4,10.1,1.4c3.5,0,5.5-1.3,6.8-4.6l1-2.6l-20.4-53.6h16.6
			l11.7,34.6h0.2l11.8-34.6H401l-22.4,58.9c-3.6,9.2-8.5,14.8-19.2,14.8C351.5,364,347,362.9,344.2,362.1z"/>
		<path id="XMLID_37_" class="st3" d="M409.6,269.6h16v74h-16V269.6z"/>
		<path id="XMLID_39_" class="st3" d="M437.5,317c0-20.7,15.8-27.8,26.8-27.8s24.5,5.5,24.5,29.7v2.4h-35.3
			c0.8,8.8,5.7,12.2,12.4,12.2c6.3,0,12.2-3.1,15.8-6.4l6.2,9.6c-6.2,5.3-13.9,8-23.2,8C450.8,344.7,437.5,337.6,437.5,317z
			 M474.4,311.8c-0.8-7.5-4.2-11.1-10.2-11.1c-5,0-9.3,3.3-10.5,11.1H474.4z"/>
		<path id="XMLID_45_" class="st3" d="M502.1,290.3h16.1v8.9h0.1c2.9-4.5,8-10,18-10h0.5l-0.2,14.3c-0.6-0.1-3.2-0.3-4.2-0.3
			c-6.4,0-11.2,3.4-14.2,7.3v33.1H502L502.1,290.3L502.1,290.3z"/>
		<path id="XMLID_47_" class="st3" d="M546.5,325.1l4.9-1.2c2.9,11,10.7,16.6,21.5,16.6c12,0,19.6-5.9,19.6-14.8
			c0-8.2-3.4-12.5-20.5-18c-16.5-5.3-23.3-9.8-23.3-21.2c0-9.9,9.2-18.3,22.2-18.3c13.6,0,21.4,7.1,24.5,17.4l-4.8,1.4
			c-3.5-10.4-10.1-14.3-19.8-14.3c-10.6,0-17.1,6.2-17.1,13.5c0,8.9,4.8,11.9,21.7,17.4c15.9,5.2,22.1,10.5,22.1,21.8
			c0,12.3-11.1,19.6-24.8,19.6C559.2,345,549.7,337.4,546.5,325.1z"/>
		<path id="XMLID_49_" class="st3" d="M618,331.9v-36.5h-9.2v-4.3h9.2V272h4.8v19.1h13.7v4.3h-13.7v35.8c0,5.6,1.9,8.8,8.5,8.8
			c2,0,4-0.2,5.5-0.7v4.5c-1.7,0.3-3.7,0.5-5.9,0.5C622.2,344.3,618,340.8,618,331.9z"/>
		<path id="XMLID_51_" class="st3" d="M645.5,317.4c0-16.9,10.1-27.4,23.1-27.4c12.9,0,23.1,10.5,23.1,27.4
			c0,16.7-10.2,27.3-23.1,27.3S645.5,334.1,645.5,317.4z M687,317.3c0-12.2-6.4-23.1-18.3-23.1c-11.3,0-18.3,10-18.3,23.1
			c0,12.3,6.3,23.2,18.3,23.2C680,340.5,687,330.6,687,317.3z"/>
		<path id="XMLID_54_" class="st3" d="M708.4,335.9v7.7h-4.8v-74h4.8V299c4.5-4.9,10-9,17.9-9c12.1,0,22,8.9,22,27.3
			s-10,27.2-22.2,27.2C718.9,344.5,713.4,340.8,708.4,335.9z M743.5,317.4c0-15.9-8.1-23.2-17.3-23.2c-7.1,0-11.9,3.4-17.8,9.4v27.3
			c5.9,6,11.2,9.4,18,9.4C735.5,340.3,743.5,333.5,743.5,317.4z"/>
		<path id="XMLID_57_" class="st3" d="M759.2,317.3c0-18.2,11.1-27.3,22.3-27.3c12.4,0,20.8,10.4,20.8,26.9v0.7H764
			c0,14.3,7.9,22.9,17.6,22.9c8.2,0,12.9-3.9,16.9-10.9l3.5,2.2c-4.3,7.9-10.5,12.9-20.7,12.9C769.5,344.7,759.2,334.6,759.2,317.3z
			 M797.2,313.6c-0.7-10.8-5.8-19.4-15.9-19.4c-8.2,0-16,6.4-17.3,19.4H797.2z"/>
		<path id="XMLID_60_" class="st3" d="M818,291.1h4.8v11h0.2c4.4-6.9,11.1-12.1,21.6-12.1h1.4l-0.8,4.5h-1.7
			c-8.9,0-16.4,5.2-20.7,14.5v34.6H818V291.1z"/>
	</g>
</g>
</svg>
