<?xml version="1.0" encoding="utf-8"?>
<!-- Generator: Adobe Illustrator 25.0.0, SVG Export Plug-In . SVG Version: 6.00 Build 0)  -->
<svg version="1.1" id="Layer_1" xmlns="http://www.w3.org/2000/svg" xmlns:xlink="http://www.w3.org/1999/xlink" x="0px" y="0px"
	 viewBox="0 0 817.5 233.7" style="enable-background:new 0 0 817.5 233.7;" xml:space="preserve">
<style type="text/css">
	.st0{fill:#565656;stroke:#565656;stroke-width:2;stroke-linecap:round;stroke-linejoin:round;stroke-miterlimit:10;}
	.st1{fill:#F3EA19;stroke:#F1E915;stroke-width:2;stroke-linecap:round;stroke-linejoin:round;stroke-miterlimit:10;}
	.st2{fill:#4A494A;stroke:#4A494A;stroke-width:2;stroke-linecap:round;stroke-linejoin:round;stroke-miterlimit:10;}
	.st3{fill:#333333;}
</style>
<g id="XMLID_6_">
	<g id="XMLID_40_">
		<polygon id="XMLID_5_" class="st0" points="23.2,113 55.5,94.9 142.1,116.7 109.9,134.5 		"/>
		<polyline id="XMLID_4_" class="st1" points="95.8,72.2 95.8,105 95.8,118.5 95.8,131 95.8,217.5 69.5,202.7 69.5,124.5 69.5,98.4 
			69.5,86.8 		"/>
		<polyline id="XMLID_3_" class="st1" points="69.6,86.9 23.2,113 23.2,83.1 142.2,16.2 142.2,46.1 95.8,72.2 		"/>
		<polygon id="XMLID_2_" class="st2" points="37.7,202.1 37.8,174.4 142.2,116.7 142.2,144.2 		"/>
	</g>
	<g id="XMLID_8_">
		<path id="XMLID_9_" class="st3" d="M239.2,92.9h-22V79.3h60.4v13.6h-22.1v60.4h-16.3V92.9z"/>
		<path id="XMLID_35_" class="st3" d="M277.4,171.8l3.4-12.4c1.5,0.4,5.3,1.4,10.1,1.4c3.5,0,5.5-1.3,6.8-4.6l1-2.6L278.3,100h16.6
			l11.7,34.6h0.2l11.8-34.6h15.6l-22.4,58.9c-3.6,9.2-8.5,14.8-19.2,14.8C284.7,173.7,280.2,172.6,277.4,171.8z"/>
		<path id="XMLID_37_" class="st3" d="M342.8,79.3h16v74h-16V79.3z"/>
		<path id="XMLID_39_" class="st3" d="M370.7,126.7c0-20.7,15.8-27.8,26.8-27.8s24.5,5.5,24.5,29.7v2.4h-35.3
			c0.8,8.8,5.7,12.2,12.4,12.2c6.3,0,12.2-3.1,15.8-6.4l6.2,9.6c-6.2,5.3-13.9,8-23.2,8C384,154.4,370.7,147.3,370.7,126.7z
			 M407.6,121.5c-0.8-7.5-4.2-11.1-10.2-11.1c-5,0-9.3,3.3-10.5,11.1H407.6z"/>
		<path id="XMLID_45_" class="st3" d="M435.3,100h16.1v8.9h0.1c2.9-4.5,8-10,18-10h0.5l-0.2,14.3c-0.6-0.1-3.2-0.3-4.2-0.3
			c-6.4,0-11.2,3.4-14.2,7.3v33.1h-16.2L435.3,100L435.3,100z"/>
		<path id="XMLID_47_" class="st3" d="M479.7,134.8l4.9-1.2c2.9,11,10.7,16.6,21.5,16.6c12,0,19.6-5.9,19.6-14.8
			c0-8.2-3.4-12.5-20.5-18c-16.5-5.3-23.3-9.8-23.3-21.2c0-9.9,9.2-18.3,22.2-18.3c13.6,0,21.4,7.1,24.5,17.4l-4.8,1.4
			c-3.5-10.4-10.1-14.3-19.8-14.3c-10.6,0-17.1,6.2-17.1,13.5c0,8.9,4.8,11.9,21.7,17.4c15.9,5.2,22.1,10.5,22.1,21.8
			c0,12.3-11.1,19.6-24.8,19.6C492.4,154.7,482.9,147.1,479.7,134.8z"/>
		<path id="XMLID_49_" class="st3" d="M551.2,141.6v-36.5H542v-4.3h9.2V81.7h4.8v19.1h13.7v4.3H556v35.8c0,5.6,1.9,8.8,8.5,8.8
			c2,0,4-0.2,5.5-0.7v4.5c-1.7,0.3-3.7,0.5-5.9,0.5C555.4,154,551.2,150.5,551.2,141.6z"/>
		<path id="XMLID_51_" class="st3" d="M578.7,127.1c0-16.9,10.1-27.4,23.1-27.4c12.9,0,23.1,10.5,23.1,27.4
			c0,16.7-10.2,27.3-23.1,27.3S578.7,143.8,578.7,127.1z M620.2,127c0-12.2-6.4-23.1-18.3-23.1c-11.3,0-18.3,10-18.3,23.1
			c0,12.3,6.3,23.2,18.3,23.2C613.2,150.2,620.2,140.3,620.2,127z"/>
		<path id="XMLID_54_" class="st3" d="M641.6,145.6v7.7h-4.8v-74h4.8v29.4c4.5-4.9,10-9,17.9-9c12.1,0,22,8.9,22,27.3
			s-10,27.2-22.2,27.2C652.1,154.2,646.6,150.5,641.6,145.6z M676.7,127.1c0-15.9-8.1-23.2-17.3-23.2c-7.1,0-11.9,3.4-17.8,9.4v27.3
			c5.9,6,11.2,9.4,18,9.4C668.7,150,676.7,143.2,676.7,127.1z"/>
		<path id="XMLID_57_" class="st3" d="M692.4,127c0-18.2,11.1-27.3,22.3-27.3c12.4,0,20.8,10.4,20.8,26.9v0.7h-38.3
			c0,14.3,7.9,22.9,17.6,22.9c8.2,0,12.9-3.9,16.9-10.9l3.5,2.2c-4.3,7.9-10.5,12.9-20.7,12.9C702.7,154.4,692.4,144.3,692.4,127z
			 M730.4,123.3c-0.7-10.8-5.8-19.4-15.9-19.4c-8.2,0-16,6.4-17.3,19.4H730.4z"/>
		<path id="XMLID_60_" class="st3" d="M751.2,100.8h4.8v11h0.2c4.4-6.9,11.1-12.1,21.6-12.1h1.4l-0.8,4.5h-1.7
			c-8.9,0-16.4,5.2-20.7,14.5v34.6h-4.8V100.8z"/>
	</g>
</g>
</svg>
