<?xml version="1.0" encoding="utf-8"?>
<!-- Generator: Adobe Illustrator 19.0.0, SVG Export Plug-In . SVG Version: 6.00 Build 0)  -->
<svg version="1.1" id="Layer_1" xmlns="http://www.w3.org/2000/svg" xmlns:xlink="http://www.w3.org/1999/xlink" x="0px" y="0px"
	 width="200px" height="200px" viewBox="0 0 200 200" style="enable-background:new 0 0 200 200;" xml:space="preserve">
<style type="text/css">
	.st0{fill:#E0E1E0;}
	.st1{enable-background:new    ;}
	.st2{fill:#1E1E1E;}
	.st3{fill:none;stroke:#1E1E1E;stroke-width:0.5;stroke-linecap:round;stroke-linejoin:round;stroke-miterlimit:10;}
</style>
<path id="XMLID_1_" class="st0" d="M176.9,8.1l-1.6,0.2l-0.8,0.2l-0.3,0.3l-0.5,0.7l-0.2,0.2L172,10l-1.1,0.7l-2.9,0.5l-13.3,6.4
	L141.3,29l-1.5,0.5l-1.4,0.9l-1,0.1l-1.3-0.7l-0.4-0.1l-0.5,0.2l-0.8,0.7l-0.5,0.2h-1.1l-5-1.2H126l-5.5,1.5l-3.2,1.8l-1.8,0.5
	l-2.8,0.1l-0.7,0.4l-0.6,0.6l-1.8,1.2l-0.8,0.3l-1.9-0.1l-1.7-0.9l-2.9-2.4l-0.4-0.2l-0.7-0.3l-0.3-0.2l-0.4-0.5l-0.3-0.5l-0.3-0.3
	l-0.4-0.2l0.5,1.2l1.7,1.5l0.9,1l-2-1.4l-1.1-0.6l-1-0.2L98,32l-0.6,0.3L97,32.4l-0.6-0.1l-0.3-0.2l-0.8-0.6l-1.7,0.3l-2.1,1.3
	l-2,0.9l-1.4-1.2l-0.4,0.4l-0.5,0.2l-0.4-0.1l-0.2-0.7l-0.4-0.1l-2.5-0.1l0.7-0.4l1.5-0.1l0.7-0.4l0.6,0.4l0.3-0.2l0.2-0.5l0.3-0.4
	l0.4-0.2l0.4-0.1l1-0.1l1.9-0.4l0.9-0.1l1,0.5l0.9-0.7l1.4-0.3l2.8-0.1l-0.3-0.9l-0.3-0.5L98,27.6l-1.6-0.2H96l-0.7,0.4L95,27.6
	l-0.3-0.4L94.5,27L94,26.1l-0.5-0.6l-0.7-0.3l0.1,0.3l-0.1,0.7L92.6,27l-0.2,0.5L91.9,28l-0.6,0.3l-1.4,0.3h-0.8L87.6,28l-0.7-0.1
	l-1.2-0.5l-2.1-2.6l-1-1h-1.1L80,23.3l-2.6-1.1l-1.1-0.8l-1.9-2.1l-1-0.6h-0.5L72,19l-0.7,0.1L70.7,19l-3.2-1l-0.2-0.4v-0.5
	c-18.3,0.7-36.7,1.4-55,2.1C11.8,66.1,11.4,113,11.1,160l2.3-1.4l0.7-0.7l0.4-0.3l0.5-0.1l0.4,0.2l0.5,0.8l0.2,0.2l0.6,0.3l2.1,2.2
	l1.8,0.2l3.6-1.6l1.8-0.4l0.9,0.5l0.6,1l0.4,1l0.5,0.4l0.8,0.1l1,0.4l1.7,0.9l0.6,0.7l0.4,0.9l0.3,1l0.1,0.9l0.2,0.7l0.5,0.6
	l0.6,0.5l0.4,0.5l0.4,0.9l0.3,0.9l0.1,1.1v1.3l0.4,0.9l0.9,0.7l4.6,1.7l0.9,0.1l3.7-0.7l1,0.1l1.7,0.8l1.8,0.5l0.6,0.8l0.6,0.9
	l0.6,0.9l2.8,2.8l1.6,1.1l1.8,0.4l0.8-0.3l0.7-0.6l0.5-0.9l0.2-1l0.5-0.3l2.9-0.9l0.9,0.1l0.9,0.4l0.8,0.5l0.7,0.7l0.4,0.2h1.5
	l0.6,0.1l1.2,0.5l0.5,0.4l0.3,0.4l1,1.6l0.5,0.6l0.3,0.1l1.5-0.3l0.5-0.4l0.6-0.4l1-0.1l1.9,0.4h0.9l0.7-0.5l0.3-0.5l0.4-1.1L82,183
	l0.3-0.3l1.1-0.4l0.6-0.6l0.6-0.7l0.7-0.6l0.9-0.3l1-0.2l2.5-1.3l1.1-0.2l0.5,0.4l0.1,0.8v1l0.1,1l1,3.5l1.2,2l1.8,1l1.9,0.7l1.6,1
	l3,3l0.4,0.7l0.7,1.7l0.4,0.6l0,0l1.5,0.7l1.8-0.2l3.5-1.3l3.1-0.3l0.7-0.3l0.6-0.9l0.3-0.9l0.9-4.6l0.5-1.1l0.6-0.5l2,0.3l0.9-0.2
	l0.6-0.9v-0.5l-0.1-0.7l-0.2-0.7l-0.4-0.9l0.1-0.5l0.3-0.8l-0.1-1.3l-0.3-0.9l-0.4-0.7l-0.3-0.9l0.1-1.2l0.7-0.6l0.8-0.5l0.5-1.2
	l0.5-0.9l0.2-0.5l0.3-2.2l0.6-1.6l1.2-2l1.4-1.8l1.3-1h1l0.8,0.5l0.6,0.6l1.3,0.5l0.6,0.6l0.4,0.8l0.2,0.8l0.1,0.3l0.1,0.3v0.4
	l-0.1,0.3l-0.2,0.1l-0.2,0.1l-0.1,0.1l-0.1,0.7l-0.2,0.3l-0.1,0.3l0.3,0.6l0.8,0.4l0.9-0.5l0.8-0.9l0.5-0.7l0.3-1.3l0.2-0.6l0.4-0.3
	l0.5,0.2l0.7,0.8l0.5,0.2l0.8-0.2V168l-0.4-0.8l-0.3-0.9l0.2-1.9l-0.1-0.9l-0.5-0.4l-0.3-0.1l-0.3-0.3l-0.3-0.4l-0.2-0.3l-0.2-0.7
	v-0.2h0.2l2.1-0.8l0.3-0.5l0.1-1.2l-0.1-2l0.1-0.7l0.3-0.8l2-2.3l0.6-1.8l0.8-0.2h1l0.9-0.4l0.3,0.4l0.3-0.3l0.2-0.1l0.2,0.1
	l0.3,0.3l0.5-0.7l0.3-2.1l0.3-0.9l3.1-3l0.7-0.3h1.8l0.4,0.4l0.4,0.9l0.5,1l0.8,0.6l1-0.1l1.4-1.4l0.8-0.3l0.9-0.1l0.9-0.3l0.8-0.4
	l0.6-0.4l1.2-1.3l0.7-0.6l1.7-0.6l0.6-0.8l1-1.8l1.3-1.5l4.6-3.6l2.9-1.6l0.1-0.5l0.5-1.5v-0.3l-0.1-0.6v-0.2l0.2-0.2l0.7-0.5l0.2-1
	l-0.1-0.7l-0.4-0.6l-0.7-0.7l-0.2-0.6l0.3-0.5l0.9-0.6l0.2-0.6l0.2-1.1l0.1-0.5l0.3-0.6l0.3-0.4l0.8-1l0.1-0.4l-0.2-0.6l-0.2-0.6
	l-0.1-0.5l0.2-0.8l0.4,0.1l0.6,0.3l0.5-0.1l0.3-0.5v-0.5l-0.2-0.4l-0.1-0.4l0.3-0.9l0.4-0.6l0.3-0.7l0.1-1.2v-2.2l0.2-1l0.4-1.3
	l0.9-1.9l0.4-1l0.3-1.9l0.4-1.2l0.9-2.1l0.4-0.4l1.1-0.9l0.2-0.3l0.4-1.7l0.2-0.3l-0.1-0.7l-0.3-1.2V93l0.1-0.6v-0.3l-0.2-0.2
	l-0.3-0.1l-0.3-0.1h-0.1l0.1-1.3l0.8-2.1l0.2-1.2l-0.1-0.8l-0.4-1l-0.9-1.8l-1.4-1.9l-0.3-0.9l0.4-1.1l0.7-0.6l1.1-0.4h1l0.7,0.4
	l1.8-1.3l0.6-0.2v-74l-10.8,3.6L176.9,8.1z"/>
<g class="st1">
	<path class="st2" d="M50.9,67.3l-5.7,11.5h-2.8l-5.6-11.5v13.2h-4.7v-21h6.3L43.8,71l5.4-11.5h6.3v21h-4.7V67.3z"/>
	<path class="st2" d="M75.6,80.5l-2-4.5h-8.8l-1.9,4.5h-5l9.1-21h4.5l9.1,21H75.6z M69.3,65.8l-2.6,6.1h5.2L69.3,65.8z"/>
	<path class="st2" d="M99.1,62.3c2,1.8,3,4.4,3,7.6s-1,5.8-2.9,7.7c-1.9,1.9-4.9,2.8-8.9,2.8H83v-21h7.4
		C94.2,59.5,97.1,60.4,99.1,62.3z M95.6,74.7c1.1-1.1,1.7-2.7,1.7-4.7s-0.6-3.6-1.7-4.8c-1.2-1.1-2.9-1.7-5.3-1.7h-2.6v12.8h3
		C92.8,76.4,94.5,75.8,95.6,74.7z"/>
	<path class="st2" d="M121.2,59.5v4.2h-10.4V68h9.4v4h-9.4v4.4h10.8v4.1h-15.5v-21H121.2z"/>
</g>
<g class="st1">
	<path class="st2" d="M32.1,86.7h4.7v21h-4.7V86.7z"/>
	<path class="st2" d="M56.6,86.7h4.7v21h-4.7l-10-13.1v13.1h-4.7v-21h4.4l10.3,13.5V86.7z"/>
</g>
<g class="st1">
	<path class="st2" d="M49.7,132c-2.1,2.1-4.7,3.1-7.8,3.1c-3.1,0-5.7-1-7.8-3.1c-2.1-2.1-3.2-4.6-3.2-7.7c0-3.1,1.1-5.7,3.2-7.7
		c2.1-2.1,4.7-3.1,7.8-3.1c3.1,0,5.7,1,7.8,3.1c2.1,2.1,3.2,4.6,3.2,7.7C52.9,127.4,51.8,129.9,49.7,132z M48.1,124.3
		c0-1.9-0.6-3.5-1.8-4.8c-1.2-1.3-2.7-2-4.4-2s-3.2,0.7-4.4,2c-1.2,1.3-1.8,2.9-1.8,4.8c0,1.9,0.6,3.5,1.8,4.8c1.2,1.3,2.7,2,4.4,2
		s3.2-0.7,4.4-2C47.5,127.8,48.1,126.2,48.1,124.3z"/>
	<path class="st2" d="M69.9,113.9h4.7v21h-4.7v-8.2h-8.3v8.2h-4.7v-21h4.7v8.8h8.3V113.9z"/>
	<path class="st2" d="M79.7,113.9h4.7v21h-4.7V113.9z"/>
	<path class="st2" d="M107.2,132c-2.1,2.1-4.7,3.1-7.8,3.1c-3.1,0-5.7-1-7.8-3.1c-2.1-2.1-3.2-4.6-3.2-7.7c0-3.1,1.1-5.7,3.2-7.7
		c2.1-2.1,4.7-3.1,7.8-3.1c3.1,0,5.7,1,7.8,3.1c2.1,2.1,3.2,4.6,3.2,7.7C110.4,127.4,109.3,129.9,107.2,132z M105.6,124.3
		c0-1.9-0.6-3.5-1.8-4.8c-1.2-1.3-2.7-2-4.4-2s-3.2,0.7-4.4,2c-1.2,1.3-1.8,2.9-1.8,4.8c0,1.9,0.6,3.5,1.8,4.8c1.2,1.3,2.7,2,4.4,2
		s3.2-0.7,4.4-2C105,127.8,105.6,126.2,105.6,124.3z"/>
</g>
<polygon id="XMLID_3_" class="st3" points="42.5,154 43.3,156.6 46.1,156.6 43.9,158.2 44.7,160.8 42.5,159.2 40.3,160.8 
	41.1,158.2 38.9,156.6 41.7,156.6 "/>
</svg>
