<svg aria-hidden="true" style="position: absolute; width: 0; height: 0; overflow: hidden;" version="1.1" xmlns="http://www.w3.org/2000/svg" xmlns:xlink="http://www.w3.org/1999/xlink">
<defs>
<symbol id="icon__arrow-right" viewBox="0 0 32 32">
<title>arrow-right</title>
<path d="M4.864 17.581l18.406 0.019-5.837 5.824c-0.627 0.621-0.627 1.638-0.006 2.266s1.638 0.627 2.266 0.006l8.576-8.55c0.314-0.314 0.474-0.73 0.467-1.146 0.006-0.416-0.154-0.832-0.467-1.146l-8.557-8.544c-0.314-0.314-0.723-0.467-1.133-0.467s-0.819 0.16-1.133 0.467c-0.621 0.627-0.621 1.638 0.006 2.266l5.837 5.818-18.426-0.013c0 0 0 0 0 0-0.883 0-1.6 0.717-1.6 1.6 0 0.877 0.717 1.594 1.6 1.6z"></path>
</symbol>
<symbol id="icon__arrow-left" viewBox="0 0 32 32">
<title>arrow-left</title>
<path d="M27.136 14.419l-18.406-0.019 5.837-5.824c0.627-0.621 0.627-1.638 0.006-2.266s-1.638-0.627-2.266-0.006l-8.576 8.55c-0.314 0.314-0.474 0.73-0.467 1.146-0.006 0.416 0.154 0.832 0.467 1.146l8.557 8.544c0.314 0.314 0.723 0.467 1.133 0.467s0.819-0.16 1.133-0.467c0.621-0.627 0.621-1.638-0.006-2.266l-5.83-5.824 18.419 0.019c0 0 0 0 0 0 0.883 0 1.6-0.717 1.6-1.6 0-0.877-0.717-1.594-1.6-1.6z"></path>
</symbol>
<symbol id="icon__arrow-down" viewBox="0 0 32 32">
<title>arrow-down</title>
<path d="M22.554 12.378c-0.378-0.371-0.986-0.371-1.357 0l-5.197 5.216-5.197-5.216c-0.371-0.378-0.979-0.378-1.357 0-0.378 0.371-0.378 0.979 0 1.357l5.862 5.888c0.186 0.186 0.435 0.282 0.678 0.282 0.006 0 0.006 0 0.013 0s0.006 0 0.013 0c0.243 0 0.493-0.096 0.678-0.282l5.862-5.888c0.378-0.378 0.378-0.986 0-1.357z"></path>
</symbol>
<symbol id="icon__victim" viewBox="0 0 32 32">
<title>victim</title>
<path d="M27.693 9.6c-0.698-1.882-2.266-3.226-4.41-3.789-2.246-0.589-4.378-0.096-6.15 1.421-0.454 0.39-0.832 0.8-1.126 1.171-0.294-0.371-0.672-0.781-1.126-1.171-1.779-1.523-3.904-2.016-6.15-1.421-2.15 0.563-3.718 1.907-4.41 3.789-0.461 1.248-0.531 2.707-0.211 4.23 0.314 1.491 1.018 3.046 2.022 4.506 3.373 4.883 9.19 7.866 9.44 7.987 0.134 0.070 0.282 0.102 0.435 0.102h0.013c0.154 0 0.301-0.038 0.435-0.102 0.243-0.122 6.067-3.104 9.44-7.987 1.005-1.459 1.709-3.021 2.022-4.506 0.307-1.523 0.237-2.989-0.224-4.23zM17.075 11.29l-0.077 2.022-0.333 4.326h-1.472l-0.333-4.326-0.077-2.022h2.291zM15.923 21.274c-0.781 0-1.344-0.627-1.344-1.421 0-0.781 0.563-1.408 1.344-1.408 0.794 0 1.357 0.627 1.357 1.408 0 0.794-0.563 1.421-1.357 1.421z"></path>
</symbol>
<symbol id="icon__nav" viewBox="0 0 32 32">
<title>nav</title>
<path d="M23.411 26.477c-0.205 0-0.41-0.038-0.608-0.122l-6.246-2.554c-0.358-0.147-0.749-0.147-1.107 0l-6.246 2.554c-0.602 0.25-1.293 0.109-1.754-0.358-0.461-0.461-0.595-1.152-0.346-1.754l7.405-17.734c0.25-0.602 0.832-0.986 1.485-0.986s1.235 0.39 1.485 0.986l7.405 17.734c0.25 0.602 0.115 1.293-0.346 1.754-0.294 0.314-0.71 0.48-1.126 0.48zM17.28 22.022l5.549 2.272-6.829-16.352-6.829 16.352 5.549-2.272c0.826-0.339 1.734-0.339 2.56 0v0z"></path>
</symbol>
<symbol id="icon__chat" viewBox="0 0 32 32">
<title>chat</title>
<path d="M21.568 4.736h-11.136c-3.309 0-6.003 2.694-6.003 6.003v7.053c0 3.309 2.694 6.003 6.003 6.003h4.525c0.614 0 1.222 0.211 1.702 0.595l3.226 2.554c0.026 0.019 0.051 0.038 0.083 0.058 0.275 0.173 0.589 0.262 0.902 0.262 0.282 0 0.57-0.070 0.826-0.218 0.538-0.301 0.864-0.877 0.858-1.491l-0.019-1.837c2.854-0.467 5.037-2.944 5.037-5.926v-7.053c0-3.309-2.694-6.003-6.003-6.003zM25.651 17.792c0 2.253-1.83 4.083-4.083 4.083-0.256 0-0.499 0.102-0.685 0.282-0.179 0.179-0.282 0.429-0.275 0.685l0.019 2.234-2.771-2.189c-0.819-0.653-1.85-1.005-2.893-1.005h-4.531c-2.253 0-4.083-1.83-4.083-4.083v-7.059c0-2.253 1.83-4.083 4.083-4.083h11.136c2.253 0 4.083 1.83 4.083 4.083v7.053z"></path>
<path d="M11.482 12.646c-0.922 0-1.67 0.749-1.67 1.67s0.749 1.67 1.67 1.67 1.67-0.749 1.67-1.67-0.749-1.67-1.67-1.67zM11.482 14.566c-0.141 0-0.25-0.115-0.25-0.25s0.115-0.25 0.25-0.25 0.25 0.115 0.25 0.25-0.109 0.25-0.25 0.25z"></path>
<path d="M16.051 12.646c-0.922 0-1.67 0.749-1.67 1.67s0.749 1.67 1.67 1.67c0.922 0 1.67-0.749 1.67-1.67s-0.749-1.67-1.67-1.67zM16.051 14.566c-0.141 0-0.25-0.115-0.25-0.25s0.115-0.25 0.25-0.25c0.141 0 0.25 0.115 0.25 0.25s-0.109 0.25-0.25 0.25z"></path>
<path d="M20.704 12.646c-0.922 0-1.67 0.749-1.67 1.67s0.749 1.67 1.67 1.67c0.922 0 1.67-0.749 1.67-1.67s-0.749-1.67-1.67-1.67zM20.704 14.566c-0.141 0-0.25-0.115-0.25-0.25s0.115-0.25 0.25-0.25c0.141 0 0.25 0.115 0.25 0.25s-0.109 0.25-0.25 0.25z"></path>
</symbol>
<symbol id="icon__contacts" viewBox="0 0 32 32">
<title>contacts</title>
<path d="M18.682 15.808c0.57-0.55 0.922-1.325 0.922-2.176 0-1.67-1.357-3.027-3.027-3.027s-3.027 1.357-3.027 3.027c0 0.851 0.352 1.626 0.922 2.176-1.92 0.819-3.27 2.733-3.27 4.947 0 0.352 0.288 0.64 0.64 0.64s0.64-0.288 0.64-0.64c0-2.227 1.786-4.045 4.006-4.096 0.032 0 0.064 0 0.096 0s0.064 0 0.096 0c2.214 0.051 4.006 1.869 4.006 4.096 0 0.352 0.288 0.64 0.64 0.64s0.64-0.288 0.64-0.64c-0.013-2.214-1.363-4.128-3.283-4.947zM14.822 13.632c0-0.966 0.787-1.747 1.747-1.747s1.747 0.787 1.747 1.747c0 0.934-0.736 1.702-1.658 1.747-0.032 0-0.064 0-0.090 0s-0.064 0-0.090 0c-0.922-0.045-1.658-0.813-1.658-1.747z"></path>
<path d="M21.306 4.736h-10.611c-3.462 0-6.278 2.816-6.278 6.278v9.978c0 3.462 2.816 6.278 6.278 6.278h10.618c3.462 0 6.278-2.816 6.278-6.278v-9.978c-0.006-3.462-2.822-6.278-6.285-6.278zM25.664 20.986c0 2.4-1.952 4.358-4.358 4.358h-10.611c-2.272 0-4.141-1.747-4.339-3.968h1.453c0.531 0 0.96-0.429 0.96-0.96s-0.429-0.96-0.96-0.96h-1.472v-2.496h1.472c0.531 0 0.96-0.429 0.96-0.96s-0.429-0.96-0.96-0.96h-1.472v-2.496h1.472c0.531 0 0.96-0.429 0.96-0.96s-0.429-0.96-0.96-0.96h-1.453c0.198-2.221 2.067-3.968 4.339-3.968h10.618c2.4 0 4.358 1.952 4.358 4.358v9.971z"></path>
</symbol>
<symbol id="icon__avatar" viewBox="0 0 32 32">
<title>avatar</title>
<path d="M19.75 15.725c1.453-1.126 2.387-2.88 2.387-4.851 0-3.386-2.752-6.138-6.138-6.138s-6.138 2.752-6.138 6.138c0 1.971 0.934 3.731 2.387 4.851-4.352 1.549-7.469 5.702-7.469 10.579 0 0.531 0.429 0.96 0.96 0.96s0.96-0.429 0.96-0.96c0-5.043 4.026-9.158 9.037-9.299 0.090 0.006 0.179 0.006 0.269 0.006s0.179 0 0.269-0.006c5.005 0.141 9.037 4.262 9.037 9.299 0 0.531 0.429 0.96 0.96 0.96s0.96-0.429 0.96-0.96c-0.006-4.87-3.13-9.030-7.482-10.579zM11.782 10.874c0-2.323 1.894-4.218 4.218-4.218s4.218 1.894 4.218 4.218c0 2.246-1.76 4.083-3.974 4.211-0.083 0-0.16 0-0.243 0s-0.16 0-0.243 0c-2.214-0.128-3.974-1.965-3.974-4.211z"></path>
</symbol>
<symbol id="icon__pin" viewBox="0 0 32 32">
<title>pin</title>
<path d="M15.994 27.277c-0.243 0-0.493-0.096-0.678-0.282l-6.022-6.022c-1.792-1.792-2.778-4.166-2.778-6.701 0-2.528 0.986-4.909 2.778-6.701s4.166-2.778 6.701-2.778 4.909 0.986 6.701 2.778c3.693 3.693 3.693 9.709 0 13.402l-6.022 6.022c-0.192 0.192-0.435 0.282-0.678 0.282zM15.994 6.72c-2.016 0-3.917 0.787-5.344 2.214s-2.214 3.322-2.214 5.344c0 2.016 0.787 3.917 2.214 5.344l5.344 5.344 5.344-5.344c2.944-2.944 2.944-7.738 0-10.688-1.434-1.427-3.328-2.214-5.344-2.214z"></path>
<path d="M15.994 17.862c-2.003 0-3.635-1.632-3.635-3.635s1.632-3.635 3.635-3.635c2.003 0 3.635 1.632 3.635 3.635 0 2.010-1.632 3.635-3.635 3.635zM15.994 12.512c-0.947 0-1.715 0.768-1.715 1.715s0.768 1.715 1.715 1.715c0.947 0 1.715-0.768 1.715-1.715s-0.774-1.715-1.715-1.715z"></path>
</symbol>
<symbol id="icon__heart" viewBox="0 0 32 32">
<title>heart</title>
<path d="M15.974 26.432h-0.013c-0.154 0-0.301-0.038-0.435-0.102-0.243-0.122-6.067-3.104-9.44-7.987-1.005-1.459-1.709-3.021-2.022-4.506-0.326-1.523-0.25-2.989 0.211-4.23 0.698-1.882 2.266-3.226 4.41-3.789 2.246-0.589 4.378-0.096 6.15 1.421 0.454 0.39 0.832 0.8 1.126 1.171 0.294-0.371 0.672-0.781 1.126-1.171 1.779-1.523 3.904-2.016 6.15-1.421 2.15 0.563 3.718 1.907 4.41 3.789 0.461 1.248 0.531 2.707 0.211 4.23-0.314 1.491-1.018 3.046-2.022 4.506-3.373 4.883-9.19 7.866-9.44 7.987-0.122 0.064-0.275 0.102-0.422 0.102zM10.49 7.494c-0.41 0-0.851 0.051-1.318 0.179-1.549 0.41-2.618 1.306-3.098 2.598-0.704 1.901-0.109 4.512 1.594 6.982 2.592 3.75 6.931 6.368 8.301 7.136 1.37-0.768 5.709-3.386 8.294-7.136 1.702-2.47 2.298-5.075 1.594-6.982-0.48-1.293-1.549-2.195-3.098-2.598-3.891-1.024-5.843 2.72-5.926 2.88-0.16 0.326-0.493 0.525-0.858 0.525h-0.013c-0.365 0-0.698-0.205-0.858-0.531-0.077-0.141-1.594-3.053-4.614-3.053z"></path>
</symbol>
</defs>
</svg>
