<svg aria-hidden="true" style="position: absolute; width: 0; height: 0; overflow: hidden;" version="1.1" xmlns="http://www.w3.org/2000/svg" xmlns:xlink="http://www.w3.org/1999/xlink">
<defs>
<symbol id="icon__search" viewBox="0 0 32 32">
<path d="M23.2 8.8c-1.4-1.4-3.3-2.2-5.3-2.2s-3.9 0.8-5.3 2.2c-1.4 1.4-2.2 3.3-2.2 5.3 0 1 0.2 2 0.6 2.9 0.2 0.7 0 1.5-0.5 2.1l-3.2 3.2c-0.3 0.3-0.5 0.8-0.5 1.3s0.2 0.9 0.5 1.3c0.4 0.4 0.8 0.5 1.3 0.5s0.9-0.2 1.3-0.5l3.3-3.3c0.5-0.5 1.3-0.6 2-0.4 0.9 0.4 1.9 0.6 2.9 0.6 1.9 0 3.9-0.7 5.3-2.2 1.4-1.4 2.2-3.3 2.2-5.3-0.2-2.2-1-4.1-2.4-5.5zM12.3 21l-0.3 0.4-2.9 2.9c-0.4 0.4-1 0.4-1.3 0-0.2-0.2-0.3-0.4-0.3-0.7s0.1-0.5 0.3-0.7l3.2-3.2c0.3-0.3 0.6-0.7 0.7-1.2 0.2 0.3 0.5 0.7 0.8 1s0.6 0.6 1 0.8c-0.5 0.2-0.9 0.4-1.2 0.7zM22.6 18.9c-1.9 1.9-4.7 2.4-7.1 1.5v0c-0.1 0-0.1-0.1-0.2-0.1-0.8-0.3-1.5-0.8-2.1-1.4-2.6-2.6-2.6-6.9 0-9.5 1.3-1.3 3-2 4.7-2s3.4 0.7 4.7 2c2.6 2.6 2.6 6.9 0 9.5z"></path>
<path d="M14.5 10.8c-0.2 0.2-0.2 0.4 0 0.6s0.4 0.2 0.6 0c1.5-1.5 3.9-1.5 5.4 0 0.1 0.1 0.2 0.1 0.3 0.1s0.2 0 0.3-0.1c0.2-0.2 0.2-0.4 0-0.6-1.8-1.8-4.7-1.8-6.6 0z"></path>
</symbol>
<symbol id="icon__add-v2" viewBox="0 0 32 32">
<path d="M22.9 8.7c-1.9-1.8-4.3-2.8-6.9-2.8-5.6 0-10.1 4.5-10.1 10.1s4.5 10.1 10.1 10.1 10.1-4.5 10.1-10.1c0-2.8-1.2-5.4-3.2-7.3zM16 25.1c-5 0-9.1-4.1-9.1-9.1s4.1-9.1 9.1-9.1c2.3 0 4.6 0.9 6.3 2.5 1.9 1.7 2.9 4.1 2.9 6.6-0.1 5-4.2 9.1-9.2 9.1z"></path>
<path d="M20.6 15.5h-4.1v-4.1c0-0.3-0.2-0.5-0.5-0.5v0c-0.3 0-0.5 0.2-0.5 0.5v4.1h-4.1c0 0 0 0 0 0-0.3 0-0.5 0.2-0.5 0.5s0.2 0.5 0.5 0.5h4.1v4.1c0 0.3 0.2 0.5 0.5 0.5v0c0.3 0 0.5-0.2 0.5-0.5v-4.1h4.1c0 0 0 0 0 0 0.3 0 0.5-0.2 0.5-0.5s-0.3-0.5-0.5-0.5z"></path>
</symbol>
<symbol id="icon__download" viewBox="0 0 32 32">
<path d="M11.8 16.6c-0.2 0.2-0.2 0.5 0 0.7l3.9 3.9c0.1 0.1 0.2 0.1 0.3 0.1s0.2 0 0.3-0.1c0 0 0 0 0 0s0 0 0 0l3.9-3.9c0.2-0.2 0.2-0.5 0-0.7s-0.5-0.2-0.7 0l-3.1 3.1v-13.3c0.1-0.2-0.1-0.4-0.4-0.4s-0.5 0.2-0.5 0.5v13.3l-3.1-3.1c-0.1-0.3-0.4-0.3-0.6-0.1z"></path>
<path d="M22.5 11.5h-2.2c-0.3 0-0.5 0.2-0.5 0.5s0.2 0.5 0.5 0.5h2.2c1.3 0 2.3 1 2.3 2.3v8c0 1.3-1 2.3-2.3 2.3h-13c-1.3 0-2.3-1-2.3-2.3v-8c0-1.3 1-2.3 2.3-2.3h2.4c0.3 0 0.5-0.2 0.5-0.5s-0.2-0.5-0.5-0.5h-2.4c-1.8 0-3.3 1.5-3.3 3.3v8c0 1.8 1.5 3.3 3.3 3.3h13.1c1.8 0 3.3-1.5 3.3-3.3v-8c-0.1-1.8-1.6-3.3-3.4-3.3z"></path>
</symbol>
<symbol id="icon__arrow-down" viewBox="0 0 32 32">
<path d="M16 21.5c-0.3 0-0.7-0.1-0.9-0.4l-8.5-8.5c-0.5-0.5-0.5-1.3 0-1.8s1.3-0.5 1.8 0l7.6 7.6 7.6-7.6c0.5-0.5 1.3-0.5 1.8 0s0.5 1.3 0 1.8l-8.5 8.5c-0.3 0.3-0.6 0.4-0.9 0.4z"></path>
</symbol>
<symbol id="icon__profile" viewBox="0 0 32 32">
<path d="M19 15.6c1.2-0.9 1.9-2.3 1.9-3.9 0-2.7-2.2-4.9-4.9-4.9s-4.9 2.2-4.9 4.9c0 1.6 0.8 3 1.9 3.9-3.7 1.3-6.4 4.8-6.4 8.9 0 0.4 0.3 0.8 0.8 0.8 0.4 0 0.8-0.3 0.8-0.8 0-4.3 3.5-7.9 7.9-7.9 4.3 0 7.9 3.5 7.9 7.9 0 0.4 0.3 0.8 0.8 0.8 0.4 0 0.8-0.3 0.8-0.8-0.2-4.1-2.9-7.7-6.6-8.9zM16 8.3c1.9 0 3.4 1.5 3.4 3.4s-1.5 3.4-3.4 3.4c-1.9 0-3.4-1.5-3.4-3.4s1.5-3.4 3.4-3.4z"></path>
</symbol>
<symbol id="icon__subtract" viewBox="0 0 32 32">
<path d="M16 25.7c-5.3 0-9.7-4.3-9.7-9.7s4.3-9.8 9.7-9.8c0 0 0.1 0 0.1 0 5.3 0 9.7 4.3 9.7 9.7v0c0 5.4-4.3 9.8-9.8 9.8 0.1 0 0 0 0 0zM16 7.5c0 0-0.1 0 0 0-4.7 0-8.5 3.8-8.4 8.5 0 4.6 3.8 8.4 8.5 8.4 0 0 0.1 0 0.1 0 4.6 0 8.4-3.8 8.4-8.5v0c-0.2-4.6-4-8.4-8.6-8.4z"></path>
<path d="M12.8 16.7c-0.3 0-0.6-0.3-0.6-0.6s0.3-0.6 0.6-0.6l6.6-0.1c0.3 0 0.6 0.3 0.6 0.6s-0.3 0.6-0.6 0.6l-6.6 0.1z"></path>
</symbol>
<symbol id="icon__subtract-v2" viewBox="0 0 32 32">
<path d="M10.64 16.608c-0.32 0-0.576-0.256-0.576-0.576s0.256-0.576 0.576-0.576l10.72-0.064c0 0 0 0 0 0 0.32 0 0.576 0.256 0.576 0.576s-0.256 0.576-0.576 0.576l-10.72 0.064c0 0 0 0 0 0z"></path>
</symbol>
<symbol id="icon__discussion" viewBox="0 0 32 32">
<path d="M21.7 20.4c-0.2 0-0.5-0.1-0.7-0.2 0 0 0 0-0.1 0l-2-1.5c-0.3-0.2-0.6-0.3-0.9-0.3h-2.7c-2.1 0-3.8-1.7-3.8-3.8v-4.3c0-2.1 1.7-3.8 3.8-3.8h6.7c2.1 0 3.8 1.7 3.8 3.8v4.3c0 1.8-1.3 3.4-3 3.8v0.9c0 0.5-0.2 0.9-0.6 1.1-0.1-0.1-0.3 0-0.5 0zM15.4 7.9c-1.2 0-2.3 1-2.3 2.3v4.3c0 1.2 1 2.3 2.3 2.3h2.7c0.7 0 1.4 0.2 1.9 0.7l1.3 1v-0.9c0-0.2 0.1-0.4 0.2-0.6 0.2-0.2 0.4-0.2 0.6-0.2 1.2 0 2.3-1 2.3-2.3v-4.3c0-1.2-1-2.3-2.3-2.3h-6.7z"></path>
<path d="M9.8 25.7c-0.2 0-0.4-0.1-0.6-0.2-0.4-0.2-0.6-0.6-0.6-1v-0.7c-1.4-0.4-2.6-1.7-2.6-3.3v-3.6c0-1.9 1.5-3.4 3.4-3.4h1c0.4 0 0.8 0.4 0.8 0.8s-0.4 0.8-0.8 0.8h-1c-1 0-1.8 0.8-1.8 1.8v3.6c0 1 0.8 1.8 1.8 1.8 0.2 0 0.4 0.1 0.6 0.2 0.2 0.2 0.2 0.4 0.2 0.6v0.5l0.9-0.7c0.5-0.4 1.1-0.6 1.7-0.6h2.3c1 0 1.8-0.8 1.8-1.8v-0.9c0-0.4 0.4-0.8 0.8-0.8s0.8 0.4 0.8 0.8v0.9c0 1.9-1.5 3.4-3.4 3.4h-2.3c-0.2 0-0.5 0.1-0.7 0.2l-1.7 1.3c0 0 0 0-0.1 0-0.1 0.2-0.3 0.3-0.5 0.3z"></path>
</symbol>
<symbol id="icon__add-v21" viewBox="0 0 32 32">
<path d="M24.728 15.4h-8.2v-8.2c0-0.328-0.272-0.6-0.6-0.6 0 0 0 0 0 0-0.328 0-0.6 0.272-0.6 0.6v8.2h-8.2c0 0 0 0 0 0-0.328 0-0.6 0.272-0.6 0.6s0.272 0.6 0.6 0.6h8.2v8.2c0 0.328 0.272 0.6 0.6 0.6 0 0 0 0 0 0 0.328 0 0.6-0.272 0.6-0.6v-8.2h8.2c0 0 0 0 0 0 0.328 0 0.6-0.272 0.6-0.6s-0.272-0.6-0.6-0.6z"></path>
</symbol>
<symbol id="icon__arrow-up" viewBox="0 0 32 32">
<path d="M21.432 11.104l-4.864-4.864c0 0 0 0-0.008-0.008-0.016-0.016-0.032-0.032-0.056-0.048 0 0-0.008-0.008-0.008-0.008-0.016-0.008-0.032-0.024-0.048-0.032-0.008-0.008-0.016-0.008-0.024-0.016-0.016-0.008-0.024-0.016-0.040-0.024-0.008-0.008-0.016-0.008-0.024-0.016-0.016-0.008-0.040-0.016-0.056-0.024 0 0 0 0 0 0-0.032-0.016-0.072-0.024-0.104-0.032-0.008 0-0.016 0-0.024-0.008-0.032-0.008-0.072-0.016-0.104-0.016 0 0 0 0 0 0-0.032 0-0.064 0-0.104 0-0.008 0-0.016 0-0.024 0-0.032 0-0.072 0.008-0.104 0.016 0 0 0 0-0.008 0-0.032 0.008-0.064 0.016-0.096 0.024-0.008 0-0.016 0.008-0.024 0.008-0.032 0.016-0.064 0.024-0.096 0.040 0 0 0 0 0 0-0.032 0.016-0.056 0.032-0.088 0.056-0.008 0.008-0.016 0.008-0.024 0.016-0.024 0.024-0.056 0.040-0.080 0.072 0 0 0 0 0 0l-4.864 4.864c-0.312 0.312-0.312 0.816 0 1.128s0.816 0.312 1.128 0l3.496-3.496v16.456c0 0.44 0.36 0.8 0.8 0.8s0.8-0.36 0.8-0.8v-16.456l3.496 3.496c0.16 0.16 0.36 0.232 0.568 0.232s0.408-0.080 0.568-0.232c0.328-0.304 0.328-0.816 0.016-1.128z"></path>
</symbol>
<symbol id="icon__arrow-right" viewBox="0 0 32 32">
<path d="M20.9 21.4l4.9-4.9c0 0 0 0 0 0s0 0 0-0.1v0c0 0 0 0 0 0s0 0 0 0 0 0 0 0 0 0 0 0 0 0 0-0.1v0c0 0 0-0.1 0-0.1s0 0 0 0 0-0.1 0-0.1v0c0 0 0-0.1 0-0.1s0 0 0 0 0-0.1 0-0.1c0 0 0 0 0 0s0-0.1 0-0.1c0 0 0 0 0 0s0-0.1 0-0.1v0c0 0 0-0.1-0.1-0.1 0 0 0 0 0 0s0-0.1-0.1-0.1v0l-4.9-4.9c-0.3-0.3-0.8-0.3-1.1 0s-0.3 0.8 0 1.1l3.5 3.5h-16.3c-0.4 0-0.8 0.3-0.8 0.8s0.4 0.8 0.8 0.8h16.5l-3.5 3.5c-0.2 0.2-0.2 0.4-0.2 0.6s0.1 0.4 0.2 0.6c0.3 0.2 0.8 0.2 1.1-0.1z"></path>
</symbol>
<symbol id="icon__arrow-left" viewBox="0 0 32 32">
<path d="M11.1 10.6l-4.9 4.9c0 0 0 0 0 0s0 0 0 0.1v0c0 0 0 0 0 0s0 0 0 0 0 0 0 0 0 0 0 0 0 0 0 0.1v0c0 0 0 0.1 0 0.1s0 0 0 0 0 0.1 0 0.1v0c-0.2 0.1-0.2 0.1-0.2 0.1s0 0 0 0 0 0.1 0 0.1c0 0 0 0 0 0s0 0.1 0 0.1c0 0 0 0 0 0s0 0.1 0 0.1v0c0 0 0 0.1 0.1 0.1 0 0 0 0 0 0s0 0.1 0.1 0.1v0l4.9 4.9c0.3 0.3 0.8 0.3 1.1 0s0.3-0.8 0-1.1l-3.5-3.5h16.5c0.4 0 0.8-0.4 0.8-0.8s-0.4-0.8-0.8-0.8h-16.5l3.5-3.5c0.2-0.2 0.2-0.4 0.2-0.6s-0.1-0.4-0.2-0.6c-0.3-0.2-0.8-0.2-1.1 0.1z"></path>
</symbol>
<symbol id="icon__bell" viewBox="0 0 32 32">
<path d="M22.64 18.336v-3.472c0-2.824-1.776-5.312-4.392-6.248v-0.096c0-1.232-1.008-2.24-2.24-2.24s-2.24 1.008-2.24 2.24v0.096c-2.616 0.936-4.392 3.416-4.392 6.248v3.472c-1.112 0.128-1.976 1.072-1.976 2.216 0 1.232 1 2.232 2.232 2.232h3.12c0.16 1.648 1.56 2.944 3.248 2.944s3.088-1.288 3.248-2.944h3.12c1.232 0 2.232-1 2.232-2.232 0.008-1.144-0.848-2.088-1.96-2.216zM16.008 24.12c-0.808 0-1.48-0.576-1.632-1.344h3.264c-0.152 0.76-0.824 1.344-1.632 1.344zM22.376 21.184h-12.736c-0.352 0-0.632-0.28-0.632-0.632s0.28-0.632 0.632-0.632c0.736 0 1.344-0.6 1.344-1.344v-3.712c0-2.304 1.56-4.312 3.792-4.88 0.352-0.088 0.6-0.408 0.6-0.776v-0.688c0-0.352 0.288-0.64 0.64-0.64s0.64 0.288 0.64 0.64v0.688c0 0.368 0.248 0.68 0.6 0.776 2.232 0.568 3.784 2.576 3.784 4.88v3.728c0 0.736 0.6 1.336 1.336 1.336 0.352 0 0.632 0.28 0.632 0.632 0 0.336-0.288 0.624-0.632 0.624z"></path>
</symbol>
<symbol id="icon__book" viewBox="0 0 32 32">
<path d="M25.488 9.328c-3.056-1.216-6.416-1.24-9.488-0.096-3.072-1.152-6.432-1.12-9.488 0.096-0.256 0.104-0.432 0.352-0.432 0.632v12.968c0 0.24 0.128 0.456 0.328 0.584 0.208 0.12 0.456 0.128 0.672 0.016 2.688-1.424 5.904-1.424 8.6 0 0.008 0.008 0.016 0.008 0.032 0.016 0.008 0.008 0.024 0.008 0.032 0.016 0.016 0.008 0.032 0.016 0.048 0.016 0.008 0 0.024 0.008 0.032 0.008 0.016 0.008 0.040 0.008 0.056 0.008 0.008 0 0.016 0 0.024 0.008 0.032 0 0.056 0.008 0.088 0.008s0.056 0 0.088-0.008c0.008 0 0.016 0 0.024-0.008 0.016 0 0.040-0.008 0.056-0.008 0.008 0 0.024-0.008 0.032-0.008 0.016-0.008 0.032-0.008 0.048-0.016 0.008-0.008 0.024-0.008 0.032-0.016s0.016-0.008 0.032-0.016c2.688-1.424 5.904-1.424 8.6 0 0.208 0.112 0.464 0.104 0.672-0.016s0.328-0.344 0.328-0.584v-12.968c0.008-0.28-0.16-0.528-0.416-0.632zM7.448 21.856v-11.424c2.552-0.904 5.32-0.904 7.872 0v11.432c-1.264-0.512-2.6-0.76-3.936-0.76-1.336-0.008-2.672 0.248-3.936 0.752zM24.552 21.856c-2.528-1.016-5.344-1.016-7.872 0v-11.424c2.552-0.904 5.32-0.904 7.872 0v11.424z"></path>
<path d="M13.736 12.080c-1.52-0.6-3.192-0.6-4.712 0-0.192 0.080-0.32 0.264-0.32 0.472v3.368c0 0.176 0.096 0.344 0.248 0.44s0.344 0.096 0.504 0.016c1.208-0.64 2.648-0.64 3.856 0 0.072 0.040 0.16 0.056 0.24 0.056 0.088 0 0.184-0.024 0.264-0.072 0.152-0.096 0.248-0.256 0.248-0.44v-3.368c0-0.208-0.128-0.4-0.328-0.472zM13.040 15.144c-0.536-0.184-1.096-0.272-1.656-0.272s-1.12 0.088-1.656 0.272v-2.232c1.080-0.352 2.232-0.352 3.312 0v2.232z"></path>
<path d="M18.488 13.016c-0.264 0.096-0.408 0.384-0.312 0.648 0.072 0.208 0.272 0.344 0.48 0.344 0.056 0 0.112-0.008 0.168-0.032l0.040-0.016c1.128-0.392 2.368-0.384 3.496 0.016 0.264 0.096 0.56-0.048 0.648-0.312 0.096-0.264-0.048-0.56-0.312-0.648-1.344-0.48-2.824-0.48-4.176-0.016l-0.032 0.016z"></path>
<path d="M18.824 16.088l0.024-0.008c1.128-0.392 2.368-0.392 3.496 0l0.024 0.008c0.056 0.024 0.112 0.032 0.168 0.032 0.208 0 0.408-0.128 0.48-0.336 0.096-0.264-0.048-0.56-0.312-0.648l-0.024-0.008c-1.344-0.472-2.824-0.472-4.176 0l-0.024 0.008c-0.264 0.096-0.408 0.384-0.312 0.648s0.392 0.4 0.656 0.304z"></path>
<path d="M22.704 17.24c-1.344-0.48-2.824-0.48-4.168-0.016l-0.048 0.016c-0.264 0.088-0.408 0.384-0.32 0.648s0.384 0.408 0.648 0.32l0.048-0.016c1.128-0.392 2.368-0.384 3.496 0.016 0.056 0.024 0.112 0.032 0.168 0.032 0.208 0 0.408-0.128 0.48-0.336 0.096-0.28-0.040-0.576-0.304-0.664z"></path>
<path d="M13.52 17.272c-1.344-0.48-2.824-0.48-4.176-0.016l-0.048 0.016c-0.264 0.096-0.408 0.384-0.312 0.648 0.072 0.208 0.272 0.344 0.48 0.344 0.056 0 0.112-0.008 0.168-0.032l0.040-0.016c1.128-0.392 2.368-0.384 3.496 0.016 0.264 0.096 0.56-0.048 0.648-0.312s-0.032-0.552-0.296-0.648z"></path>
</symbol>
<symbol id="icon__calendar" viewBox="0 0 32 32">
<path d="M22.248 7.76h-0.856v-0.68c0-0.48-0.392-0.872-0.872-0.872s-0.872 0.392-0.872 0.872v0.68h-7.304v-0.68c0-0.48-0.392-0.872-0.872-0.872s-0.872 0.392-0.872 0.872v0.68h-0.856c-2.048 0-3.712 1.664-3.712 3.712v10.528c0 2.048 1.664 3.712 3.712 3.712h12.488c2.048 0 3.712-1.664 3.712-3.712v-10.528c0.016-2.048-1.648-3.712-3.696-3.712zM24.36 22.008c0 1.168-0.952 2.112-2.112 2.112h-12.496c-1.168 0-2.112-0.952-2.112-2.112v-10.536c0-1.168 0.952-2.112 2.112-2.112h0.856v0.36c0 0.48 0.392 0.872 0.872 0.872s0.872-0.392 0.872-0.872v-0.36h7.304v0.36c0 0.48 0.392 0.872 0.872 0.872s0.872-0.392 0.872-0.872v-0.36h0.856c1.168 0 2.112 0.952 2.112 2.112v10.536z"></path>
<path d="M20.52 15.712h-1.664c-0.352 0-0.64 0.288-0.64 0.64v1.664c0 0.352 0.288 0.64 0.64 0.64h1.664c0.352 0 0.64-0.288 0.64-0.64v-1.664c0-0.352-0.288-0.64-0.64-0.64z"></path>
<path d="M13.144 15.712h-1.664c-0.352 0-0.64 0.288-0.64 0.64v1.664c0 0.352 0.288 0.64 0.64 0.64h1.664c0.352 0 0.64-0.288 0.64-0.64v-1.664c-0.008-0.352-0.288-0.64-0.64-0.64z"></path>
<path d="M16.832 15.712h-1.664c-0.352 0-0.64 0.288-0.64 0.64v1.664c0 0.352 0.288 0.64 0.64 0.64h1.664c0.352 0 0.64-0.288 0.64-0.64v-1.664c0-0.352-0.288-0.64-0.64-0.64z"></path>
<path d="M20.52 12.096h-1.664c-0.352 0-0.64 0.288-0.64 0.64v1.664c0 0.352 0.288 0.64 0.64 0.64h1.664c0.352 0 0.64-0.288 0.64-0.64v-1.664c0-0.352-0.288-0.64-0.64-0.64z"></path>
<path d="M13.144 12.096h-1.664c-0.352 0-0.64 0.288-0.64 0.64v1.664c0 0.352 0.288 0.64 0.64 0.64h1.664c0.352 0 0.64-0.288 0.64-0.64v-1.664c-0.008-0.352-0.288-0.64-0.64-0.64z"></path>
<path d="M16.832 12.096h-1.664c-0.352 0-0.64 0.288-0.64 0.64v1.664c0 0.352 0.288 0.64 0.64 0.64h1.664c0.352 0 0.64-0.288 0.64-0.64v-1.664c0-0.352-0.288-0.64-0.64-0.64z"></path>
<path d="M13.144 19.328h-1.664c-0.352 0-0.64 0.288-0.64 0.64v1.664c0 0.352 0.288 0.64 0.64 0.64h1.664c0.352 0 0.64-0.288 0.64-0.64v-1.664c-0.008-0.36-0.288-0.64-0.64-0.64z"></path>
<path d="M16.832 19.328h-1.664c-0.352 0-0.64 0.288-0.64 0.64v1.664c0 0.352 0.288 0.64 0.64 0.64h1.664c0.352 0 0.64-0.288 0.64-0.64v-1.664c0-0.36-0.288-0.64-0.64-0.64z"></path>
</symbol>
<symbol id="icon__camera" viewBox="0 0 32 32">
<path d="M22.376 8.44l-1.504 0.008c-0.096-1.208-1.112-2.168-2.344-2.168h-4.976c-1.232 0-2.248 0.952-2.344 2.16h-1.584c-1.976 0-3.584 1.608-3.584 3.584v10.12c0 1.976 1.608 3.584 3.584 3.584h12.76c1.976 0 3.584-1.608 3.584-3.584v-10.12c-0.008-1.976-1.616-3.584-3.592-3.584zM24.36 22.136c0 1.088-0.888 1.984-1.984 1.984h-12.752c-1.088 0-1.984-0.888-1.984-1.984v-10.112c0-1.088 0.888-1.984 1.984-1.984h1.776c0.776 0 1.408-0.632 1.408-1.408 0-0.416 0.336-0.752 0.752-0.752h4.976c0.416 0 0.752 0.336 0.752 0.752v0.008c0 0.376 0.144 0.728 0.416 1 0.264 0.264 0.616 0.408 0.992 0.408 0 0 0.008 0 0.008 0l1.688-0.008c1.088 0 1.984 0.888 1.984 1.984v10.112z"></path>
<path d="M16.040 12.68c-2.512 0-4.56 2.048-4.56 4.56s2.048 4.56 4.56 4.56 4.56-2.048 4.56-4.56-2.048-4.56-4.56-4.56zM16.040 20.2c-1.632 0-2.96-1.328-2.96-2.96s1.328-2.96 2.96-2.96 2.96 1.328 2.96 2.96c0 1.632-1.328 2.96-2.96 2.96z"></path>
</symbol>
<symbol id="icon__chart" viewBox="0 0 32 32">
<path d="M22.696 8.896c-1.824-1.712-4.2-2.656-6.696-2.656-5.384 0-9.76 4.376-9.76 9.76s4.376 9.76 9.76 9.76c5.384 0 9.76-4.376 9.76-9.76 0-2.68-1.12-5.264-3.064-7.104zM24.12 15.2h-7.32v-7.32c1.792 0.176 3.472 0.936 4.792 2.184 1.464 1.368 2.344 3.176 2.528 5.136zM16 24.16c-4.496 0-8.16-3.664-8.16-8.16 0-4.232 3.232-7.72 7.36-8.12v8.12c0 0.44 0.36 0.8 0.8 0.8h8.12c-0.4 4.128-3.888 7.36-8.12 7.36z"></path>
</symbol>
<symbol id="icon__check" viewBox="0 0 32 32">
<path d="M24.528 9.752c-0.312-0.312-0.816-0.312-1.128 0l-10.68 10.696-4.312-4.328c-0.312-0.312-0.816-0.312-1.128 0s-0.312 0.816 0 1.128l4.76 4.768c0.032 0.048 0.064 0.096 0.112 0.136 0.16 0.16 0.36 0.232 0.568 0.232 0.008 0 0.008 0 0.016 0s0.008 0 0.016 0c0.208 0 0.408-0.080 0.568-0.232 0.040-0.040 0.080-0.088 0.112-0.136l11.12-11.136c0.288-0.304 0.288-0.816-0.024-1.128z"></path>
</symbol>
<symbol id="icon__clip" viewBox="0 0 32 32">
<path d="M17.48 6.288c-2.16 0-3.92 1.76-3.92 3.92v10.12c0 1.392 1.128 2.52 2.52 2.52s2.52-1.128 2.52-2.52v-8.2c0-0.44-0.36-0.8-0.8-0.8s-0.8 0.36-0.8 0.8v8.2c0 0.504-0.416 0.92-0.92 0.92s-0.92-0.416-0.92-0.92v-10.12c0-1.28 1.040-2.32 2.32-2.32s2.32 1.040 2.32 2.32v10.104c0 2.096-1.704 3.8-3.8 3.8s-3.8-1.704-3.8-3.8v-5.864c0-0.44-0.36-0.8-0.8-0.8s-0.8 0.36-0.8 0.8v5.864c0 2.976 2.424 5.4 5.4 5.4s5.4-2.424 5.4-5.4v-10.104c0-2.16-1.76-3.92-3.92-3.92z"></path>
</symbol>
<symbol id="icon__close" viewBox="0 0 32 32">
<path d="M17.408 16l5.776-5.784c0.392-0.392 0.392-1.024 0-1.408-0.392-0.392-1.024-0.392-1.408 0l-5.776 5.784-5.776-5.784c-0.392-0.392-1.024-0.392-1.408 0-0.392 0.392-0.392 1.024 0 1.408l5.776 5.784-5.776 5.784c-0.392 0.392-0.392 1.024 0 1.408 0.192 0.192 0.448 0.288 0.704 0.288s0.512-0.096 0.704-0.296l5.776-5.784 5.776 5.784c0.192 0.192 0.448 0.296 0.704 0.296s0.512-0.096 0.704-0.288c0.392-0.392 0.392-1.024 0-1.408l-5.776-5.784z"></path>
</symbol>
<symbol id="icon__connect" viewBox="0 0 32 32">
<path d="M24.696 11.2c-1.28-1.28-2.992-1.992-4.8-1.992-1.416 0-2.768 0.432-3.896 1.232-2.648-1.856-6.336-1.608-8.696 0.76v0c-2.648 2.648-2.648 6.96 0 9.608 1.328 1.328 3.064 1.984 4.8 1.984 1.368 0 2.736-0.408 3.896-1.232 1.136 0.8 2.48 1.232 3.896 1.232 1.816 0 3.52-0.704 4.8-1.992s1.992-2.992 1.992-4.8c0-1.816-0.704-3.52-1.992-4.8zM16 19.424c-0.832-0.944-1.296-2.152-1.296-3.424s0.456-2.48 1.296-3.424c0.832 0.944 1.296 2.152 1.296 3.424-0.008 1.272-0.464 2.48-1.296 3.424zM8.432 19.672c-2.024-2.024-2.024-5.32 0-7.344v0c0.984-0.984 2.288-1.52 3.672-1.52 0.96 0 1.872 0.256 2.672 0.736-1.080 1.232-1.664 2.8-1.664 4.456s0.592 3.216 1.664 4.448c-2 1.2-4.632 0.936-6.344-0.776zM23.568 19.672c-0.984 0.984-2.28 1.52-3.672 1.52-0.96 0-1.872-0.256-2.672-0.736 1.080-1.232 1.664-2.8 1.664-4.456s-0.592-3.216-1.664-4.456c0.8-0.48 1.712-0.736 2.672-0.736 1.384 0 2.688 0.536 3.672 1.52s1.52 2.288 1.52 3.672c0 1.384-0.544 2.688-1.52 3.672z"></path>
</symbol>
<symbol id="icon__document" viewBox="0 0 32 32">
<path d="M24.368 11.696l-5.376-5.456c-0.152-0.152-0.352-0.24-0.568-0.24h-7.488c-1.952 0-3.536 1.584-3.536 3.536v12.928c0 1.952 1.584 3.536 3.536 3.536h10.128c1.952 0 3.536-1.584 3.536-3.536v-10.208c0-0.208-0.080-0.408-0.232-0.56zM23 12.584v0.056h-3.624c-0.664 0-1.208-0.544-1.208-1.208v-3.744l4.832 4.896zM21.064 24.4h-10.128c-1.072 0-1.936-0.872-1.936-1.936v-12.928c0-1.072 0.872-1.936 1.936-1.936h5.632v3.832c0 1.544 1.256 2.808 2.808 2.808h3.624v8.224c0 1.064-0.872 1.936-1.936 1.936z"></path>
<path d="M19.56 17.416c0 0-0.008 0-0.008 0l-7.36 0.080c-0.408 0.008-0.744 0.344-0.736 0.752s0.336 0.736 0.744 0.736c0 0 0.008 0 0.008 0l7.36-0.080c0.408-0.008 0.744-0.344 0.736-0.752 0-0.408-0.336-0.736-0.744-0.736z"></path>
<path d="M19.552 20.136l-7.36 0.080c-0.408 0.008-0.744 0.344-0.736 0.752s0.336 0.736 0.744 0.736c0 0 0.008 0 0.008 0l7.36-0.080c0.408-0.008 0.744-0.344 0.736-0.752 0-0.408-0.344-0.744-0.752-0.736z"></path>
</symbol>
<symbol id="icon__edit" viewBox="0 0 32 32">
<path d="M25.968 25.336l-1.656-5.544c-0.032-0.104-0.088-0.192-0.168-0.248 0 0-0.008-0.008-0.008-0.008l-12.736-12.736c-1.040-1.040-2.744-1.040-3.784 0l-0.824 0.824c-1.040 1.040-1.040 2.744 0 3.784l12.736 12.736c0.040 0.040 0.096 0.080 0.144 0.112 0.048 0.048 0.112 0.080 0.184 0.096l5.488 1.608c0.048 0.016 0.096 0.024 0.144 0.024 0.128 0 0.264-0.048 0.352-0.144 0.136-0.136 0.184-0.328 0.128-0.504zM22.344 19.64l-2.72 2.72-9.656-9.672 2.72-2.72 9.656 9.672zM23.544 20.704l0.776 2.616-1 1-2.624-0.768 2.848-2.848zM7.736 8.568l0.824-0.824c0.52-0.52 1.368-0.52 1.896 0l1.096 1.096-2.72 2.72-1.096-1.096c-0.52-0.528-0.52-1.376 0-1.896z"></path>
</symbol>
<symbol id="icon__grip" viewBox="0 0 32 32">
<path d="M11.72 16.616c-0.328 0-0.6-0.264-0.6-0.6 0-0.328 0.264-0.6 0.6-0.6l8.568-0.024c0 0 0 0 0 0 0.328 0 0.6 0.264 0.6 0.6 0 0.328-0.264 0.6-0.6 0.6l-8.568 0.024c0 0 0 0 0 0z"></path>
<path d="M11.72 20.216c-0.328 0-0.6-0.264-0.6-0.6 0-0.328 0.264-0.6 0.6-0.6l8.568-0.024c0 0 0 0 0 0 0.328 0 0.6 0.264 0.6 0.6 0 0.328-0.264 0.6-0.6 0.6l-8.568 0.024c0 0 0 0 0 0z"></path>
<path d="M11.72 13.016c-0.328 0-0.6-0.264-0.6-0.6 0-0.328 0.264-0.6 0.6-0.6l8.568-0.024c0 0 0 0 0 0 0.328 0 0.6 0.264 0.6 0.6 0 0.328-0.264 0.6-0.6 0.6l-8.568 0.024c0 0 0 0 0 0z"></path>
</symbol>
<symbol id="icon__hammer" viewBox="0 0 32 32">
<path d="M23.568 14.392l-2.392-2.392 0.992-0.992c0.312-0.312 0.312-0.816 0-1.128s-0.816-0.312-1.128 0l-0.992 0.992-2.472-2.472c-0.152-0.152-0.352-0.232-0.568-0.232s-0.416 0.088-0.568 0.232l-3.92 3.92c-0.312 0.312-0.312 0.816 0 1.128l2.48 2.48c-0.040 0.024-0.072 0.056-0.112 0.088l-6.456 6.464c-0.312 0.312-0.312 0.816 0 1.128 0.16 0.16 0.36 0.232 0.568 0.232s0.408-0.080 0.568-0.232l6.464-6.464c0.032-0.032 0.064-0.072 0.088-0.112l2.408 2.408c0.16 0.16 0.36 0.232 0.568 0.232s0.408-0.080 0.568-0.232l3.92-3.92c0.152-0.152 0.232-0.352 0.232-0.568s-0.096-0.416-0.248-0.56zM19.080 17.744l-4.864-4.864 2.792-2.792 4.864 4.864-2.792 2.792z"></path>
</symbol>
<symbol id="icon__image" viewBox="0 0 32 32">
<path d="M25.96 10.128c0-2.12-1.728-3.848-3.848-3.848h-12.224c-2.12 0-3.848 1.728-3.848 3.848v11.752c0 2.12 1.728 3.848 3.848 3.848h12.232c1.824 0 3.36-1.28 3.752-2.992 0.064-0.136 0.088-0.288 0.072-0.432 0.016-0.136 0.024-0.28 0.024-0.416v-11.76zM9.888 7.88h12.232c1.24 0 2.248 1.008 2.248 2.248v10.344l-2.632-2.632c-0.4-0.4-0.92-0.616-1.488-0.616s-1.088 0.216-1.488 0.616l-1.040 1.040c-0.096 0.096-0.216 0.144-0.352 0.144s-0.256-0.048-0.352-0.144l-3.4-3.4c-0.816-0.816-2.152-0.816-2.968 0l-3.008 3v-8.352c0-1.24 1.008-2.248 2.248-2.248zM22.112 24.12h-12.224c-1.24 0-2.248-1.008-2.248-2.248v-1.136l4.136-4.136c0.192-0.192 0.512-0.192 0.704 0l3.4 3.4c0.816 0.816 2.152 0.816 2.968 0l1.040-1.040c0.096-0.096 0.216-0.144 0.352-0.144s0.256 0.048 0.352 0.144l3.64 3.64c-0.296 0.888-1.136 1.52-2.12 1.52z"></path>
<path d="M17.68 14.88c1.432 0 2.6-1.168 2.6-2.6s-1.168-2.6-2.6-2.6c-1.432 0-2.6 1.168-2.6 2.6s1.168 2.6 2.6 2.6zM17.68 10.88c0.768 0 1.4 0.632 1.4 1.4s-0.632 1.4-1.4 1.4-1.4-0.632-1.4-1.4 0.632-1.4 1.4-1.4z"></path>
</symbol>
<symbol id="icon__info" viewBox="0 0 32 32">
<path d="M16 25.76c-5.384 0-9.76-4.376-9.76-9.76s4.376-9.76 9.76-9.76c2.496 0 4.872 0.944 6.696 2.656 1.952 1.84 3.064 4.424 3.064 7.104 0 5.384-4.376 9.76-9.76 9.76zM16 7.84c-4.496 0-8.16 3.664-8.16 8.16s3.664 8.16 8.16 8.16 8.16-3.664 8.16-8.16c0-2.272-0.912-4.384-2.568-5.936-1.52-1.432-3.504-2.224-5.592-2.224z"></path>
<path d="M16.472 15.16c0.112 0.16 0.168 0.392 0.168 0.688 0 0.16-0.024 0.4-0.064 0.72s-0.072 0.528-0.080 0.624c-0.008 0.072-0.032 0.224-0.064 0.464s-0.048 0.4-0.048 0.496c0 0.136 0.040 0.208 0.12 0.208 0.144 0 0.272-0.208 0.392-0.632l0.432 0.128c-0.032 0.176-0.104 0.36-0.208 0.552s-0.248 0.352-0.416 0.488c-0.168 0.136-0.368 0.2-0.592 0.2-0.28 0-0.48-0.072-0.592-0.224s-0.168-0.376-0.168-0.68c0-0.24 0.048-0.664 0.144-1.272 0.080-0.52 0.12-0.872 0.12-1.048 0-0.136-0.040-0.208-0.128-0.208-0.136 0-0.264 0.208-0.384 0.632l-0.432-0.128c0.032-0.168 0.104-0.352 0.208-0.544 0.112-0.192 0.248-0.36 0.424-0.496s0.368-0.2 0.6-0.2c0.264-0.008 0.456 0.072 0.568 0.232zM16.592 13.088c0.104 0.12 0.16 0.272 0.16 0.448 0 0.192-0.064 0.352-0.176 0.488-0.12 0.128-0.264 0.192-0.44 0.192s-0.32-0.056-0.432-0.176c-0.112-0.12-0.16-0.264-0.16-0.44 0-0.184 0.064-0.352 0.192-0.488s0.28-0.208 0.448-0.208c0.168 0 0.304 0.064 0.408 0.184z"></path>
</symbol>
<symbol id="icon__language" viewBox="0 0 32 32">
<path d="M22.272 14.040h-3.72v-4.6c0-1.744-1.416-3.16-3.16-3.16h-5.656c-1.744 0-3.16 1.416-3.16 3.16v3.584c0 1.536 1.104 2.824 2.56 3.104l-0.008 0.832c-0.008 0.36 0.184 0.688 0.488 0.864 0.144 0.080 0.312 0.128 0.472 0.128 0.184 0 0.36-0.048 0.52-0.152 0.016-0.008 0.032-0.024 0.048-0.032l1.64-1.296c0.224-0.176 0.512-0.28 0.8-0.28h0.528c-0.104 0.32-0.168 0.656-0.168 1.008v3.584c0 1.744 1.416 3.16 3.16 3.16h2.296c0.288 0 0.568 0.096 0.8 0.28l1.64 1.296c0.016 0.016 0.032 0.024 0.048 0.032 0.16 0.104 0.336 0.152 0.52 0.152 0.16 0 0.328-0.040 0.472-0.128 0.312-0.176 0.496-0.504 0.496-0.856l-0.008-0.84c1.456-0.28 2.56-1.568 2.56-3.104v-3.584c-0.008-1.728-1.424-3.152-3.168-3.152zM14.352 14.992h-1.256c-0.56 0-1.104 0.192-1.544 0.536l-1.232 0.976 0.008-0.904c0-0.16-0.064-0.312-0.176-0.432-0.112-0.112-0.264-0.176-0.424-0.176-1.080 0-1.96-0.88-1.96-1.96v-3.584c0-1.080 0.88-1.96 1.96-1.96h5.656c1.080 0 1.96 0.88 1.96 1.96v4.6h-0.744c-0.872-0.008-1.672 0.36-2.248 0.944 0 0 0 0 0 0zM24.232 20.792c0 1.080-0.88 1.96-1.96 1.96-0.16 0-0.312 0.064-0.424 0.176s-0.176 0.264-0.176 0.432l0.008 0.904-1.224-0.968c-0.44-0.344-0.984-0.536-1.544-0.536h-2.296c-1.080 0-1.96-0.88-1.96-1.96v-3.584c0-1.080 0.88-1.96 1.96-1.96h5.656c1.080 0 1.96 0.88 1.96 1.96v3.576z"></path>
<path d="M14.752 13.256c0.192-0.104 0.264-0.352 0.152-0.544l-2-3.584c-0.072-0.128-0.208-0.208-0.352-0.208s-0.28 0.080-0.352 0.208l-2 3.584c-0.104 0.192-0.040 0.44 0.152 0.544s0.44 0.040 0.544-0.152l0.432-0.768h2.44l0.432 0.768c0.072 0.128 0.208 0.208 0.352 0.208 0.072-0.008 0.144-0.024 0.2-0.056zM12.56 10.144l0.776 1.392h-1.552l0.776-1.392z"></path>
<path d="M21.232 17.624l-1.392-0.008v-0.376c0-0.224-0.176-0.4-0.4-0.4 0 0 0 0 0 0-0.216 0-0.4 0.176-0.4 0.4v0.376l-1.392-0.008c0 0 0 0 0 0-0.224 0-0.4 0.176-0.4 0.4s0.176 0.4 0.4 0.4h0.632c0.072 0.328 0.24 0.832 0.608 1.328-0.296 0.248-0.688 0.472-1.192 0.624-0.208 0.064-0.328 0.288-0.264 0.496 0.056 0.176 0.208 0.28 0.384 0.28 0.040 0 0.080-0.008 0.12-0.016 0.64-0.192 1.128-0.48 1.504-0.8 0.376 0.32 0.864 0.616 1.496 0.816 0.040 0.016 0.080 0.016 0.12 0.016 0.168 0 0.328-0.112 0.384-0.28 0.064-0.208-0.048-0.432-0.264-0.504-0.504-0.16-0.896-0.384-1.192-0.64 0.368-0.496 0.544-1 0.616-1.328h0.632c0 0 0 0 0 0 0.224 0 0.4-0.176 0.4-0.4 0-0.2-0.176-0.376-0.4-0.376zM19.432 19.12c-0.168-0.264-0.272-0.512-0.328-0.712h0.664c-0.056 0.208-0.16 0.456-0.336 0.712z"></path>
</symbol>
<symbol id="icon__link" viewBox="0 0 32 32">
<path d="M17.944 16.816c-0.312-0.312-0.816-0.312-1.128 0-1.28 1.28-3.368 1.28-4.656 0l-3.376-3.376c-1.28-1.28-1.28-3.368 0-4.656s3.368-1.28 4.656 0l3.088 3.088c0.312 0.312 0.816 0.312 1.128 0s0.312-0.816 0-1.128l-3.088-3.088c-1.904-1.904-5.008-1.904-6.92 0-1.904 1.904-1.904 5.008 0 6.92l3.376 3.376c0.952 0.952 2.208 1.432 3.456 1.432 1.256 0 2.504-0.48 3.456-1.432 0.32-0.32 0.32-0.824 0.008-1.136z"></path>
<path d="M24.344 17.432l-2.776-2.776c-1.904-1.904-5.008-1.904-6.92 0-0.312 0.312-0.312 0.816 0 1.128s0.816 0.312 1.128 0c1.28-1.28 3.368-1.28 4.656 0l2.776 2.776c0.616 0.616 0.96 1.448 0.96 2.328s-0.344 1.712-0.96 2.328-1.448 0.96-2.328 0.96-1.712-0.344-2.328-0.96l-2.568-2.576c-0.312-0.312-0.816-0.312-1.128 0s-0.312 0.816 0 1.128l2.576 2.576c0.92 0.92 2.152 1.424 3.456 1.424s2.536-0.504 3.456-1.424 1.424-2.152 1.424-3.456-0.504-2.536-1.424-3.456z"></path>
</symbol>
<symbol id="icon__lock" viewBox="0 0 32 32">
<path d="M21.184 10.080h-0.888c-0.112-1.008-0.584-1.96-1.328-2.664-0.808-0.76-1.864-1.176-2.968-1.176-2.216 0-4.056 1.68-4.296 3.84h-0.888c-2.064 0-3.736 1.68-3.736 3.736v8.2c0 2.064 1.68 3.736 3.736 3.736h10.36c2.064 0 3.736-1.68 3.736-3.736v-8.2c0.008-2.056-1.672-3.736-3.728-3.736zM16 7.84c0.696 0 1.36 0.264 1.864 0.744 0.432 0.408 0.712 0.928 0.816 1.496h-5.352c0.224-1.272 1.336-2.24 2.672-2.24zM23.32 22.024c0 1.176-0.96 2.136-2.136 2.136h-10.368c-1.176 0-2.136-0.96-2.136-2.136v-8.208c0-1.176 0.96-2.136 2.136-2.136h10.36c1.176 0 2.136 0.96 2.136 2.136v8.208z"></path>
<path d="M16 13.88c-1.256 0-2.28 1.024-2.28 2.28 0 1.048 0.712 1.936 1.68 2.2v3c0 0.328 0.272 0.6 0.6 0.6s0.6-0.272 0.6-0.6v-3c0.968-0.264 1.68-1.152 1.68-2.2 0-1.256-1.024-2.28-2.28-2.28zM16 17.24c-0.592 0-1.080-0.488-1.080-1.080s0.488-1.080 1.080-1.080 1.080 0.488 1.080 1.080-0.488 1.080-1.080 1.080z"></path>
</symbol>
<symbol id="icon__message-v2" viewBox="0 0 32 32">
<path d="M20.808 6.304h-9.616c-2.84 0-5.152 2.312-5.152 5.152v6.088c0 2.84 2.312 5.152 5.152 5.152h3.904c0.536 0 1.064 0.184 1.488 0.52l2.784 2.208c0.024 0.016 0.040 0.032 0.064 0.048 0.232 0.152 0.496 0.224 0.76 0.224 0.24 0 0.48-0.064 0.696-0.184 0.456-0.256 0.736-0.744 0.72-1.264l-0.016-1.608c2.464-0.392 4.344-2.52 4.344-5.088v-6.088c0.024-2.848-2.288-5.16-5.128-5.16zM24.36 17.552c0 1.96-1.592 3.552-3.552 3.552-0.216 0-0.416 0.088-0.568 0.24s-0.232 0.36-0.232 0.568l0.016 1.992-2.44-1.936c-0.704-0.56-1.584-0.864-2.48-0.864h-3.904c-1.96 0-3.552-1.592-3.552-3.552v-6.088c0-1.96 1.592-3.552 3.552-3.552h9.608c1.96 0 3.552 1.592 3.552 3.552v6.088z"></path>
<path d="M12.648 13.264c-0.704 0-1.28 0.576-1.28 1.28s0.576 1.28 1.28 1.28 1.28-0.576 1.28-1.28-0.568-1.28-1.28-1.28zM12.648 14.6c-0.032 0-0.056-0.024-0.056-0.056s0.024-0.056 0.056-0.056 0.056 0.024 0.056 0.056-0.024 0.056-0.056 0.056z"></path>
<path d="M16.048 13.264c-0.704 0-1.28 0.576-1.28 1.28s0.576 1.28 1.28 1.28 1.28-0.576 1.28-1.28-0.576-1.28-1.28-1.28zM16.048 14.6c-0.032 0-0.056-0.024-0.056-0.056s0.024-0.056 0.056-0.056 0.056 0.024 0.056 0.056-0.024 0.056-0.056 0.056z"></path>
<path d="M19.512 13.264c-0.704 0-1.28 0.576-1.28 1.28s0.576 1.28 1.28 1.28 1.28-0.576 1.28-1.28-0.576-1.28-1.28-1.28zM19.512 14.6c-0.032 0-0.056-0.024-0.056-0.056s0.024-0.056 0.056-0.056 0.056 0.024 0.056 0.056-0.024 0.056-0.056 0.056z"></path>
</symbol>
<symbol id="icon__message" viewBox="0 0 32 32">
<path d="M20.208 25.696c-0.264 0-0.528-0.072-0.76-0.224-0.024-0.016-0.048-0.032-0.064-0.048l-2.784-2.208c-0.424-0.336-0.952-0.52-1.488-0.52h-3.904c-2.84 0-5.152-2.312-5.152-5.152v-6.088c0-2.84 2.312-5.152 5.152-5.152h9.608c2.84 0 5.152 2.312 5.152 5.152v6.088c0 2.568-1.888 4.704-4.344 5.088l0.016 1.608c0.008 0.52-0.264 1.008-0.72 1.264-0.232 0.128-0.472 0.192-0.712 0.192zM11.192 7.904c-1.96 0-3.552 1.592-3.552 3.552v6.088c0 1.96 1.592 3.552 3.552 3.552h3.904c0.896 0 1.776 0.304 2.48 0.864l2.44 1.936-0.016-1.992c0-0.216 0.080-0.416 0.232-0.568s0.352-0.24 0.568-0.24c1.96 0 3.552-1.592 3.552-3.552v-6.088c0-1.96-1.592-3.552-3.552-3.552h-9.608z"></path>
</symbol>
<symbol id="icon__more" viewBox="0 0 32 32">
<path d="M9.328 18.528c-1.392 0-2.528-1.136-2.528-2.528s1.136-2.528 2.528-2.528 2.528 1.136 2.528 2.528-1.136 2.528-2.528 2.528zM9.328 15.072c-0.512 0-0.928 0.416-0.928 0.928s0.416 0.928 0.928 0.928 0.928-0.416 0.928-0.928-0.424-0.928-0.928-0.928z"></path>
<path d="M22.672 18.528c-1.392 0-2.528-1.136-2.528-2.528s1.136-2.528 2.528-2.528 2.528 1.136 2.528 2.528-1.136 2.528-2.528 2.528zM22.672 15.072c-0.512 0-0.928 0.416-0.928 0.928s0.416 0.928 0.928 0.928 0.928-0.416 0.928-0.928-0.416-0.928-0.928-0.928z"></path>
<path d="M16 18.528c-1.392 0-2.528-1.136-2.528-2.528s1.136-2.528 2.528-2.528c1.392 0 2.528 1.136 2.528 2.528s-1.136 2.528-2.528 2.528zM16 15.072c-0.512 0-0.928 0.416-0.928 0.928s0.416 0.928 0.928 0.928 0.928-0.416 0.928-0.928-0.416-0.928-0.928-0.928z"></path>
</symbol>
<symbol id="icon__paths" viewBox="0 0 32 32">
<path d="M25.184 12.056c0.008-0.008 0.008-0.016 0.016-0.024 0.008-0.016 0.016-0.024 0.024-0.040 0.008-0.008 0.008-0.016 0.016-0.024 0.008-0.016 0.016-0.040 0.024-0.056 0 0 0 0 0 0 0.016-0.032 0.024-0.072 0.032-0.104 0-0.008 0-0.016 0.008-0.024 0.008-0.032 0.016-0.072 0.016-0.104 0 0 0 0 0 0 0-0.032 0-0.072 0-0.104 0-0.008 0-0.016 0-0.024 0-0.032-0.008-0.072-0.016-0.104 0 0 0 0 0 0-0.008-0.032-0.016-0.064-0.024-0.104 0-0.008-0.008-0.016-0.008-0.016-0.024-0.064-0.056-0.128-0.096-0.184-0.008-0.008-0.008-0.016-0.016-0.016-0.024-0.032-0.048-0.056-0.072-0.080l-3.576-3.576c-0.312-0.312-0.816-0.312-1.128 0s-0.312 0.816 0 1.128l2.208 2.208h-7.592c-0.44 0-0.8 0.36-0.8 0.8s0.36 0.8 0.8 0.8h7.592l-2.208 2.208c-0.312 0.312-0.312 0.816 0 1.128 0.16 0.16 0.36 0.232 0.568 0.232s0.408-0.080 0.568-0.232l3.576-3.576c0 0 0 0 0.008-0.008 0.016-0.016 0.032-0.032 0.048-0.056 0 0 0.008-0.008 0.008-0.008 0-0.008 0.008-0.024 0.024-0.040z"></path>
<path d="M17 19.592h-7.592l2.208-2.208c0.312-0.312 0.312-0.816 0-1.128s-0.816-0.312-1.128 0l-3.576 3.576c0 0 0 0-0.008 0.008-0.016 0.016-0.032 0.032-0.048 0.056 0 0.008-0.008 0.008-0.008 0.016-0.008 0.016-0.024 0.032-0.032 0.040s-0.008 0.016-0.016 0.024-0.016 0.024-0.024 0.040c-0.008 0.008-0.008 0.016-0.016 0.024-0.008 0.016-0.016 0.040-0.024 0.056 0 0 0 0 0 0-0.016 0.032-0.024 0.072-0.032 0.104 0 0.008 0 0.016-0.008 0.024-0.008 0.032-0.016 0.072-0.016 0.104 0 0 0 0 0 0 0 0.032 0 0.072 0 0.104 0 0.008 0 0.016 0 0.024 0 0.032 0.008 0.072 0.016 0.104 0 0 0 0 0 0 0.008 0.032 0.016 0.064 0.024 0.096 0 0.008 0.008 0.016 0.008 0.016 0.024 0.064 0.056 0.128 0.096 0.184 0.008 0.008 0.008 0.016 0.016 0.016 0.024 0.032 0.048 0.056 0.072 0.080 0 0 0 0 0 0l3.576 3.576c0.16 0.16 0.36 0.232 0.568 0.232s0.408-0.080 0.568-0.232c0.312-0.312 0.312-0.816 0-1.128l-2.208-2.208h7.592c0.44 0 0.8-0.36 0.8-0.8s-0.368-0.8-0.808-0.8z"></path>
</symbol>
<symbol id="icon__phone" viewBox="0 0 32 32">
<path d="M20.848 25.68c-0.96 0-1.896-0.224-2.696-0.504-1.696-0.6-3.552-1.696-5.656-3.36-3.168-2.48-6.808-6.424-6.12-11.088 0.2-1.368 1.12-3.64 2.824-4.32 0.264-0.12 0.552-0.104 0.76-0.072 0.624 0.088 1.184 0.512 1.56 0.792 0.048 0.032 0.088 0.064 0.128 0.096 0.488 0.36 0.92 0.768 1.336 1.16 0.12 0.112 0.232 0.216 0.352 0.328 0.304 0.288 0.656 0.624 0.928 1.064 0.832 1.352 0.216 2.304-0.328 3.152l-0.016 0.024c-0.184 0.256-0.592 0.736-0.88 1.056 0.232 0.408 0.664 1.064 0.784 1.224l0.008 0.016c0.392 0.544 0.856 1.080 1.384 1.584 0.552 0.512 1.128 0.952 1.712 1.32l0.048 0.032c0.168 0.12 0.84 0.56 1.264 0.784l0.432-0.416c0.080-0.080 0.168-0.176 0.256-0.28 0.384-0.44 0.912-1.048 1.752-1.072 0.8-0.024 1.624 0.6 2.544 1.36 0.16 0.136 0.32 0.264 0.424 0.344l0.104 0.080c0.8 0.632 1.888 1.496 1.976 2.832v0.024c0.024 0.696-0.328 1.44-1.040 2.192-1.16 1.232-2.528 1.648-3.84 1.648zM9.712 7.784c-0.952 0.4-1.704 1.912-1.888 3.16-0.584 3.968 2.712 7.472 5.576 9.72 1.952 1.536 3.712 2.592 5.24 3.128 2.16 0.768 3.784 0.512 4.952-0.768l0.008-0.008c0.416-0.44 0.648-0.848 0.648-1.128-0.048-0.672-0.808-1.28-1.424-1.76l-0.064-0.056c-0.144-0.104-0.296-0.232-0.48-0.384-0.344-0.28-1.24-1.024-1.568-1.024 0 0 0 0 0 0-0.2 0.008-0.448 0.296-0.688 0.576-0.104 0.12-0.216 0.248-0.328 0.36h-0.016l-0.76 0.736c-0.488 0.48-1.128 0.096-1.816-0.32-0.4-0.24-0.84-0.528-0.992-0.64-0.656-0.416-1.296-0.912-1.904-1.48l-0.008-0.008c-0.592-0.568-1.12-1.168-1.56-1.784-0.088-0.12-0.384-0.552-0.64-0.976-0.432-0.704-0.776-1.256-0.368-1.744l0.024-0.024c0.32-0.352 0.888-0.992 1.064-1.24 0.52-0.8 0.64-1.032 0.304-1.568-0.16-0.256-0.376-0.48-0.68-0.76-0.12-0.104-0.24-0.216-0.36-0.336-0.384-0.36-0.784-0.736-1.208-1.048-0.040-0.032-0.088-0.064-0.144-0.104-0.224-0.168-0.64-0.48-0.88-0.512h-0.024c-0.008-0.008-0.016-0.008-0.016-0.008zM17.904 19.288c0 0 0 0 0 0v0z"></path>
</symbol>
<symbol id="icon__pin" viewBox="0 0 32 32">
<path d="M21.784 8.688c-1.544-1.544-3.6-2.4-5.784-2.4s-4.24 0.848-5.784 2.4c-3.192 3.192-3.192 8.384 0 11.568l5.216 5.216c0.16 0.16 0.36 0.232 0.568 0.232s0.408-0.080 0.568-0.232l5.216-5.224c3.192-3.184 3.192-8.376 0-11.56zM20.656 19.128l-4.656 4.648-4.656-4.656c-2.568-2.568-2.568-6.744 0-9.312 1.24-1.24 2.896-1.928 4.656-1.928s3.408 0.688 4.656 1.928c2.568 2.576 2.568 6.752 0 9.32z"></path>
<path d="M16 11.312c-1.72 0-3.12 1.4-3.12 3.12s1.4 3.12 3.12 3.12 3.12-1.4 3.12-3.12-1.4-3.12-3.12-3.12zM16 15.952c-0.84 0-1.52-0.68-1.52-1.52s0.68-1.52 1.52-1.52 1.52 0.68 1.52 1.52-0.68 1.52-1.52 1.52z"></path>
</symbol>
<symbol id="icon__print" viewBox="0 0 32 32">
<path d="M23.52 17.376v-8.264c0-1.632-1.328-2.952-2.952-2.952h-9.296c-1.632 0-2.952 1.328-2.952 2.952v8.256c-1.392 0.144-2.48 1.32-2.48 2.744v2.88c0 1.52 1.24 2.76 2.76 2.76h14.64c1.52 0 2.76-1.24 2.76-2.76v-2.88c0-1.416-1.088-2.6-2.48-2.736zM9.92 9.112c0-0.744 0.608-1.352 1.352-1.352h9.288c0.744 0 1.352 0.608 1.352 1.352v8.248h-11.992v-8.248zM24.4 23c0 0.64-0.52 1.16-1.16 1.16h-14.64c-0.64 0-1.16-0.52-1.16-1.16v-2.88c0-0.64 0.52-1.16 1.16-1.16h14.64c0.64 0 1.16 0.52 1.16 1.16v2.88z"></path>
<path d="M19.76 9.88h-7.68c-0.328 0-0.6 0.272-0.6 0.6s0.272 0.6 0.6 0.6h7.68c0.328 0 0.6-0.272 0.6-0.6s-0.272-0.6-0.6-0.6z"></path>
<path d="M16.56 12.52h-4.48c-0.328 0-0.6 0.272-0.6 0.6s0.272 0.6 0.6 0.6h4.48c0.328 0 0.6-0.272 0.6-0.6s-0.272-0.6-0.6-0.6z"></path>
<path d="M22.72 19.92h-3.12c-0.328 0-0.6 0.272-0.6 0.6s0.272 0.6 0.6 0.6h3.12c0.328 0 0.6-0.272 0.6-0.6s-0.272-0.6-0.6-0.6z"></path>
</symbol>
<symbol id="icon__question" viewBox="0 0 32 32">
<path d="M22.688 8.896c-1.816-1.712-4.192-2.656-6.688-2.656 0 0 0 0 0 0-5.384 0-9.76 4.376-9.76 9.76s4.376 9.76 9.76 9.76c5.384 0 9.76-4.376 9.76-9.76 0-2.68-1.12-5.264-3.072-7.104zM16 24.16c0 0 0 0 0 0-4.496 0-8.16-3.664-8.16-8.16s3.664-8.16 8.16-8.16c0 0 0 0 0 0 2.088 0 4.072 0.792 5.592 2.216 1.656 1.56 2.568 3.664 2.568 5.936 0 4.504-3.664 8.168-8.16 8.168z"></path>
<path d="M15.768 18.232c-0.216 0-0.4 0.088-0.568 0.264s-0.248 0.376-0.248 0.608c0 0.216 0.072 0.408 0.216 0.56s0.312 0.232 0.512 0.232c0.216 0 0.4-0.088 0.568-0.264s0.248-0.376 0.248-0.608c0-0.216-0.064-0.408-0.2-0.56s-0.312-0.232-0.528-0.232z"></path>
<path d="M17.72 12.56c-0.344-0.304-0.896-0.456-1.648-0.456-0.416 0-0.808 0.080-1.16 0.248-0.352 0.16-0.632 0.368-0.84 0.624-0.208 0.248-0.312 0.504-0.312 0.76 0 0.208 0.056 0.376 0.176 0.504s0.288 0.2 0.504 0.2c0.224 0 0.408-0.080 0.536-0.248 0.128-0.16 0.192-0.328 0.192-0.504 0-0.088-0.016-0.176-0.040-0.272-0.032-0.096-0.072-0.168-0.128-0.232 0.080-0.088 0.192-0.16 0.352-0.232 0.152-0.072 0.312-0.104 0.48-0.104 0.584 0 0.872 0.344 0.872 1.032 0 0.408-0.080 0.744-0.24 1.008-0.16 0.272-0.4 0.56-0.728 0.864-0.392 0.368-0.64 0.64-0.76 0.816s-0.176 0.36-0.176 0.552c0 0.224 0.088 0.4 0.256 0.512s0.376 0.168 0.624 0.168c0.152 0 0.328-0.016 0.528-0.056 0.192-0.032 0.376-0.096 0.536-0.184l-0.136-0.544c-0.112 0.032-0.216 0.040-0.32 0.040-0.144 0-0.248-0.032-0.312-0.088s-0.104-0.128-0.104-0.224c0-0.128 0.064-0.256 0.2-0.392 0.128-0.128 0.344-0.304 0.632-0.528 0.328-0.256 0.592-0.472 0.792-0.656s0.376-0.408 0.528-0.656 0.224-0.528 0.224-0.816c-0.008-0.456-0.184-0.84-0.528-1.136z"></path>
</symbol>
<symbol id="icon__settings" viewBox="0 0 32 32">
<path d="M17.144 25.792h-2.288c-0.608 0-1.104-0.48-1.128-1.080l-0.16-1.48c-0.328-0.112-0.648-0.248-0.96-0.4l-1.16 0.936c-0.44 0.4-1.136 0.392-1.56-0.040l-1.616-1.616c-0.432-0.432-0.44-1.12-0.040-1.56l0.936-1.16c-0.152-0.312-0.288-0.632-0.4-0.96l-1.48-0.16c-0.6-0.032-1.080-0.528-1.080-1.128v-2.288c0-0.608 0.48-1.104 1.080-1.128l1.48-0.16c0.112-0.328 0.248-0.648 0.4-0.96l-0.936-1.16c-0.192-0.208-0.296-0.48-0.296-0.76 0-0.304 0.12-0.584 0.336-0.8l1.616-1.616c0.432-0.432 1.12-0.44 1.56-0.040l1.16 0.936c0.312-0.152 0.632-0.288 0.96-0.4l0.16-1.48c0.032-0.6 0.528-1.080 1.128-1.080h2.288c0.608 0 1.104 0.48 1.128 1.080l0.16 1.48c0.328 0.112 0.648 0.248 0.96 0.4l1.16-0.936c0.44-0.4 1.136-0.392 1.56 0.040l1.616 1.616c0.216 0.216 0.328 0.496 0.328 0.8 0 0.288-0.104 0.552-0.296 0.76l-0.936 1.16c0.152 0.312 0.288 0.632 0.4 0.96l1.48 0.16c0.6 0.032 1.080 0.528 1.080 1.128v2.288c0 0.608-0.48 1.104-1.080 1.128l-1.48 0.16c-0.112 0.328-0.248 0.648-0.4 0.96l0.936 1.16c0.192 0.208 0.296 0.48 0.296 0.76 0 0.304-0.12 0.584-0.336 0.8l-1.616 1.616c-0.432 0.432-1.12 0.44-1.56 0.040l-1.16-0.936c-0.312 0.152-0.632 0.288-0.96 0.4l-0.16 1.48c-0.016 0.6-0.512 1.080-1.12 1.080zM16.672 24.656c0 0 0 0 0 0s0 0 0 0zM15.328 24.656c0 0 0 0 0 0s0 0 0 0zM15.28 24.192h1.44l0.176-1.656c0.032-0.336 0.272-0.608 0.6-0.688 0.552-0.144 1.080-0.36 1.576-0.656 0.288-0.168 0.648-0.144 0.912 0.064l1.296 1.048 1.016-1.016-1.048-1.296c-0.208-0.264-0.232-0.624-0.064-0.912 0.296-0.496 0.512-1.024 0.656-1.576 0.080-0.32 0.36-0.56 0.688-0.6l1.656-0.176v-1.44l-1.656-0.176c-0.336-0.032-0.608-0.272-0.688-0.6-0.144-0.552-0.36-1.080-0.656-1.576-0.168-0.288-0.144-0.648 0.064-0.912l1.048-1.296-1.016-1.032-1.296 1.048c-0.264 0.208-0.624 0.232-0.912 0.064-0.496-0.296-1.024-0.512-1.576-0.656-0.32-0.080-0.56-0.36-0.6-0.688l-0.176-1.656h-1.44l-0.176 1.656c-0.032 0.328-0.272 0.608-0.6 0.688-0.552 0.144-1.080 0.36-1.576 0.656-0.288 0.168-0.648 0.144-0.912-0.064l-1.296-1.048-1.024 1.024 1.048 1.296c0.208 0.264 0.232 0.624 0.064 0.912-0.296 0.496-0.512 1.024-0.656 1.576-0.080 0.32-0.36 0.56-0.688 0.6l-1.656 0.176v1.44l1.656 0.176c0.328 0.032 0.608 0.272 0.688 0.6 0.144 0.552 0.36 1.080 0.656 1.576 0.168 0.288 0.144 0.648-0.064 0.912l-1.048 1.296 1.016 1.016 1.296-1.048c0.256-0.208 0.624-0.232 0.912-0.064 0.496 0.296 1.024 0.512 1.576 0.656 0.32 0.080 0.56 0.36 0.6 0.688l0.184 1.664zM22.6 21.64c0 0 0 0 0 0s0 0 0 0zM22.6 20.984c0 0 0 0 0 0v0zM7.344 16.672c0 0 0 0 0 0s0 0 0 0zM24.656 16.672c0 0 0 0 0 0s0 0 0 0zM24.656 15.328c0 0 0 0 0 0s0 0 0 0zM7.344 15.328c0 0 0 0 0 0s0 0 0 0zM22.6 11.016c0 0 0 0 0 0v0zM9.4 11.016v0c0 0 0 0 0 0zM22.6 10.36c0 0 0 0 0 0s0 0 0 0zM9.4 10.36c0 0 0 0 0 0s0 0 0 0zM16.672 7.344c0 0 0 0 0 0s0 0 0 0zM15.328 7.344c0 0 0 0 0 0s0 0 0 0zM16 19.648c-2.016 0-3.648-1.64-3.648-3.648 0-2.016 1.64-3.648 3.648-3.648 2.016 0 3.648 1.64 3.648 3.648 0 2.016-1.632 3.648-3.648 3.648zM16 13.952c-1.128 0-2.048 0.92-2.048 2.048s0.92 2.048 2.048 2.048c1.128 0 2.048-0.92 2.048-2.048s-0.92-2.048-2.048-2.048z"></path>
</symbol>
<symbol id="icon__signal" viewBox="0 0 32 32">
<path d="M22.792 11.976c-1.816-1.712-4.192-2.656-6.696-2.656-2.608 0-5.056 1.016-6.904 2.856-0.312 0.312-0.312 0.816 0 1.128 0.16 0.16 0.36 0.232 0.568 0.232s0.408-0.080 0.568-0.232c1.544-1.544 3.592-2.392 5.768-2.392 2.088 0 4.072 0.792 5.592 2.224 0.32 0.304 0.824 0.288 1.128-0.032 0.312-0.32 0.296-0.824-0.024-1.128z"></path>
<path d="M16.056 12.704c-1.688 0-3.272 0.656-4.464 1.848-0.312 0.312-0.312 0.816 0 1.128 0.16 0.16 0.36 0.232 0.568 0.232s0.408-0.080 0.568-0.232c0.888-0.888 2.072-1.384 3.336-1.384 1.208 0 2.352 0.456 3.232 1.28 0.32 0.304 0.832 0.288 1.128-0.032 0.304-0.32 0.288-0.824-0.032-1.128-1.176-1.104-2.72-1.712-4.336-1.712z"></path>
<path d="M16.024 16.344c-0.888 0-1.72 0.344-2.344 0.968-0.312 0.312-0.312 0.816 0 1.128 0.16 0.16 0.36 0.232 0.568 0.232s0.408-0.080 0.568-0.232c0.32-0.32 0.752-0.504 1.208-0.504 0.44 0 0.856 0.168 1.176 0.464 0.32 0.304 0.824 0.288 1.128-0.032s0.288-0.824-0.032-1.128c-0.616-0.576-1.424-0.896-2.272-0.896z"></path>
<path d="M16.736 21.96c0 0.398-0.322 0.72-0.72 0.72s-0.72-0.322-0.72-0.72c0-0.398 0.322-0.72 0.72-0.72s0.72 0.322 0.72 0.72z"></path>
</symbol>
<symbol id="icon__trash" viewBox="0 0 32 32">
<path d="M23.84 9.032h-3.432c0-0.032 0.008-0.064 0.008-0.096 0-1.488-1.208-2.696-2.696-2.696h-3.648c-1.488 0-2.696 1.208-2.696 2.696 0 0.032 0 0.064 0.008 0.096h-3.448c-0.44 0-0.8 0.36-0.8 0.8s0.36 0.8 0.8 0.8h0.8l0.72 11.704c0.12 1.92 1.72 3.424 3.64 3.424h5.576c1.928 0 3.528-1.504 3.64-3.424l0.72-11.704h0.8c0.44 0 0.8-0.36 0.8-0.8s-0.344-0.8-0.792-0.8zM12.968 8.936c0-0.608 0.496-1.096 1.096-1.096h3.648c0.608 0 1.096 0.496 1.096 1.096 0 0.048-0.040 0.096-0.096 0.096h-5.656c-0.048 0-0.088-0.040-0.088-0.096zM20.728 22.232c-0.064 1.080-0.968 1.928-2.048 1.928h-5.576c-1.080 0-1.984-0.848-2.048-1.928l-0.712-11.6h11.096l-0.712 11.6z"></path>
<path d="M15.96 13.408c-0.328 0-0.6 0.272-0.6 0.6v6.704c0 0.328 0.272 0.6 0.6 0.6s0.6-0.272 0.6-0.6v-6.704c0-0.336-0.264-0.6-0.6-0.6z"></path>
<path d="M17.928 14.552l-0.216 5.416c-0.016 0.328 0.248 0.608 0.576 0.624 0.008 0 0.016 0 0.024 0 0.32 0 0.584-0.256 0.6-0.576l0.216-5.416c0.016-0.328-0.248-0.608-0.576-0.624-0.328-0.008-0.608 0.248-0.624 0.576z"></path>
<path d="M13.232 13.976c-0.328 0.016-0.592 0.296-0.576 0.624l0.216 5.416c0.016 0.32 0.28 0.576 0.6 0.576 0.008 0 0.016 0 0.024 0 0.328-0.016 0.592-0.296 0.576-0.624l-0.216-5.416c-0.016-0.328-0.296-0.584-0.624-0.576z"></path>
</symbol>
<symbol id="icon__upload" viewBox="0 0 32 32">
<path d="M19.728 15.888c0.208 0 0.408-0.080 0.568-0.232 0.312-0.312 0.312-0.816 0-1.128l-3.768-3.768c0 0 0 0-0.008-0.008-0.016-0.016-0.032-0.032-0.056-0.048 0 0-0.008-0.008-0.008-0.008-0.016-0.008-0.032-0.024-0.048-0.032-0.008-0.008-0.016-0.008-0.024-0.016-0.016-0.008-0.024-0.016-0.040-0.024-0.008-0.008-0.016-0.008-0.024-0.016-0.016-0.008-0.040-0.016-0.056-0.024 0 0 0 0 0 0-0.032-0.016-0.072-0.024-0.104-0.032-0.008 0-0.016 0-0.024-0.008-0.032-0.008-0.072-0.016-0.104-0.016 0 0 0 0 0 0-0.032 0-0.072 0-0.104 0-0.008 0-0.016 0-0.024 0-0.072 0.008-0.136 0.016-0.208 0.040-0.008 0-0.008 0.008-0.016 0.008-0.064 0.024-0.128 0.056-0.192 0.096-0.008 0.008-0.016 0.008-0.016 0.016-0.032 0.024-0.056 0.048-0.080 0.072l-3.768 3.768c-0.312 0.312-0.312 0.816 0 1.128s0.816 0.312 1.128 0l2.4-2.4v11.992c0 0.44 0.36 0.8 0.8 0.8s0.8-0.36 0.8-0.8v-12l2.4 2.4c0.168 0.16 0.376 0.24 0.576 0.24z"></path>
<path d="M22.328 5.96h-12.656c-1.912 0-3.472 1.56-3.472 3.472v7.776c0 1.912 1.56 3.472 3.472 3.472h2.128c0.44 0 0.8-0.36 0.8-0.8s-0.36-0.8-0.8-0.8h-2.128c-1.032 0-1.872-0.84-1.872-1.872v-7.776c0-1.032 0.84-1.872 1.872-1.872h12.656c1.032 0 1.872 0.84 1.872 1.872v7.776c0 1.032-0.84 1.872-1.872 1.872h-2.328c-0.44 0-0.8 0.36-0.8 0.8s0.36 0.8 0.8 0.8h2.328c1.912 0 3.472-1.56 3.472-3.472v-7.776c0-1.912-1.56-3.472-3.472-3.472z"></path>
</symbol>
<symbol id="icon__video" viewBox="0 0 32 32">
<path d="M23.872 11.28c-0.304 0-0.608 0.064-0.888 0.192l-1.144 0.512v-0.44c0-2.064-1.68-3.736-3.736-3.736h-8.44c-2.064 0-3.736 1.68-3.736 3.736v8.92c0 2.064 1.68 3.736 3.736 3.736h8.44c2.064 0 3.736-1.68 3.736-3.736v-0.44l1.144 0.512c0.28 0.128 0.584 0.192 0.888 0.192 1.216 0 2.2-1 2.2-2.232v-4.984c0.008-1.232-0.984-2.232-2.2-2.232zM18.104 22.6h-8.44c-1.176 0-2.136-0.96-2.136-2.136v-8.928c0-1.176 0.96-2.136 2.136-2.136h8.44c1.176 0 2.136 0.96 2.136 2.136v2.368c-0.008 0.080-0.016 0.168-0.016 0.256v3.68c0 0.088 0.008 0.168 0.016 0.256v2.368c0 1.176-0.96 2.136-2.136 2.136zM24.48 18.488c0 0.36-0.288 0.632-0.6 0.632-0.080 0-0.16-0.016-0.24-0.048l-1.448-0.648c-0.184-0.080-0.312-0.248-0.352-0.44v-3.96c0.040-0.192 0.168-0.36 0.352-0.44l1.448-0.648c0.080-0.032 0.16-0.048 0.24-0.048 0.32 0 0.6 0.264 0.6 0.632v4.968z"></path>
</symbol>
</defs>
</svg>
